SplineFontDB: 3.0
FontName: Binz
FullName: Binz
FamilyName: Binz
Weight: Medium
Copyright: Created by Kay Stenschke, 2012,Made with FontForge 2.0 (http://fontforge.sf.net)
UComments: "2011-9-7: Created." 
Version: 1.0.0
DefaultBaseFilename: Binz
ItalicAngle: 0
UnderlinePosition: -100
UnderlineWidth: 50
Ascent: 800
Descent: 200
LayerCount: 2
Layer: 0 0 "Back"  1
Layer: 1 0 "Fore"  0
XUID: [1021 608 839345913 7246875]
FSType: 0
OS2Version: 0
OS2_WeightWidthSlopeOnly: 0
OS2_UseTypoMetrics: 1
CreationTime: 1315400526
ModificationTime: 1349642840
PfmFamily: 17
TTFWeight: 500
TTFWidth: 5
LineGap: 90
VLineGap: 0
OS2TypoAscent: 0
OS2TypoAOffset: 1
OS2TypoDescent: 0
OS2TypoDOffset: 1
OS2TypoLinegap: 90
OS2WinAscent: 0
OS2WinAOffset: 1
OS2WinDescent: 0
OS2WinDOffset: 1
HheadAscent: 0
HheadAOffset: 1
HheadDescent: 0
HheadDOffset: 1
OS2Vendor: 'PfEd'
MarkAttachClasses: 1
DEI: 91125

StartChar: A
Encoding: 65 65 0
Width: 709
VWidth: 0
Flags: W
HStem: 302.691 30<249.812 453.594>
LayerCount: 2
Fore
SplineSet
355.938 565.629 m 0
 356.077 565.634 356.237 565.586 356.406 565.535 c 0
 356.716 565.617 356.98 565.616 357.188 565.504 c 0
 357.383 565.398 357.494 565.187 357.594 564.91 c 0
 360.302 563 365.036 557.23 371.375 548.098 c 0
 379.827 535.922 391.147 517.774 404.25 494.754 c 0
 417.353 471.734 432.2 443.828 447.719 412.254 c 0
 463.237 380.681 479.403 345.427 495.188 307.754 c 0
 497.049 303.312 498.9 298.823 500.75 294.316 c 0
 516.898 254.972 531.023 216.97 542.875 182.066 c 0
 554.727 147.164 564.313 115.379 571.625 88.4727 c 0
 578.937 61.5664 583.974 39.543 586.719 24.1289 c 0
 589.464 8.71582 589.957 -0.0742188 587.969 -0.652344 c 0
 585.98 -1.22949 581.696 6.46289 575.531 20.7852 c 0
 569.366 35.1084 561.299 56.0371 551.469 81.9102 c 0
 541.639 107.783 530.033 138.607 516.875 172.66 c 0
 503.717 206.714 488.98 244.005 473 282.941 c 0
 471.17 287.401 469.353 291.819 467.531 296.223 c 0
 465.535 301.05 463.577 305.75 461.594 310.504 c 1
 437.746 306.487 400.181 303.472 357.875 302.691 c 0
 313.057 301.865 273.458 303.745 249.812 307.254 c 1
 248.278 303.569 246.761 299.95 245.219 296.223 c 0
 243.397 291.819 241.58 287.401 239.75 282.941 c 0
 223.77 244.005 209.033 206.714 195.875 172.66 c 0
 182.717 138.607 171.111 107.783 161.281 81.9102 c 0
 151.451 56.0371 143.384 35.1084 137.219 20.7852 c 0
 131.054 6.46289 126.801 -1.22949 124.812 -0.652344 c 0
 122.824 -0.0742188 123.286 8.71582 126.031 24.1289 c 0
 128.776 39.543 133.814 61.5664 141.125 88.4727 c 0
 148.437 115.379 158.023 147.164 169.875 182.066 c 0
 181.727 216.97 195.852 254.971 212 294.316 c 0
 213.85 298.823 215.701 303.312 217.562 307.754 c 0
 233.347 345.427 249.513 380.681 265.031 412.254 c 0
 280.55 443.828 295.397 471.734 308.5 494.754 c 0
 321.603 517.774 332.954 535.922 341.406 548.098 c 0
 347.72 557.193 352.412 562.945 355.125 564.879 c 0
 355.225 565.178 355.357 565.394 355.562 565.504 c 0
 355.673 565.564 355.798 565.625 355.938 565.629 c 0
356.375 556.848 m 1
 355.304 553.197 353.665 548.54 351.438 542.785 c 0
 346.108 529.016 337.642 509.473 327.031 485.41 c 0
 316.421 461.349 303.658 432.757 289.719 400.816 c 0
 279.48 377.355 268.612 352.066 257.438 325.504 c 1
 281.377 329.208 317.213 331.952 357.312 332.691 c 0
 395.345 333.394 429.632 332.163 453.594 329.629 c 1
 443.038 354.663 432.731 378.59 423.031 400.816 c 0
 409.092 432.757 396.329 461.349 385.719 485.41 c 0
 375.108 509.473 366.642 529.016 361.312 542.785 c 0
 359.085 548.54 357.446 553.197 356.375 556.848 c 1
EndSplineSet
EndChar

StartChar: B
Encoding: 66 66 1
Width: 481
VWidth: 0
Flags: W
HStem: 0.21875 25.1875<169.403 297.046> 375.25 22.3438<219.428 291.198> 539.062 23.2197<71.1421 158.085>
VStem: 44.0195 11.2188<0.231702 40.7222> 50.9258 30<114.374 471.058> 210.145 25.0889<403.1 488.651> 406.926 29.875<129.954 269.342>
LayerCount: 2
Fore
SplineSet
123.832 564.938 m 0xee
 130.455 564.94 137.363 564.345 144.457 562.969 c 0
 154.396 560.989 164.476 557.506 174.145 552.469 c 0
 183.812 547.432 193.066 540.84 201.332 532.812 c 0
 213.021 521.448 221.933 507.961 227.582 493.938 c 0
 232.079 482.674 234.479 471.278 235.233 460.5 c 0
 235.994 449.722 235.093 439.584 233.145 430.531 c 0
 231.084 420.996 227.87 412.744 224.332 405.938 c 0
 222.729 402.861 221.063 400.094 219.395 397.594 c 1
 238.946 399.548 260.092 398.593 281.707 393.781 c 0
 308.763 387.759 336.541 375.666 361.145 356.344 c 0
 381.671 340.158 399.592 319.162 412.895 294.594 c 0
 426.192 270.026 434.854 241.921 436.801 212.375 c 0
 437.432 202.482 437.311 192.471 436.426 182.5 c 0
 434.313 158.741 427.994 135.816 418.332 114.969 c 0
 408.67 94.1211 395.687 75.3682 380.301 59.5938 c 0
 356.135 34.9297 326.664 18.3066 297.051 9.125 c 0
 280.353 3.92188 263.54 1.03516 247.27 0.21875 c 0
 230.999 -0.597656 215.262 0.649414 200.551 3.5625 c 0
 182.396 7.19434 166.027 13.3213 151.676 20.6562 c 0
 137.313 27.9912 124.973 36.5264 114.608 45.3125 c 0
 103.124 55.0391 94.043 65.0664 86.957 74.375 c 0
 79.8711 83.6836 74.7539 92.291 71.1445 99.5 c 0
 70.9131 99.9609 70.707 100.394 70.4883 100.844 c 1
 69.0518 89.6367 67.5371 79.1006 65.9883 69.4375 c 0
 62.3623 46.8184 58.5732 28.6982 55.2383 16.3125 c 0
 51.9023 3.92676 49.0342 -2.70898 47.0508 -2.4375 c 0
 45.0684 -2.16602 44.1572 4.99316 44.0195 17.75 c 0xf6
 43.8818 30.5068 44.5 48.8408 45.4258 71.5 c 0
 46.3516 94.1592 47.5791 121.155 48.6133 151.188 c 0
 49.6475 181.22 50.4951 214.312 50.832 249.188 c 0
 50.877 253.972 50.8984 258.776 50.9258 263.625 c 0
 51.1299 300.18 50.7559 335.01 50.082 366.719 c 0
 49.4072 398.428 48.4346 427.01 47.707 451.062 c 0
 46.9795 475.115 46.4971 494.662 46.7383 508.25 c 0
 46.9121 518.079 47.4717 524.778 48.5508 527.844 c 0
 48.5674 529.363 49.6465 531.721 51.9258 534.719 c 0
 55.042 538.816 60.4365 544.084 68.4258 549.219 c 0
 76.415 554.354 87.0596 559.337 100.02 562.281 c 0
 107.31 563.938 115.312 564.935 123.832 564.938 c 0xee
111.858 539.344 m 0
 109.056 539.354 106.312 539.249 103.645 539.062 c 0
 92.96 538.315 83.5088 536.149 75.7383 533.812 c 0
 67.9678 531.476 61.8115 528.983 57.332 527.438 c 0
 55.6807 526.867 54.2549 526.451 53.0508 526.188 c 1
 54.6133 522.852 56.4062 517.22 58.332 509.562 c 0
 61.665 496.309 65.3779 476.973 68.832 452.906 c 0
 72.2861 428.84 75.4648 400.039 77.6758 367.969 c 0
 78.9502 349.479 79.8857 329.876 80.4258 309.5 c 1
 81.0645 310.921 81.8926 312.536 82.957 314.438 c 0
 86.5166 320.791 92.5684 329.771 102.051 339.938 c 0
 111.525 350.104 124.479 361.48 141.582 371.719 c 0
 157.931 381.508 178.104 390.262 201.676 394.969 c 0
 201.851 395.477 201.988 395.873 202.176 396.406 c 0
 203.72 400.921 205.479 406.35 206.983 412.625 c 0
 208.495 418.9 209.729 426.042 210.145 433.812 c 0
 210.542 441.188 210.204 449.188 208.77 457.469 c 0
 207.335 465.751 204.805 474.312 200.957 482.594 c 0
 196.263 492.8 189.296 502.686 180.426 511.281 c 0
 167.896 523.425 152.854 531.741 138.176 535.781 c 0
 129.226 538.307 120.284 539.312 111.858 539.344 c 0
228.395 375.25 m 0
 221.48 375.216 214.752 374.799 208.233 374 c 0
 185.958 371.308 166.229 364.488 149.858 356.5 c 0
 133.494 348.512 120.423 339.351 110.301 331.125 c 0
 100.179 322.899 92.9775 315.591 87.957 310.656 c 0
 84.4775 307.236 82.0527 304.976 80.582 304.094 c 1
 80.8828 290.844 81.0029 277.282 80.9258 263.469 c 0xee
 80.8955 258.549 80.8447 253.667 80.7695 248.812 c 0
 80.2129 213.424 78.3594 179.867 75.707 149.531 c 0
 74.6162 137.054 73.4004 125.145 72.082 113.844 c 1
 74.0215 111.151 76.292 108 79.0508 104.375 c 0
 83.6914 98.2754 89.6064 91.0039 97.207 83.1875 c 0
 104.805 75.3711 114.083 67.0088 125.301 59.0312 c 0
 135.431 51.8438 147.178 44.9629 160.457 39.2188 c 0
 173.731 33.4746 188.562 28.8838 204.582 26.5312 c 0
 217.554 24.5957 231.33 24.1211 245.52 25.4062 c 0
 259.71 26.6914 274.309 29.7412 288.707 34.6875 c 0
 314.217 43.4971 339.376 58.4287 359.426 79.6875 c 0
 372.298 93.2627 383.146 109.451 391.27 127.375 c 0
 399.389 145.299 404.745 164.948 406.551 185.156 c 0
 407.309 193.637 407.444 202.115 406.926 210.469 c 0
 405.424 235.424 398.149 259.558 387.02 280.812 c 0
 375.885 302.067 360.869 320.44 343.645 334.656 c 0
 323.065 351.718 299.271 362.979 275.77 369.188 c 0
 259.607 373.455 243.594 375.325 228.395 375.25 c 0
EndSplineSet
EndChar

StartChar: C
Encoding: 67 67 2
Width: 511
VWidth: 0
Flags: W
HStem: -0.155273 21.7969<247.342 391.836> 540.936 21.9023<253.487 397.861>
VStem: 38.0986 29.9951<192.025 365.608>
LayerCount: 2
Fore
SplineSet
473.891 56.29 m 4
 474.386 55.5654 472.438 53.1299 468.021 49.3271 c 4
 463.597 45.5254 456.688 40.3623 447.097 34.623 c 4
 437.508 28.8838 425.222 22.5723 410.153 16.8223 c 4
 395.085 11.0723 377.218 5.88965 356.844 2.66504 c 4
 338.3 -0.282227 317.646 -1.60742 295.521 -0.155273 c 4
 273.398 1.29688 249.803 5.53027 225.9 13.7383 c 4
 206.409 20.4609 186.88 29.7979 168.09 41.8516 c 4
 149.3 53.9053 131.251 68.6758 114.874 86.0205 c 4
 100.234 101.495 86.9023 119.049 75.6104 138.404 c 4
 64.3184 157.76 55.0684 178.918 48.6465 201.447 c 4
 40.9961 228.414 37.3369 257.06 38.0986 286.073 c 4
 38.8193 313.485 43.4609 340.363 51.5518 365.615 c 4
 58.7686 388.076 68.7451 409.086 80.6953 428.242 c 4
 92.6465 447.399 106.569 464.703 121.735 479.901 c 4
 138.694 496.929 157.242 511.35 176.457 523.049 c 4
 195.672 534.748 215.551 543.726 235.327 550.105 c 4
 259.567 557.891 283.411 561.735 305.73 562.838 c 4
 328.049 563.939 348.847 562.303 367.502 559.081 c 4
 387.986 555.558 405.931 550.123 421.057 544.164 c 4
 436.185 538.205 448.51 531.729 458.13 525.857 c 4
 467.75 519.987 474.682 514.729 479.115 510.864 c 4
 483.549 506.998 485.5 504.531 484.996 503.807 c 4
 484.492 503.082 481.557 504.127 476.31 506.52 c 4
 471.06 508.912 463.48 512.645 453.503 516.928 c 4
 443.525 521.211 431.131 526.039 416.317 530.363 c 4
 401.502 534.688 384.252 538.504 364.898 540.588 c 4
 347.271 542.474 327.862 542.919 307.307 540.936 c 4
 286.751 538.952 265.045 534.536 243.302 526.672 c 4
 225.547 520.279 207.76 511.566 190.604 500.474 c 4
 173.446 489.381 156.921 475.908 141.84 460.215 c 4
 128.38 446.181 116.046 430.343 105.493 412.968 c 4
 94.9414 395.593 86.1719 376.681 79.9092 356.625 c 4
 72.8164 333.987 68.7432 309.868 68.0938 285.283 c 4
 67.4062 259.262 70.5801 233.588 77.2607 209.477 c 4
 82.7891 189.418 90.8799 170.422 100.812 152.909 c 4
 110.739 135.397 122.507 119.37 135.454 105.118 c 4
 149.969 89.1738 165.999 75.4131 182.729 64.0254 c 4
 199.451 52.6367 216.872 43.6191 234.32 36.9336 c 4
 255.695 28.7051 277.12 23.9434 297.449 21.6416 c 4
 317.777 19.3398 337.014 19.4941 354.5 21.1221 c 4
 373.709 22.9238 390.854 26.498 405.584 30.6182 c 4
 420.312 34.7393 432.646 39.4014 442.568 43.5547 c 4
 452.494 47.708 460.033 51.3447 465.254 53.6738 c 4
 470.476 56.002 473.396 57.0146 473.891 56.29 c 4
EndSplineSet
EndChar

StartChar: D
Encoding: 68 68 3
Width: 489
VWidth: 0
Flags: W
HStem: -0.5 19.1875<79.5515 219.72> 552.625 11.8135<65.3808 147.237>
VStem: 44.1689 30<92.2185 481.653> 414.919 30<184.048 351.088>
LayerCount: 2
Fore
SplineSet
122.854 564.75 m 4
 137.39 564.761 154.049 563.747 172.388 560.969 c 4
 196.84 557.264 224.3 550.37 252.945 538.469 c 4
 279.219 527.582 306.506 512.354 332.32 491.906 c 4
 358.146 471.46 382.512 445.803 402.044 414.688 c 4
 414.361 394.999 424.597 373.237 431.979 350 c 4
 439.361 326.763 443.896 302.054 444.82 276.688 c 4
 444.856 275.678 444.895 274.666 444.919 273.656 c 4
 445.562 247.696 442.312 222.085 435.729 197.969 c 4
 429.146 173.853 419.229 151.22 406.638 130.938 c 4
 387.229 99.9531 362.263 75.1973 335.763 56.1562 c 4
 309.262 37.1152 281.229 23.7793 254.544 15 c 4
 225.419 5.37109 197.764 0.925781 173.388 -0.5 c 4
 149.012 -1.92578 127.875 -0.333984 110.854 2.25 c 4
 93.8379 4.83398 80.8877 8.38477 72.2939 11.375 c 4
 66.9229 13.2441 63.2568 14.8818 61.3252 16.125 c 4
 61.3105 16.1338 61.3076 16.1475 61.2939 16.1562 c 4
 60.9395 16.1943 60.584 16.4316 60.2314 16.9062 c 4
 60.2119 16.9326 60.1885 16.9717 60.1689 17 c 4
 59.873 17.2979 59.7285 17.5615 59.7314 17.7812 c 4
 52.1074 32.5742 45.3242 146.91 44.1689 285.688 c 4
 42.9912 427.259 48.1055 543.494 55.7314 554.594 c 4
 55.7412 554.621 55.749 554.659 55.7627 554.688 c 4
 55.7725 554.701 55.7842 554.706 55.7939 554.719 c 4
 55.8613 554.841 55.9561 554.96 56.1064 555.094 c 4
 56.1279 555.115 56.1475 555.137 56.1689 555.156 c 4
 57.5459 556.31 61.9258 557.848 69.1377 559.469 c 4
 78.1494 561.495 91.6035 563.637 109.044 564.438 c 4
 113.398 564.638 118.012 564.746 122.854 564.75 c 4
58.8564 553.219 m 5
 66.3613 536.113 73.0293 422.94 74.1689 285.938 c 4
 75.3037 149.619 70.6084 36.7842 63.4502 18.6875 c 5
 65.8086 18.6904 69.2598 18.4395 73.7627 18.0312 c 4
 82.6348 17.2256 95.5479 15.8281 112.07 15.2812 c 4
 128.603 14.7344 148.764 15.0635 171.638 18.0625 c 4
 194.512 21.0605 220.135 26.7676 246.729 36.9688 c 4
 271.023 46.335 296.321 59.5762 319.945 77.5625 c 4
 343.569 95.5488 365.513 118.266 382.013 146 c 4
 392.861 164.061 401.39 184.227 407.044 205.688 c 4
 412.694 227.148 415.479 249.891 414.919 272.906 c 4
 414.889 273.803 414.887 274.697 414.854 275.594 c 4
 414.062 298.12 410.072 320.218 403.604 341.094 c 4
 397.136 361.97 388.178 381.639 377.388 399.531 c 4
 360.354 427.871 338.665 451.723 315.445 471.188 c 4
 292.23 490.652 267.479 505.739 243.479 517.062 c 4
 217.257 529.405 191.812 537.345 168.919 542.5 c 4
 146.021 547.655 125.666 550.033 108.888 551.219 c 4
 92.1064 552.404 78.8828 552.435 69.8252 552.625 c 4
 64.874 552.729 61.2314 552.902 58.8564 553.219 c 5
EndSplineSet
EndChar

StartChar: E
Encoding: 69 69 4
Width: 511
VWidth: 0
Flags: W
HStem: 301.531 30<73.1709 395.209> 540.406 21.9375<253.576 397.325>
VStem: 38.0986 30<192.163 306.199>
LayerCount: 2
Fore
SplineSet
318.286 562.656 m 4
 335.951 562.717 352.53 561.09 367.692 558.438 c 4
 388.188 554.866 406.134 549.407 421.255 543.406 c 4
 436.376 537.405 448.708 530.87 458.317 524.969 c 4
 467.928 519.067 474.83 513.788 479.255 509.906 c 4
 483.68 506.024 485.636 503.566 485.13 502.844 c 4
 484.624 502.121 481.688 503.152 476.442 505.562 c 4
 471.197 507.973 463.632 511.748 453.661 516.062 c 4
 443.69 520.377 431.285 525.229 416.479 529.594 c 4
 401.662 533.959 384.427 537.841 365.067 539.969 c 4
 347.438 541.895 328.014 542.354 307.442 540.406 c 4
 286.872 538.459 265.146 534.091 243.38 526.25 c 4
 225.607 519.876 207.805 511.18 190.63 500.094 c 4
 173.455 489.009 156.912 475.541 141.817 459.844 c 4
 128.346 445.806 115.999 429.948 105.442 412.562 c 4
 94.8857 395.177 86.1045 376.258 79.8486 356.188 c 4
 76.3906 345.128 73.6602 333.71 71.6924 322.062 c 5
 102.854 326.812 158.409 330.52 221.786 331.531 c 4
 319.403 333.091 398.716 327.654 398.854 319.375 c 4
 398.98 311.096 319.872 303.09 222.255 301.531 c 4
 157.213 300.492 100.324 302.582 69.5361 306.531 c 5
 68.7695 299.449 68.2891 292.312 68.0986 285.125 c 4
 67.4121 259.205 70.585 233.62 77.2236 209.594 c 4
 82.7393 189.521 90.8223 170.523 100.755 153 c 4
 110.688 135.477 122.452 119.444 135.411 105.188 c 4
 149.939 89.2383 165.979 75.4756 182.729 64.0938 c 4
 199.469 52.7119 216.913 43.6982 234.38 37.0312 c 4
 255.777 28.8271 277.223 24.1074 297.567 21.8438 c 4
 317.912 19.5801 337.168 19.7676 354.661 21.4375 c 4
 373.877 23.2852 391.028 26.8984 405.755 31.0625 c 4
 420.481 35.2266 432.805 39.9385 442.729 44.125 c 4
 452.646 48.3115 460.163 51.9648 465.38 54.3125 c 4
 470.597 56.6602 473.506 57.6914 474.005 56.9688 c 4
 474.504 56.2461 472.573 53.7881 468.161 49.9688 c 4
 463.749 46.1494 456.864 40.9922 447.286 35.2188 c 4
 437.708 29.4453 425.411 23.0762 410.354 17.2812 c 4
 395.286 11.4863 377.416 6.24316 357.036 2.96875 c 4
 338.486 -0.0244141 317.834 -1.37988 295.692 0.03125 c 4
 273.551 1.44238 249.938 5.62988 226.005 13.8125 c 4
 206.49 20.5146 186.912 29.8584 168.104 41.9062 c 4
 149.286 53.9541 131.242 68.71 114.854 86.0625 c 4
 100.193 101.545 86.833 119.128 75.5361 138.5 c 4
 64.2393 157.872 55.0078 179.043 48.5986 201.594 c 4
 40.9961 228.47 37.3369 257.001 38.0986 285.906 c 4
 38.8174 313.215 43.459 339.991 51.5049 365.156 c 4
 58.7129 387.638 68.6729 408.672 80.6299 427.844 c 4
 92.5869 447.016 106.542 464.326 121.729 479.531 c 4
 138.7 496.564 157.271 510.995 176.505 522.688 c 4
 195.742 534.38 215.646 543.328 235.442 549.688 c 4
 259.709 557.448 283.575 561.281 305.911 562.344 c 4
 310.104 562.543 314.21 562.643 318.286 562.656 c 4
EndSplineSet
EndChar

StartChar: F
Encoding: 70 70 5
Width: 480
VWidth: 0
Flags: W
HStem: 301.531 30<76.6799 398.584> 532.25 30.25<65.4446 449.626>
VStem: 45.1025 30<80.1348 306.25 322.062 468.942>
LayerCount: 2
Fore
SplineSet
217.728 562.5 m 0
 230.521 562.516 243.758 562.445 257.316 562.25 c 0
 365.826 560.691 453.784 552.686 453.665 544.406 c 0
 453.545 536.127 365.389 530.691 256.884 532.25 c 0
 162.044 533.613 82.8916 539.851 64.54 546.938 c 1
 70.5684 526.132 74.8232 435.896 75.165 322.062 c 1
 106.339 326.807 161.813 330.52 225.134 331.531 c 0
 322.751 333.091 402.095 327.654 402.228 319.375 c 0
 402.354 311.096 323.251 303.09 225.634 301.531 c 0
 162.173 300.518 106.466 302.486 75.1963 306.25 c 1
 75.1943 296.048 75.1689 285.725 75.1025 275.219 c 0
 74.1406 122.776 66.6318 -0.896484 58.3525 -0.84375 c 0
 50.0732 -0.791992 44.1406 122.964 45.1025 275.406 c 0
 46.0254 421.584 52.9521 541.296 60.8213 550.844 c 0
 60.8877 550.941 60.9795 551.028 61.0713 551.125 c 0
 67.4053 557.801 132.594 562.393 217.728 562.5 c 0
EndSplineSet
EndChar

StartChar: G
Encoding: 71 71 6
Width: 531
VWidth: 0
Flags: W
HStem: -0.59375 25.9062<223.717 359.26> 211.562 30<228.325 479.09>
VStem: 467.649 3.78613<402.787 413.959> 479.243 7.53125<182.133 225.195>
LayerCount: 2
Fore
SplineSet
294.274 563.906 m 4
 309.044 564.093 323.356 562.639 336.837 559.844 c 4
 354.812 556.117 371.317 549.999 385.837 542.188 c 4
 400.575 534.22 413.104 524.598 423.493 514.469 c 4
 433.891 504.34 442.156 493.682 448.587 483.344 c 4
 455.857 471.648 460.792 460.389 464.186 450.375 c 4
 467.569 440.361 469.423 431.586 470.436 424.438 c 4
 471.438 417.289 471.598 411.783 471.436 408.062 c 4
 471.271 404.342 470.791 402.402 470.149 402.344 c 4
 469.509 402.285 468.713 404.081 467.649 407.562 c 4
 466.586 411.044 465.251 416.208 463.149 422.781 c 4
 461.047 429.354 458.187 437.347 453.993 446.312 c 4
 449.81 455.278 444.271 465.245 436.774 475.375 c 4
 430.149 484.333 421.971 493.439 412.024 501.969 c 4
 402.083 510.498 390.396 518.438 376.993 524.812 c 4
 363.82 531.117 348.956 535.854 332.868 538.469 c 4
 316.78 541.083 299.472 541.575 281.774 539.5 c 4
 266.615 537.724 251.131 534.039 235.743 528.438 c 4
 220.355 522.836 205.045 515.324 190.311 506.094 c 4
 175.362 496.716 161.058 485.443 147.811 472.438 c 4
 134.562 459.432 122.396 444.704 111.743 428.531 c 4
 92.0059 398.504 77.459 363.335 71.3369 325.812 c 4
 67.2012 300.745 66.8174 274.606 70.2119 248.5 c 4
 73.417 223.849 79.8926 199.903 89.0869 177.531 c 4
 98.2812 155.159 110.212 134.361 124.274 115.844 c 4
 143.91 90.2051 167.979 68.5947 193.811 53.0312 c 4
 219.639 37.4678 247.221 27.9707 274.524 25.3125 c 4
 289.517 23.7422 304.354 24.2275 318.587 26.3438 c 4
 332.824 28.46 346.441 32.2002 359.118 37.125 c 4
 371.795 42.0498 383.525 48.1543 394.118 55.0938 c 4
 404.711 62.0332 414.183 69.8203 422.436 78.0625 c 4
 431.433 87.0117 439.003 96.5127 445.368 106.094 c 4
 451.733 115.675 456.874 125.334 461.024 134.656 c 4
 469.326 153.302 473.682 170.569 476.061 184.844 c 4
 478.438 199.118 478.906 210.444 479.243 218.156 c 4
 479.374 221.153 479.5 223.449 479.649 225.344 c 5
 468.346 218.287 416.791 212.386 354.837 211.562 c 4
 284.531 210.628 227.39 216.596 227.274 224.875 c 4
 227.163 233.154 284.125 240.628 354.436 241.562 c 4
 419.289 242.425 472.919 237.406 480.936 230.125 c 4
 480.949 230.118 480.979 230.104 480.993 230.094 c 4
 481.188 230 481.396 229.764 481.618 229.406 c 4
 481.702 229.28 481.749 229.158 481.811 229.031 c 4
 482.688 227.394 483.766 223.929 484.774 218.562 c 4
 486.251 210.748 487.569 198.994 486.774 183.719 c 4
 485.979 168.443 483.021 149.601 475.493 128.844 c 4
 471.73 118.465 466.854 107.618 460.493 96.7188 c 4
 454.141 85.8193 446.324 74.8682 436.811 64.375 c 4
 428.039 54.7451 417.878 45.5781 406.368 37.3125 c 4
 394.858 29.0469 382.004 21.6699 367.962 15.625 c 4
 353.92 9.58008 338.682 4.87402 322.587 2 c 4
 306.496 -0.874023 289.54 -1.92676 272.186 -0.59375 c 4
 240.75 2.02051 209.097 12.0762 179.649 28.9375 c 4
 150.206 45.7988 123.007 69.4658 101.061 98.0312 c 4
 85.2334 118.466 71.8301 141.415 61.5244 166.125 c 4
 51.2188 190.835 43.9922 217.314 40.4619 244.656 c 4
 36.7227 273.611 37.2578 302.696 41.9619 330.719 c 4
 49.0752 372.683 65.5303 411.526 87.8369 444.469 c 4
 99.8545 462.236 113.598 478.337 128.524 492.469 c 4
 143.456 506.601 159.582 518.75 176.399 528.812 c 4
 192.913 538.712 210.126 546.606 227.462 552.344 c 4
 244.798 558.081 262.253 561.673 279.368 563.156 c 4
 284.377 563.59 289.354 563.844 294.274 563.906 c 4
EndSplineSet
EndChar

StartChar: H
Encoding: 72 72 7
Width: 437
VWidth: 0
Flags: W
HStem: 209.812 30<75.8853 356.022>
VStem: 45.1025 29.1875<87.1832 217.438 232.312 478.332> 357.634 29.1826<87.1832 217.094 232.5 478.332>
LayerCount: 2
Fore
SplineSet
61.8525 566.375 m 0
 70.1318 566.324 76.0645 439.207 75.1025 282.656 c 0
 74.9971 265.443 74.7959 248.682 74.54 232.312 c 1
 102.854 236.806 155.917 239.828 216.728 239.812 c 0
 276.426 239.797 328.701 236.873 357.384 232.5 c 1
 357.129 248.811 356.927 265.509 356.816 282.656 c 0
 355.854 439.207 361.792 566.324 370.066 566.375 c 0
 378.351 566.426 385.854 439.395 386.816 282.844 c 0
 387.783 126.293 381.851 -0.792969 373.566 -0.84375 c 0
 366.482 -0.887695 359.97 92.1914 357.634 217.094 c 1
 329.005 212.714 276.604 209.797 216.728 209.812 c 0
 155.75 209.829 102.547 212.909 74.29 217.438 c 1
 71.959 92.3604 65.4434 -0.887695 58.3525 -0.84375 c 0
 50.0732 -0.792969 44.1406 126.293 45.1025 282.844 c 0
 46.0645 439.395 53.5732 566.426 61.8525 566.375 c 0
EndSplineSet
EndChar

StartChar: I
Encoding: 73 73 8
Width: 125
VWidth: 0
Flags: W
VStem: 45.1025 29.999<87.2584 476.728>
LayerCount: 2
Fore
SplineSet
58.3584 564.384 m 4
 66.6387 564.435 74.1396 437.965 75.1016 282.086 c 4
 76.0635 126.206 70.124 -0.34668 61.8447 -0.397461 c 4
 53.5654 -0.448242 46.0645 126.021 45.1025 281.9 c 4
 44.1396 437.78 50.0791 564.332 58.3584 564.384 c 4
EndSplineSet
EndChar

StartChar: J
Encoding: 74 74 9
Width: 389
VWidth: 0
Flags: W
HStem: -2.34375 29.9062<124.121 244.273>
VStem: 54.3857 5.84375<201.439 208.692> 317.917 23.4062<154.798 532.66> 317.917 14.5986<123.203 235.579>
LayerCount: 2
Fore
SplineSet
325.698 564.719 m 0xe0
 333.979 564.743 340.97 465.679 341.323 343.594 c 0xe0
 341.601 250.617 337.936 171.018 332.516 138.312 c 0xd0
 332.303 131.925 331.624 125.077 330.292 117.812 c 0
 327.475 102.415 321.701 85.252 311.391 68.4375 c 0
 301.18 51.877 286.604 36.0137 268.042 23.4062 c 0
 249.484 10.7988 226.952 1.46875 202.229 -1.6875 c 0
 192.481 -2.90039 182.505 -3.11816 172.516 -2.34375 c 0
 154.026 -0.910156 136.286 3.91309 120.354 11.2812 c 0
 104.428 18.6494 90.3027 28.5508 78.6357 40.0625 c 0
 65.9414 52.6562 56.3408 66.8926 49.5732 81.2188 c 0
 42.8057 95.5449 38.8867 109.941 37.1357 123.375 c 0
 35.2822 137.7 35.8662 150.787 37.667 161.969 c 0
 39.4678 173.15 42.4502 182.455 45.542 189.719 c 0
 48.6338 196.982 51.8271 202.221 54.3857 205.531 c 0
 56.9443 208.842 58.875 210.23 59.8545 209.75 c 0
 60.834 209.27 60.834 206.957 60.2295 203 c 0
 59.625 199.043 58.4307 193.429 57.3232 186.281 c 0
 56.2158 179.134 55.2148 170.428 55.167 160.438 c 0
 55.1191 150.447 56.0273 139.183 58.8545 127.281 c 0
 61.4932 116.117 65.8389 104.347 72.292 92.8438 c 0
 78.7461 81.3408 87.3047 70.0977 98.0137 60.375 c 0
 107.739 51.4863 119.426 43.876 132.479 38.1875 c 0
 145.538 32.499 159.974 28.7383 174.854 27.5625 c 0
 182.902 26.9268 190.902 27.0684 198.667 27.9688 c 0
 218.399 30.1758 236.916 37.2812 252.604 47.0312 c 0
 268.293 56.7812 281.122 69.1631 290.573 82.25 c 0
 300.199 95.5059 306.536 109.583 310.604 122.594 c 0
 314.678 135.604 316.491 147.547 317.354 157.5 c 0
 317.622 160.58 317.801 163.405 317.917 166.094 c 0
 314.13 206.413 311.536 270.876 311.323 343.5 c 0
 310.971 465.585 317.418 564.694 325.698 564.719 c 0xe0
EndSplineSet
EndChar

StartChar: K
Encoding: 75 75 10
Width: 395
VWidth: 0
Flags: W
VStem: 45.1641 29.7188<87.4951 312.414 343.633 477.708>
LayerCount: 2
Fore
SplineSet
58.0078 565.539 m 0
 65.1777 565.596 71.8438 470.515 74.3203 343.633 c 1
 96.6865 367.553 144.761 410 202.289 455.945 c 0
 285.354 522.286 356.966 570.79 362.133 564.32 c 0
 367.3 557.851 304.011 498.849 220.945 432.508 c 0
 159.064 383.09 103.562 343.587 77.1328 329.289 c 1
 104.188 307.529 161.757 249.677 225.633 179.195 c 0
 310.26 85.8174 373.986 5.50586 367.852 -0.0546875 c 0
 361.716 -5.61523 288.041 65.6611 203.414 159.039 c 0
 145.603 222.829 97.5713 280.489 74.8828 312.414 c 1
 75.0137 302.66 75.085 292.718 75.1641 282.695 c 0
 76.3906 126.513 70.6934 -0.270508 62.4141 -0.335938 c 0
 54.1348 -0.401367 46.3906 126.325 45.1641 282.508 c 0
 43.9375 438.69 49.7285 565.475 58.0078 565.539 c 0
EndSplineSet
EndChar

StartChar: L
Encoding: 76 76 11
Width: 442
VWidth: 0
Flags: W
HStem: -3.4375 30<62.3788 415.523>
VStem: 45.082 30<92.6095 483.315>
LayerCount: 2
Fore
SplineSet
61.6445 564.688 m 0
 69.9248 564.641 75.9453 440.271 75.082 287.094 c 0
 74.3242 152.439 68.5107 40.1328 61.4883 14.9688 c 1
 79.6572 21.6357 151.017 26.5928 236.271 26.5625 c 0
 335.252 26.5273 415.585 19.7803 415.582 11.5 c 0
 415.582 3.21973 335.252 -3.47266 236.271 -3.4375 c 0
 145.021 -3.40527 69.6162 2.33496 58.3945 9.71875 c 1
 50.1816 11.0508 44.2236 134.902 45.082 287.281 c 0
 45.9443 440.458 53.3643 564.734 61.6445 564.688 c 0
EndSplineSet
EndChar

StartChar: M
Encoding: 77 77 12
Width: 527
VWidth: 0
Flags: W
VStem: 45.1582 30<87.4858 475.005> 447.188 30<87.4858 474.964>
LayerCount: 2
Fore
SplineSet
62.3145 563.787 m 0
 62.5107 563.785 62.6826 563.68 62.877 563.537 c 0
 71.0889 566.243 119.974 518.936 173.939 455.881 c 0
 218.062 404.327 252.287 357.772 261.158 338.287 c 1
 270.024 357.769 304.25 404.322 348.377 455.881 c 0
 402.315 518.904 451.191 566.192 459.438 563.537 c 0
 459.633 563.68 459.805 563.785 460.001 563.787 c 0
 468.281 563.851 475.994 437.586 477.188 281.975 c 0
 478.384 126.363 472.625 0.0380859 464.345 -0.0253906 c 0
 456.065 -0.0888672 448.384 126.145 447.188 281.756 c 0
 446.247 404.424 449.631 508.859 455.157 547.631 c 1
 442.85 525.486 411.023 482.961 371.157 436.381 c 0
 321.44 378.289 276.047 333.603 262.782 329.037 c 0
 262.756 329.014 262.718 328.996 262.688 328.975 c 0
 262.325 328.706 261.836 328.588 261.22 328.631 c 0
 261.175 328.626 261.14 328.634 261.095 328.631 c 0
 260.482 328.59 259.988 328.707 259.626 328.975 c 0
 259.594 328.985 259.565 329.025 259.533 329.037 c 0
 246.269 333.603 200.875 378.289 151.158 436.381 c 0
 111.277 482.978 79.4873 525.524 67.1895 547.662 c 1
 72.7178 508.915 76.0996 404.457 75.1582 281.756 c 0
 73.9629 126.145 66.25 -0.0888672 57.9707 -0.0253906 c 0
 49.6904 0.0380859 43.9629 126.363 45.1582 281.975 c 0
 46.3525 437.586 54.0342 563.851 62.3145 563.787 c 0
EndSplineSet
EndChar

StartChar: N
Encoding: 78 78 13
Width: 420
VWidth: 0
Flags: W
VStem: 45.1582 30<87.7266 477.262> 339.439 30<86.8498 476.968>
LayerCount: 2
Fore
SplineSet
62.3145 564.75 m 4
 62.957 564.745 63.6104 563.984 64.2207 562.5 c 4
 64.2246 562.49 64.2168 562.479 64.2207 562.469 c 4
 78.3359 551.582 145.504 434.066 220.689 288.031 c 4
 281.541 169.838 330.198 66.8516 346.908 22.4062 c 5
 341.854 65.8574 338.729 165.781 339.439 282.062 c 4
 340.401 438.146 347.91 564.801 356.189 564.75 c 4
 364.474 564.699 370.4 437.958 369.439 281.875 c 4
 368.479 125.792 361 -0.832031 352.726 -0.78125 c 4
 352.711 -0.78125 352.699 -0.78125 352.689 -0.78125 c 4
 352.649 -0.813477 352.609 -0.851562 352.564 -0.875 c 4
 345.203 -4.66504 274.158 118.622 194.002 274.312 c 4
 134.009 390.847 85.8271 492.658 68.4707 538.094 c 5
 73.2295 492.996 76.0283 395.374 75.1582 282.281 c 4
 73.959 126.431 66.25 -0.000976562 57.9707 0.0625 c 4
 49.6914 0.125977 43.959 126.681 45.1582 282.531 c 4
 46.3574 438.382 54.0352 564.812 62.3145 564.75 c 4
EndSplineSet
EndChar

StartChar: O
Encoding: 79 79 14
Width: 502
VWidth: 0
Flags: W
HStem: -0.03125 29.9688<185.726 322.385> 534.219 30<186.292 321.746>
LayerCount: 2
Fore
SplineSet
255.179 564.25 m 4
 275.347 564.192 295.133 560.788 313.554 554.625 c 4
 333.198 548.051 351.279 538.336 366.929 526.188 c 4
 391.13 507.01 408.521 483.514 421.085 459.594 c 4
 433.646 435.674 441.385 411.33 446.179 389.062 c 4
 460.564 322.688 456.771 243.122 446.111 171.625 c 5
 441.224 149.769 433.354 125.969 420.736 102.594 c 4
 408.123 79.2188 390.73 56.293 366.835 37.5938 c 4
 351.171 25.5713 333.088 15.9443 313.46 9.4375 c 4
 293.832 2.93066 272.677 -0.473633 251.146 -0.0625 c 4
 251.104 -0.0615234 251.062 -0.03125 251.021 -0.03125 c 4
 229.529 0.413086 208.674 4.49219 189.335 11.4062 c 4
 169.991 18.3203 152.187 28.0625 136.585 39.75 c 4
 112.723 57.7744 94.3574 79.5898 80.4902 102.062 c 4
 66.6221 124.535 57.2441 147.649 51.085 169.219 c 4
 32.6035 234.347 37.5459 321.468 51.0225 391.531 c 5
 57.0938 413.496 66.3594 437.098 80.1787 460.094 c 4
 93.998 483.09 112.396 505.475 136.521 523.969 c 4
 152.104 535.806 169.896 545.633 189.271 552.625 c 4
 208.646 559.618 229.573 563.781 251.111 564.219 c 4
 252.464 564.245 253.834 564.254 255.179 564.25 c 4
255.085 534.25 m 4
 253.958 534.254 252.808 534.239 251.679 534.219 c 4
 233.592 533.906 215.819 530.469 199.236 524.656 c 4
 182.654 518.844 167.295 510.648 153.736 500.812 c 4
 132.533 485.592 115.812 466.305 102.679 446.062 c 4
 89.5459 425.82 79.9746 404.64 72.9912 384.688 c 4
 49.5264 316.073 47.2969 248.844 72.9287 176.219 c 4
 79.957 156.71 89.6035 136.066 102.771 116.344 c 4
 115.938 96.6211 132.627 77.8252 153.611 62.9688 c 4
 167.212 53.251 182.631 45.1865 199.21 39.4375 c 4
 215.789 33.6885 233.542 30.2578 251.611 29.9375 c 4
 251.646 29.9365 251.677 29.9385 251.71 29.9375 c 4
 269.774 29.6074 287.651 32.3623 304.271 37.6562 c 4
 320.889 42.9502 336.229 50.7939 349.486 60.5938 c 4
 370.114 75.4932 385.656 95.0361 397.611 115.531 c 4
 409.566 136.026 417.944 157.445 423.96 177.406 c 4
 442.862 242.24 443.59 313.69 423.896 383.438 c 4
 417.938 403.86 409.684 425.874 397.771 446.906 c 4
 385.857 467.938 370.273 487.988 349.396 503.25 c 4
 336.184 513.146 320.883 521.058 304.271 526.406 c 4
 288.695 531.42 271.995 534.198 255.085 534.25 c 4
EndSplineSet
EndChar

StartChar: P
Encoding: 80 80 15
Width: 429
VWidth: 0
Flags: W
HStem: 206.281 22.8438<152.148 266.031>
VStem: 45.1025 30<87.8563 478.341> 364.353 29.9639<318.622 449.004>
LayerCount: 2
Fore
SplineSet
61.8525 566.062 m 0
 66.0645 566.037 69.6709 533.082 72.0713 480.25 c 1
 74.9258 486.175 79.9102 494.545 87.9434 504.125 c 0
 96.0098 513.737 107.181 524.597 122.165 534.562 c 0
 137.146 544.528 155.979 553.616 178.353 558.688 c 0
 199.338 563.404 223.167 564.391 247.853 559.906 c 0
 272.538 555.422 298.091 545.443 320.978 528.75 c 0
 340.104 514.732 356.979 496.238 369.728 474.375 c 0
 382.476 452.512 391.085 427.288 393.603 400.594 c 0
 394.101 395.17 394.331 389.693 394.316 384.219 c 0
 394.282 360.61 389.512 337.583 381.066 316.625 c 0
 372.631 295.667 360.517 276.8 345.816 261.094 c 0
 324.354 238.274 298.055 222.802 271.603 214.062 c 0
 245.146 205.323 218.562 203.301 194.759 206.281 c 0
 169.607 209.494 148.061 218.031 130.816 228.062 c 0
 113.582 238.094 100.621 249.633 91.29 260 c 0
 83.7617 268.364 78.5684 275.935 75.1025 282 c 1
 74.1162 126.205 66.6152 -0.0507812 58.3525 0 c 0
 50.0732 0.0507812 44.1406 126.895 45.1025 283.125 c 0
 46.0645 439.355 53.5732 566.113 61.8525 566.062 c 0
207.915 538.969 m 0
 199.141 539.021 190.647 538.325 182.566 537.031 c 0
 162.857 533.917 145.523 527.194 131.191 519.531 c 0
 116.859 511.868 105.484 503.271 96.6934 495.594 c 0
 87.9004 487.916 81.6465 481.154 77.2588 476.594 c 0
 75.2783 474.535 73.6709 472.973 72.415 471.875 c 1
 74.3955 424.125 75.4248 361.848 75.1338 293.25 c 0
 76.0869 292.31 77.1523 291.209 78.3525 289.969 c 0
 83.2402 284.914 90.2705 277.499 100.228 269.25 c 0
 110.185 261.001 123.104 251.918 139.353 244.312 c 0
 155.596 236.707 175.204 230.562 197.04 229.125 c 0
 217.701 227.704 240.479 230.607 262.884 238.969 c 0
 285.288 247.33 307.312 261.158 324.691 280.562 c 0
 336.699 293.874 346.564 309.895 353.478 327.594 c 0
 360.386 345.293 364.317 364.655 364.353 384.281 c 0
 364.353 388.832 364.142 393.359 363.728 397.844 c 0
 361.757 419.923 354.673 441.146 344.191 459.719 c 0
 333.72 478.291 319.854 494.195 304.134 506.312 c 0
 285.391 520.839 263.882 530.118 242.79 534.906 c 0
 230.926 537.6 219.191 538.9 207.915 538.969 c 0
EndSplineSet
EndChar

StartChar: Q
Encoding: 81 81 16
Width: 501
VWidth: 0
Flags: W
HStem: -0.03125 29.9688<185.728 322.39> 534.812 30<186.296 321.753>
LayerCount: 2
Fore
SplineSet
255.185 564.844 m 0
 275.354 564.786 295.132 561.419 313.56 555.25 c 0
 333.206 548.67 351.287 538.909 366.935 526.75 c 0
 391.158 507.53 408.562 483.968 421.117 460 c 0
 433.675 436.032 441.396 411.679 446.185 389.375 c 0
 460.614 322.578 456.113 243.672 446.117 171.625 c 1
 441.229 149.769 433.36 125.969 420.742 102.594 c 0
 417.959 97.4385 414.912 92.29 411.648 87.2188 c 1
 439.115 39.9121 455.561 2.19141 449.56 -1.53125 c 0
 443.976 -4.99414 420.664 22.042 393.148 62.5625 c 1
 385.403 53.7021 376.669 45.2871 366.836 37.5938 c 0
 351.172 25.5713 333.089 15.9443 313.461 9.4375 c 0
 293.833 2.93066 272.684 -0.473633 251.148 -0.0625 c 0
 251.109 -0.0615234 251.062 -0.03125 251.023 -0.03125 c 0
 229.535 0.413086 208.675 4.49219 189.336 11.4062 c 0
 169.997 18.3203 152.188 28.0625 136.586 39.75 c 0
 112.728 57.7744 94.3613 79.5898 80.4922 102.062 c 0
 66.623 124.535 57.2451 147.649 51.0859 169.219 c 0
 32.5752 234.452 37.5762 321.665 51.0234 391.844 c 1
 57.0869 413.844 66.333 437.457 80.1484 460.5 c 0
 93.9639 483.543 112.348 505.995 136.492 524.531 c 0
 152.076 536.381 169.896 546.251 189.273 553.25 c 0
 208.65 560.249 229.574 564.376 251.117 564.812 c 0
 252.465 564.839 253.835 564.848 255.185 564.844 c 0
255.086 534.844 m 0
 253.959 534.848 252.812 534.833 251.685 534.812 c 0
 233.592 534.5 215.825 531.067 199.242 525.25 c 0
 182.659 519.433 167.292 511.253 153.742 501.406 c 0
 132.521 486.154 115.812 466.789 102.685 446.5 c 0
 89.5508 426.211 79.9727 404.992 72.9922 385 c 0
 49.5586 316.294 47.2646 248.934 72.9297 176.219 c 0
 79.958 156.71 89.6045 136.066 102.773 116.344 c 0
 115.943 96.6211 132.629 77.8252 153.617 62.9688 c 0
 167.214 53.251 182.632 45.1865 199.211 39.4375 c 0
 215.79 33.6885 233.543 30.2578 251.617 29.9375 c 0
 251.65 29.9365 251.683 29.9385 251.711 29.9375 c 0
 269.779 29.6074 287.657 32.3623 304.273 37.6562 c 0
 320.895 42.9502 336.235 50.7939 349.492 60.5938 c 0
 360.038 68.2109 369.244 77.043 377.336 86.5938 c 1
 375.25 89.874 373.153 93.21 371.06 96.5938 c 0
 334.77 155.109 311.021 206.136 318.06 210.5 c 0
 325.064 214.848 360.005 171.246 396.148 113.062 c 1
 396.646 113.883 397.142 114.708 397.617 115.531 c 0
 409.572 136.026 417.95 157.445 423.961 177.406 c 0
 443.281 243.658 444.033 313.157 423.898 383.781 c 0
 417.949 404.245 409.685 426.264 397.773 447.344 c 0
 385.867 468.424 370.308 488.55 349.398 503.844 c 0
 336.188 513.75 320.889 521.646 304.273 527 c 0
 288.701 532.019 271.998 534.792 255.086 534.844 c 0
EndSplineSet
EndChar

StartChar: R
Encoding: 82 82 17
Width: 430
VWidth: 0
Flags: W
VStem: 45.1025 29.9688<86.4495 478.075> 365.603 30<317.876 449.654>
LayerCount: 2
Fore
SplineSet
61.8525 566.062 m 0
 65.9121 566.037 69.3936 535.373 71.79 485.719 c 1
 74.7637 491.017 79.0205 497.442 84.915 504.562 c 0
 92.9961 514.326 104.19 525.355 119.259 535.531 c 0
 134.318 545.707 153.292 555.047 175.853 560.344 c 0
 197.006 565.271 221.042 566.479 246.009 562.156 c 0
 270.976 557.834 296.872 547.967 320.134 531.312 c 0
 339.564 517.332 356.771 498.8 369.853 476.844 c 0
 382.934 454.888 391.854 429.496 394.665 402.562 c 0
 395.283 396.494 395.608 390.386 395.603 384.25 c 0
 395.561 360.751 390.89 337.81 382.603 316.875 c 0
 374.312 295.94 362.4 277.021 347.915 261.188 c 0
 326.266 237.662 299.518 221.628 272.566 212.531 c 0
 267.606 210.857 262.65 209.407 257.691 208.188 c 1
 273.681 189.176 295.793 158.025 318.478 121.688 c 0
 357.693 58.8604 383.826 4.33496 376.79 0 c 0
 369.754 -4.33594 332.193 43.1416 292.978 105.969 c 0
 268.136 145.763 248.556 182.203 239.316 204.688 c 1
 236.993 204.364 234.661 204.073 232.353 203.844 c 0
 219.159 202.534 206.325 202.757 194.165 204.25 c 0
 168.492 207.469 146.474 216.177 128.884 226.438 c 0
 111.293 236.698 98.0996 248.507 88.6025 259.125 c 0
 82.8281 265.582 78.4082 271.61 75.0713 276.844 c 1
 73.9736 122.617 66.5381 -1.70703 58.3525 -1.65625 c 0
 50.0732 -1.60547 44.1406 125.596 45.1025 282.281 c 0
 46.0645 438.967 53.5732 566.113 61.8525 566.062 c 0
205.853 540.938 m 0
 196.975 540.915 188.392 540.159 180.228 538.781 c 0
 160.309 535.461 142.812 528.497 128.384 520.625 c 0
 113.951 512.753 102.521 503.963 93.6934 496.125 c 0
 84.8711 488.287 78.6211 481.4 74.2275 476.75 c 0
 73.5107 475.991 72.9111 475.387 72.29 474.75 c 0
 74.3809 425.897 75.4678 361.276 75.1338 289.969 c 0
 75.2236 289.874 75.292 289.815 75.3838 289.719 c 0
 80.3301 284.51 87.4756 276.865 97.6025 268.375 c 0
 107.729 259.885 120.93 250.538 137.509 242.719 c 0
 154.088 234.899 174.101 228.599 196.415 227.156 c 0
 217.543 225.727 240.836 228.792 263.691 237.469 c 0
 286.558 246.146 308.978 260.451 326.54 280.469 c 0
 338.397 293.899 348.118 309.946 354.915 327.656 c 0
 361.712 345.367 365.562 364.725 365.603 384.312 c 0
 365.603 389.427 365.359 394.503 364.853 399.531 c 0
 362.641 421.861 355.255 443.274 344.478 461.969 c 0
 333.699 480.663 319.523 496.632 303.509 508.75 c 0
 284.398 523.281 262.548 532.498 241.165 537.156 c 0
 229.137 539.776 217.267 540.966 205.853 540.938 c 0
EndSplineSet
EndChar

StartChar: S
Encoding: 83 83 18
Width: 441
VWidth: 0
Flags: W
HStem: 263.42 29.833<110.159 325.673> 538.606 21.6963<151.794 289.456>
VStem: 34.0225 27.9795<343.508 454.995>
LayerCount: 2
Fore
SplineSet
378.3 459.396 m 0
 377.505 458.975 375.061 461.943 370.604 467.544 c 0
 366.154 473.145 359.646 481.386 350.085 490.835 c 0
 340.528 500.283 327.859 510.963 311.435 520.514 c 0
 295 530.065 274.75 538.512 251.352 542.212 c 0
 240.668 543.923 229.351 544.621 217.607 544.087 c 0
 205.868 543.554 193.71 541.787 181.482 538.606 c 0
 169.255 535.426 156.956 530.829 145.066 524.677 c 0
 133.177 518.525 121.695 510.817 111.237 501.461 c 0
 96.3174 488.118 83.207 471.597 74.3311 452.523 c 0
 65.9902 434.611 61.2246 414.314 62.002 393.874 c 0
 62.7285 374.442 68.3789 354.595 79.2832 337.931 c 0
 89.7236 321.936 105.132 308.477 123.142 301.238 c 0
 135.404 295.936 149.161 293.765 163.875 293.253 c 0
 178.589 292.74 194.265 293.885 210.268 295.009 c 0
 219.291 295.863 228.628 296.699 238.188 297.185 c 0
 262.024 298.395 286.703 297.328 310.729 289.416 c 0
 331.283 282.265 349.457 269.969 363.652 254.413 c 0
 378.226 238.43 388.496 219.328 394.12 199.294 c 0
 399.979 178.12 400.641 156.389 397.169 135.837 c 0
 393.701 115.285 386.11 95.915 375.411 79.0811 c 1
 360.69 56.1104 341.016 38.2461 319.579 25.3369 c 0
 298.146 12.4277 274.961 4.46875 252.364 0.938477 c 0
 224.659 -3.43848 197.915 -1.51758 174.121 4.30664 c 0
 150.326 10.1299 129.464 19.8516 112.209 31.3457 c 0
 93.1523 44.0645 78.6084 58.7568 67.7109 72.7754 c 0
 56.8154 86.7939 49.5332 100.162 44.6338 111.372 c 0
 39.7354 122.582 37.1836 131.657 35.9121 137.865 c 0
 34.6396 144.073 34.6182 147.429 35.4189 147.656 c 0
 36.2197 147.884 37.8164 144.98 40.542 139.441 c 0
 43.2666 133.901 47.1553 125.714 53.1172 115.718 c 0
 59.0801 105.722 67.1553 93.8936 78.3174 81.7012 c 0
 89.4795 69.5088 103.767 56.9287 121.684 46.4199 c 0
 137.883 36.8955 157.144 29.1035 178.696 24.8047 c 0
 200.252 20.5068 224.125 19.7041 248.282 24.3633 c 0
 267.883 28.1865 287.88 35.7441 306.077 47.251 c 0
 324.274 58.7578 340.67 74.2139 352.213 93.499 c 1
 360.666 107.481 366.622 123.569 369.25 140.391 c 0
 371.878 157.211 371.182 174.761 366.229 191.299 c 0
 361.583 207.08 353.318 222.148 341.907 234.417 c 0
 330.821 246.354 316.645 255.859 300.997 261.179 c 0
 282.812 267.806 261.983 268.197 239.775 266.987 c 0
 230.868 266.502 221.821 265.774 212.732 265.133 c 0
 196.519 263.594 179.536 262.473 162.504 263.42 c 0
 145.477 264.367 128.392 267.384 111.898 273.902 c 0
 87.8789 283.941 68.1562 301.396 54.9307 322.324 c 0
 41.2158 344.072 34.459 368.905 34.0225 393.127 c 0
 33.5752 418.533 39.7422 442.915 50.2549 464.126 c 0
 61.4287 486.659 77.1562 505.559 94.8223 520.425 c 0
 107.291 530.915 120.737 539.368 134.515 545.951 c 0
 148.284 552.533 162.39 557.245 176.311 560.303 c 0
 190.229 563.359 203.975 564.762 217.161 564.766 c 0
 230.354 564.769 242.994 563.373 254.84 560.866 c 0
 280.784 555.325 302.392 544.692 319.382 533.062 c 0
 336.377 521.432 348.828 508.782 357.713 497.679 c 0
 366.602 486.575 371.983 476.992 375.099 470.307 c 0
 378.205 463.621 379.1 459.816 378.3 459.396 c 0
EndSplineSet
EndChar

StartChar: T
Encoding: 84 84 19
Width: 460
VWidth: 0
Flags: W
HStem: 535.281 30<34.2686 232.219 245.312 433.079>
VStem: 223.469 30<86.8054 475.112>
LayerCount: 2
Fore
SplineSet
250.938 565.406 m 0
 354.327 565.614 435.146 559.98 435.219 552.219 c 0
 435.295 544.311 351.478 537.038 245.312 535.469 c 1
 250.26 489.717 253.613 393.118 253.469 281.438 c 0
 253.268 125.65 246.374 -0.760742 238.094 -0.75 c 0
 229.813 -0.738281 223.268 125.713 223.469 281.5 c 0
 223.612 393.034 227.164 489.5 232.219 535.312 c 1
 231.556 535.306 230.914 535.287 230.25 535.281 c 0
 117.033 534.212 25.0781 540.064 25 548.344 c 0
 24.9199 556.623 116.752 564.212 229.969 565.281 c 0
 237.045 565.348 244.045 565.393 250.938 565.406 c 0
EndSplineSet
EndChar

StartChar: U
Encoding: 85 85 20
Width: 533
VWidth: 0
Flags: W
HStem: -1.66309 29.998<187.621 326.101>
VStem: 39.0088 24.2725<194.265 345.097> 62.0742 7.98926<494.889 559.917> 463.699 23.9463<216.587 557.091>
LayerCount: 2
Fore
SplineSet
66.2959 560.014 m 4xb0
 67.6797 560.014 69.0801 551.748 70.0635 536.218 c 4xb0
 71.0459 520.688 71.5879 497.885 70.6807 468.905 c 4
 70.1543 452.119 69.1045 433.31 67.8037 412.735 c 4
 66.501 392.161 64.9385 369.822 63.9355 345.96 c 4
 63.1748 327.561 62.7441 308.216 63.2812 288.168 c 4
 63.8184 268.121 65.3232 247.372 68.6855 226.225 c 5
 71.6377 207.751 75.9678 188.904 82.2285 170.347 c 4
 88.4893 151.789 96.6855 133.521 107.438 116.369 c 4
 117.29 100.685 129.306 85.8184 143.312 72.918 c 4
 157.319 60.0186 173.322 49.0869 191.06 41.4473 c 4
 212.544 32.0264 236.83 27.6016 261.323 28.335 c 4
 263.157 28.3896 264.989 28.4736 266.816 28.585 c 4
 293.265 30.25 318.96 37.877 341.124 50.4316 c 4
 357.398 59.5605 371.946 71.2617 384.694 84.4893 c 4
 397.441 97.7178 408.395 112.471 417.521 127.843 c 5
 427.466 144.608 435.245 162.219 441.399 180.032 c 4
 447.562 197.846 452.099 215.863 455.479 233.563 c 4
 459.881 256.477 462.271 278.854 463.699 300.421 c 4
 465.136 321.987 465.604 342.743 465.816 362.44 c 4
 466.033 382.138 466.003 400.777 466.11 418.146 c 4
 466.228 435.516 466.479 451.613 467.018 466.265 c 4
 468.148 497.868 470.481 522.702 472.737 539.585 c 4
 474.998 556.467 477.146 565.41 478.595 565.302 c 4
 480.041 565.193 480.687 556.048 481.084 539.126 c 4
 481.479 522.205 481.657 497.498 482.816 466.27 c 4
 483.362 451.792 484.146 435.857 485.017 418.558 c 4
 485.883 401.258 486.838 382.592 487.466 362.664 c 4
 488.095 342.737 488.396 321.55 487.646 299.23 c 4
 486.896 276.912 485.095 253.463 481.179 229.048 c 4
 478.134 210.167 473.715 190.761 467.396 171.326 c 4
 461.08 151.892 452.857 132.429 442.15 113.563 c 5
 432.311 96.2021 420.211 79.4639 405.819 64.2988 c 4
 391.438 49.1348 374.762 35.5439 355.837 24.6113 c 4
 329.708 9.64551 299.696 0.585938 268.694 -1.35449 c 4
 266.555 -1.49219 264.399 -1.59473 262.25 -1.66309 c 4
 233.477 -2.56836 204.848 2.8125 179.062 14.1777 c 4
 158.069 23.5674 139.433 36.4385 123.376 51.415 c 4
 107.315 66.3906 93.8506 83.4688 83.0732 101.438 c 4
 71.3457 120.986 62.5811 141.376 56.0908 161.795 c 4
 49.6016 182.214 45.3838 202.66 42.8145 222.496 c 5
 39.8613 245.166 38.8984 267.044 39.0088 287.915 c 4xd0
 39.1172 308.785 40.3008 328.648 41.8887 347.354 c 4
 43.9297 371.608 46.584 393.99 49.0371 414.452 c 4
 51.4902 434.914 53.751 453.454 55.5488 469.961 c 4
 58.6533 498.453 60.5156 520.979 62.0742 536.366 c 4
 63.6338 551.755 64.9121 560.015 66.2959 560.014 c 4xb0
EndSplineSet
EndChar

StartChar: V
Encoding: 86 86 21
Width: 521
VWidth: 0
Flags: W
LayerCount: 2
Fore
SplineSet
28.2217 564.656 m 0
 30.21 565.233 34.4629 557.541 40.6279 543.219 c 0
 46.793 528.896 54.8916 507.936 64.7217 482.062 c 0
 74.5518 456.189 86.125 425.397 99.2842 391.344 c 0
 112.438 357.29 127.178 319.999 143.159 281.062 c 0
 144.989 276.604 146.807 272.154 148.628 267.75 c 0
 164.079 230.397 179.22 195.128 193.159 163.188 c 0
 207.099 131.247 219.83 102.625 230.438 78.5625 c 0
 241.052 54.5 249.517 34.9883 254.847 21.2188 c 0
 257.08 15.4492 258.714 10.748 259.784 7.09375 c 1
 260.854 10.749 262.519 15.4453 264.753 21.2188 c 0
 270.082 34.9883 278.517 54.5 289.128 78.5625 c 0
 299.738 102.625 312.501 131.247 326.438 163.188 c 0
 340.38 195.128 355.489 230.397 370.938 267.75 c 0
 372.763 272.154 374.604 276.604 376.438 281.062 c 0
 392.421 319.999 407.157 357.29 420.312 391.344 c 0
 433.475 425.397 445.048 456.189 454.878 482.062 c 0
 464.708 507.936 472.807 528.896 478.972 543.219 c 0
 485.137 557.541 489.391 565.233 491.378 564.656 c 0
 493.366 564.079 492.874 555.288 490.128 539.875 c 0
 487.383 524.462 482.375 502.438 475.062 475.531 c 0
 467.753 448.625 458.135 416.841 446.284 381.938 c 0
 434.434 347.034 420.34 309.002 404.188 269.656 c 0
 402.342 265.15 400.489 260.691 398.628 256.25 c 0
 382.844 218.577 366.678 183.292 351.159 151.719 c 0
 335.642 120.146 320.761 92.2705 307.659 69.25 c 0
 294.557 46.2295 283.231 28.083 274.784 15.9062 c 0
 268.47 6.81055 263.747 1.02734 261.034 -0.90625 c 0
 261.021 -0.914062 261.014 -0.929688 261.003 -0.9375 c 0
 260.898 -1.20996 260.79 -1.42676 260.597 -1.53125 c 0
 260.39 -1.64258 260.124 -1.64453 259.812 -1.5625 c 0
 259.794 -1.55664 259.771 -1.56934 259.753 -1.5625 c 0
 259.442 -1.64258 259.208 -1.64258 259.003 -1.53125 c 0
 258.81 -1.42676 258.665 -1.20996 258.562 -0.9375 c 0
 258.555 -0.929688 258.545 -0.914062 258.534 -0.90625 c 0
 255.817 1.02734 251.129 6.81055 244.812 15.9062 c 0
 236.357 28.083 225.042 46.2295 211.938 69.25 c 0
 198.838 92.2705 183.959 120.146 168.438 151.719 c 0
 152.922 183.292 136.756 218.577 120.972 256.25 c 0
 119.105 260.691 117.259 265.15 115.409 269.656 c 0
 99.2607 309.002 85.166 347.034 73.3154 381.938 c 0
 61.4648 416.841 51.8447 448.625 44.5342 475.531 c 0
 37.2236 502.438 32.1865 524.462 29.4404 539.875 c 0
 26.6953 555.288 26.2334 564.079 28.2217 564.656 c 0
EndSplineSet
EndChar

StartChar: W
Encoding: 87 87 22
Width: 553
VWidth: 0
Flags: W
VStem: 28.665 11.4375<524.848 558.038> 510.761 11.4365<524.848 558.038>
LayerCount: 2
Fore
SplineSet
29.915 564.531 m 0
 31.9492 564.92 35.4023 557.131 40.1025 542.781 c 0
 44.8047 528.432 50.7695 507.529 57.9473 481.719 c 0
 65.124 455.908 73.5576 425.212 83.1963 391.219 c 0
 92.8359 357.226 103.691 319.953 115.604 281 c 0
 116.947 276.602 118.294 272.221 119.635 267.875 c 0
 131.182 230.474 142.566 195.086 153.135 163.031 c 0
 163.702 130.977 173.425 102.261 181.479 78.0938 c 0
 189.531 53.9268 195.923 34.3086 199.79 20.5312 c 0
 200.031 19.6719 200.226 18.9082 200.446 18.0938 c 1
 201.419 22.96 202.763 28.5586 204.385 34.8438 c 0
 209.912 56.2676 218.726 85.3145 228.571 117.562 c 0
 229.146 119.437 229.712 121.324 230.29 123.219 c 0
 240.552 156.772 249.869 187.183 257.572 209.125 c 0
 262.103 222.027 266.134 231.949 269.511 237.812 c 1
 270.179 241.374 271.23 243.444 272.666 243.719 c 0
 273.128 243.807 273.619 243.706 274.136 243.438 c 0
 274.65 243.706 275.146 243.807 275.604 243.719 c 0
 277.035 243.445 278.091 241.388 278.761 237.844 c 1
 282.14 231.983 286.162 222.045 290.697 209.125 c 0
 298.398 187.183 307.688 156.772 317.947 123.219 c 0
 318.525 121.324 319.125 119.436 319.697 117.562 c 0
 329.546 85.3145 338.355 56.2676 343.886 34.8438 c 0
 346.22 25.793 347.951 18.124 348.886 12.125 c 1
 349.494 14.6328 350.229 17.4102 351.104 20.5312 c 0
 354.972 34.3086 361.33 53.9268 369.386 78.0938 c 0
 377.438 102.261 387.16 130.977 397.729 163.031 c 0
 408.296 195.086 419.714 230.474 431.261 267.875 c 0
 432.603 272.221 433.945 276.602 435.291 281 c 0
 447.201 319.953 458.062 357.226 467.697 391.219 c 0
 477.335 425.212 485.771 455.908 492.947 481.719 c 0
 500.125 507.529 506.062 528.432 510.761 542.781 c 0
 515.459 557.131 518.943 564.92 520.979 564.531 c 0
 523.013 564.143 523.396 555.616 522.197 540.5 c 0
 521.003 525.384 518.209 503.7 513.636 477.094 c 0
 509.062 450.487 502.705 418.971 494.447 384.25 c 0
 486.188 349.529 476.021 311.599 463.979 272.219 c 0
 462.617 267.772 461.229 263.355 459.854 258.969 c 0
 448.005 221.212 435.562 185.744 423.386 153.906 c 0
 411.212 122.068 399.328 93.8604 388.697 70.5 c 0
 378.064 47.1396 368.697 28.6328 361.572 16.1562 c 0
 354.562 3.87988 349.736 -2.58203 347.822 -2.03125 c 1
 344.123 -3.61523 335.257 7.43945 324.572 27.25 c 0
 313.89 47.0605 301.523 75.6982 291.072 108.656 c 0
 290.466 110.571 289.854 112.495 289.261 114.438 c 0
 282.492 136.567 277.509 157.727 274.136 176.281 c 1
 270.761 157.727 265.744 136.567 258.979 114.438 c 0
 258.386 112.495 257.806 110.571 257.197 108.656 c 0
 246.746 75.6982 234.351 47.0605 223.665 27.25 c 0
 215.423 11.9658 208.297 1.9248 203.76 -1.15625 c 0
 203.623 -1.57422 203.438 -1.88477 203.165 -2 c 0
 202.941 -2.0957 202.663 -2.05078 202.354 -1.9375 c 0
 202.344 -1.94141 202.331 -1.93359 202.321 -1.9375 c 0
 201.6 -2.21094 200.972 -2.25586 200.446 -2.03125 c 0
 199.513 -1.63086 198.961 -0.454102 198.729 1.4375 c 0
 196.315 4.4707 193.131 9.43262 189.29 16.1562 c 0
 182.165 28.6328 172.828 47.1396 162.196 70.5 c 0
 151.564 93.8604 139.652 122.068 127.479 153.906 c 0
 115.305 185.744 102.856 221.212 91.0098 258.969 c 0
 89.6338 263.355 88.2754 267.772 86.915 272.219 c 0
 74.873 311.599 64.7061 349.529 56.4473 384.25 c 0
 48.1865 418.971 41.834 450.487 37.2598 477.094 c 0
 32.6855 503.7 29.8613 525.384 28.665 540.5 c 0
 27.4717 555.616 27.8818 564.143 29.915 564.531 c 0
EndSplineSet
EndChar

StartChar: X
Encoding: 88 88 23
Width: 416
VWidth: 0
Flags: W
LayerCount: 2
Fore
SplineSet
27.752 565.188 m 0
 32.1963 565.607 55.2607 538.36 88.9727 492.781 c 0
 121.162 449.255 163.008 388.948 207.439 320.156 c 1
 251.874 388.947 293.688 449.255 325.877 492.781 c 0
 360.679 539.831 384.104 567.349 387.439 565.062 c 0
 390.779 562.776 373.438 531.14 343.189 481.188 c 0
 313.664 432.422 271.856 366.003 225.189 292.438 c 1
 274.843 214.24 317.188 141.761 346.158 88.3125 c 0
 375.188 34.7715 390.915 0.378906 387.351 -1.71875 c 0
 383.775 -3.81641 361.581 26.7773 327.976 77.4062 c 0
 296.18 125.302 253.861 191.344 207.408 264.438 c 1
 160.958 191.35 118.672 125.299 86.877 77.4062 c 0
 53.2656 26.7773 31.0713 -3.81641 27.502 -1.71875 c 0
 23.9316 0.378906 39.6631 34.7715 68.6895 88.3125 c 0
 97.6602 141.753 140.021 214.223 189.658 292.406 c 1
 142.986 365.98 101.188 432.416 71.6582 481.188 c 0
 41.4141 531.14 24.0684 562.776 27.4082 565.062 c 0
 27.5127 565.134 27.6084 565.174 27.752 565.188 c 0
EndSplineSet
EndChar

StartChar: Y
Encoding: 89 89 24
Width: 414
VWidth: 0
Flags: W
LayerCount: 2
Fore
SplineSet
387.63 566.344 m 4
 387.772 566.33 387.9 566.229 388.005 566.156 c 4
 391.344 563.87 374.059 532.247 343.849 482.344 c 4
 313.638 432.44 270.625 364.198 222.63 288.562 c 4
 220.432 285.1 218.191 281.648 215.974 278.156 c 4
 166.418 200.124 121.302 129.607 87.7236 79.0312 c 4
 54.1445 28.4551 32.043 -2.09766 28.4736 0 c 4
 24.9033 2.09766 40.542 36.418 69.5361 89.9062 c 4
 98.5293 143.395 140.952 215.914 190.661 294.188 c 4
 192.667 297.347 194.662 300.527 196.661 303.656 c 5
 176.36 325.985 144.229 367.992 110.317 417.844 c 4
 57.8857 494.92 20.9707 561.312 27.8174 565.969 c 4
 34.6631 570.626 82.7295 511.795 135.161 434.719 c 4
 166.503 388.644 192.262 346.549 206.505 319.031 c 5
 251.479 388.757 293.968 449.979 326.505 493.969 c 4
 360.183 539.501 383.188 566.765 387.63 566.344 c 4
EndSplineSet
EndChar

StartChar: Z
Encoding: 90 90 25
Width: 535
VWidth: 0
Flags: W
HStem: -0.4375 30<73.076 461.875> 535.156 30<71.385 462.592>
LayerCount: 2
Fore
SplineSet
291.469 565.25 m 0
 412.463 565.438 507.032 559.793 507.094 552.031 c 0
 507.095 551.928 506.938 551.854 506.906 551.75 c 0
 507.864 549.895 502.027 541.55 490.688 527.938 c 0
 478.98 513.886 461.421 494.219 439.594 470.094 c 0
 395.939 421.845 335.242 355.761 269.531 281.656 c 0
 263.996 275.414 258.553 269.148 253.125 263 c 0
 191.403 193.084 137.11 129.697 97.5 84.2188 c 0
 77.6943 61.4795 61.499 43.1875 49.875 30.9688 c 0
 44.2969 25.1055 39.8525 20.7852 36.4688 17.8438 c 1
 62.0117 24.4258 155.676 29.4248 267.562 29.5625 c 0
 399.075 29.7246 505.866 23.124 505.875 14.8438 c 0
 505.884 6.56348 399.169 -0.275391 267.656 -0.4375 c 0
 137.213 -0.598633 31.1641 5.81543 29.4375 14 c 0
 29.4014 14.0596 29.3672 14.1123 29.3438 14.1875 c 0
 28.6631 16.3018 32.8213 24.5156 41.0625 37.8125 c 0
 49.9668 52.1797 63.6846 72.4609 81.4688 96.9688 c 0
 117.037 145.985 168.929 212.086 230.625 282.781 c 0
 236.051 288.998 241.556 295.251 247.125 301.531 c 0
 280.182 338.811 312.546 373.51 342.656 404.469 c 0
 372.767 435.428 400.639 462.679 424.5 485 c 0
 448.361 507.321 468.182 524.756 482.438 536.281 c 0
 488.766 541.396 493.935 545.226 497.906 547.906 c 1
 469.505 541.381 377.065 536.025 267.188 535.156 c 0
 134.69 534.108 27.0654 540.002 27 548.281 c 0
 26.9346 556.561 134.409 564.108 266.906 565.156 c 0
 275.188 565.223 283.402 565.238 291.469 565.25 c 0
EndSplineSet
EndChar

StartChar: a
Encoding: 97 97 26
Width: 379
VWidth: 0
Flags: W
HStem: 0.0625 22.5625<155.286 259.31> 308.781 21.125<159.22 259.347>
VStem: 38.0049 30.0312<101.658 228.758> 299.255 30<50.5823 295.113>
LayerCount: 2
Fore
SplineSet
313.442 353.938 m 4
 321.723 353.975 328.812 274.685 329.255 176.969 c 4
 329.696 79.2529 323.348 -0.0878906 315.067 -0.125 c 4
 311.377 -0.141602 307.893 15.6396 305.161 41.75 c 5
 302.842 39.1484 299.741 36.0889 295.755 32.75 c 4
 290.061 27.9795 282.579 22.6377 273.099 17.5938 c 4
 263.618 12.5498 252.129 7.79883 238.724 4.5 c 4
 226.459 1.48828 212.653 -0.274414 197.755 0.0625 c 4
 182.856 0.399414 166.883 2.85156 150.755 8.1875 c 4
 129.763 15.1719 108.842 27.1738 90.6611 44.1562 c 4
 72.4805 61.1387 57.0586 83.1016 47.7236 108.781 c 4
 41.2158 126.854 37.8535 146.396 38.0049 166.281 c 4
 38.125 181.942 40.4131 197.378 44.5986 211.969 c 4
 48.7842 226.56 54.8535 240.317 62.5361 252.812 c 4
 77.1719 276.456 97.0938 294.835 118.38 307.594 c 4
 139.666 320.353 162.31 327.494 183.599 329.906 c 4
 205.936 332.382 226.323 329.769 243.38 324.969 c 4
 260.438 320.169 274.202 313.194 284.599 306.406 c 4
 292.233 301.421 298.095 296.566 302.38 292.375 c 5
 304.962 329.984 308.906 353.917 313.442 353.938 c 4
210.974 308.781 m 4
 203.219 308.704 195.162 308.023 186.942 306.531 c 4
 169.021 303.332 150.195 296.192 132.692 284.688 c 4
 115.189 273.183 99.0371 257.321 87.5361 237.719 c 4
 75.3271 217.083 68.2578 191.976 68.0361 166.062 c 4
 67.8955 149.612 70.499 133.49 75.6611 118.719 c 4
 82.9258 97.6797 95.3564 79.1211 110.13 64.4062 c 4
 124.902 49.6914 142.02 38.8115 159.317 32.0625 c 4
 172.678 26.8213 186.2 23.8701 199.036 22.625 c 4
 211.872 21.3799 224.029 21.8496 235.036 23.4062 c 4
 247.068 25.1016 257.762 28.0811 266.942 31.375 c 4
 276.124 34.6689 283.778 38.2852 289.974 41.4375 c 4
 296.169 44.5898 300.908 47.2881 304.286 48.9688 c 4
 304.356 49.0039 304.404 49.0283 304.474 49.0625 c 4
 301.477 81.2803 299.481 126.604 299.255 176.844 c 4
 299.075 216.639 300.039 253.26 301.786 282.844 c 5
 296.305 285.829 288.56 290.226 278.255 294.688 c 4
 267.788 299.22 254.631 303.787 239.13 306.469 c 4
 230.411 307.978 220.944 308.88 210.974 308.781 c 4
EndSplineSet
EndChar

StartChar: b
Encoding: 98 98 27
Width: 367
VWidth: 0
Flags: W
VStem: 45.0215 29.9688<87.1573 296.571 302.969 478.182> 292.646 30.0312<101.594 228.68>
LayerCount: 2
Fore
SplineSet
59.209 566.125 m 0
 67.1279 566.148 73.9619 449.953 74.9277 302.969 c 1
 77.8115 305.008 80.998 307.102 84.584 309.188 c 0
 95.6758 315.64 110.256 322.041 128.115 325.906 c 0
 145.979 329.771 167.134 331.08 189.865 326.844 c 0
 211.669 322.717 234.447 313.412 255.146 298.312 c 0
 275.846 283.213 294.454 262.324 306.834 236.531 c 0
 316.646 215.915 322.188 192.656 322.678 168.75 c 0
 323.271 139.864 316.413 111.702 303.709 87.6562 c 0
 290.142 62.1758 270.511 42.0752 249.178 27.9375 c 0
 227.845 13.7998 204.836 5.62207 183.24 2.5 c 0
 162.394 -0.462891 143.231 1.14258 127.053 4.8125 c 0
 110.874 8.48242 97.6357 14.2012 87.5215 19.9062 c 0
 78.7539 24.8516 72.3057 29.791 67.8965 33.8125 c 1
 65.8271 11.8145 63.4316 -0.710938 60.834 -0.71875 c 0
 52.5537 -0.743164 45.4629 126.209 45.0215 282.656 c 0
 44.5801 439.104 50.9287 566.102 59.209 566.125 c 0
147.021 307.656 m 0
 141.604 307.588 136.354 307.251 131.334 306.688 c 0
 115.272 304.886 101.496 300.899 90.4902 296.781 c 0
 84.5078 294.543 79.4111 292.29 74.9902 290.219 c 1
 75.001 287.714 75.0146 285.271 75.0215 282.75 c 0
 75.3086 180.994 72.7402 91.7529 68.6152 41.75 c 0
 69.0371 41.5723 69.3799 41.4463 69.834 41.25 c 0
 75.207 38.9238 82.875 35.3516 92.959 31.8438 c 0
 103.043 28.3359 115.596 24.8955 130.24 23.2188 c 0
 144.885 21.542 161.686 21.6211 179.209 25.4375 c 0
 197.351 29.335 216.367 37.4307 233.834 50.125 c 0
 251.301 62.8193 267.202 80.127 277.771 101.156 c 0
 287.812 120.926 293.124 144.256 292.646 168.156 c 0
 292.251 187.937 287.917 207.12 280.146 224 c 0
 270.497 245.193 255.454 263.015 238.553 276.375 c 0
 221.651 289.735 202.885 298.639 184.709 303.25 c 0
 171.699 306.598 158.947 307.807 147.021 307.656 c 0
EndSplineSet
EndChar

StartChar: c
Encoding: 99 99 28
Width: 338
VWidth: 0
Flags: W
HStem: 1.67676 327.545
VStem: 44.7441 28.5684<93.3295 237.267>
LayerCount: 2
Fore
SplineSet
303.509 286.599 m 4
 302.773 285.669 299.621 286.799 294.18 289.234 c 4
 288.738 291.67 280.961 295.393 270.729 299.062 c 4
 260.495 302.73 247.759 306.336 232.867 308.144 c 4
 217.979 309.952 200.896 309.957 183.061 306.137 c 4
 166.077 302.544 148.317 295.384 131.751 284.246 c 4
 115.188 273.108 99.8184 257.993 88.5928 239.416 c 4
 82.1475 228.827 77.0312 217.048 73.5137 204.521 c 4
 69.9951 191.993 68.0752 178.719 68.0098 165.271 c 4
 67.9434 151.788 69.7471 138.547 73.3125 126.111 c 4
 79.0586 105.834 89.5176 87.4893 102.395 72.4004 c 4
 115.271 57.3115 130.552 45.4893 146.438 37.3779 c 4
 159.622 30.6191 173.257 26.2441 186.364 23.7588 c 4
 199.477 21.2734 212.062 20.6748 223.554 21.3467 c 5
 236.067 22.0713 247.341 24.2832 257.063 26.9688 c 4
 266.786 29.6553 274.971 32.8154 281.604 35.6299 c 4
 288.232 38.4453 293.325 40.9121 296.938 42.4268 c 4
 300.552 43.9414 302.699 44.4971 303.286 43.752 c 4
 303.872 43.0078 302.87 40.9912 300.199 37.9395 c 4
 297.528 34.8877 293.175 30.8027 286.925 26.2822 c 4
 280.675 21.7617 272.512 16.8057 262.312 12.3438 c 4
 252.11 7.88184 239.856 3.91602 225.743 1.67676 c 5
 212.774 -0.373047 198.296 -0.931641 182.935 0.851562 c 4
 167.565 2.63477 151.312 6.76562 135.257 13.9766 c 4
 115.836 22.7344 97.0088 36.0342 81.0801 53.6035 c 4
 65.1514 71.1738 52.1377 93.0098 44.7441 117.778 c 4
 40.2451 132.992 37.9404 149.083 38.001 165.398 c 4
 38.0615 181.673 40.4717 197.673 44.9092 212.762 c 4
 49.3467 227.85 55.8115 242.023 63.9287 254.792 c 4
 78.1992 277.113 97.1357 294.567 117.312 306.877 c 4
 137.481 319.186 158.873 326.357 179.045 329.222 c 4
 200.254 332.188 219.749 330.463 236.19 326.641 c 4
 252.633 322.818 266.06 316.914 276.312 311.03 c 4
 286.563 305.146 293.697 299.294 298.105 294.887 c 4
 302.519 290.479 304.244 287.527 303.509 286.599 c 4
EndSplineSet
EndChar

StartChar: d
Encoding: 100 100 29
Width: 377
VWidth: 0
Flags: W
HStem: 1.28125 22.8438<152.959 257.868> 308.688 21.9678<156.301 256.926>
VStem: 37.0049 30.0312<102.492 229.246> 296.505 30<86.63 292.165 296.469 477.655>
LayerCount: 2
Fore
SplineSet
310.692 565.531 m 4
 318.973 565.556 326.063 438.604 326.505 282.156 c 4
 326.946 125.709 320.566 -1.28906 312.286 -1.3125 c 4
 309.312 -1.32129 306.511 15.1299 304.099 43.375 c 5
 300.09 38.8447 293.73 32.9141 284.567 26.6875 c 4
 275.028 20.2061 262.409 13.4512 246.692 8.4375 c 4
 230.975 3.42383 212.137 0.169922 191.192 1.28125 c 4
 168.66 2.53418 144.104 9.04102 120.88 22.125 c 4
 97.6572 35.209 75.792 54.8848 60.2236 80.7812 c 4
 52.7119 93.3828 46.8369 107.232 42.8799 121.875 c 4
 38.9229 136.518 36.8857 151.951 37.0049 167.594 c 4
 37.1846 191.354 42.335 214.55 51.7861 235.25 c 4
 64.2705 262.322 83.6035 284.209 105.224 299.875 c 4
 126.845 315.541 150.746 324.995 173.567 328.844 c 4
 185.452 330.81 196.938 331.258 207.724 330.656 c 4
 218.509 330.055 228.589 328.398 237.817 326.062 c 4
 256.275 321.392 271.19 314.102 282.442 306.875 c 4
 287.982 303.316 292.646 299.781 296.505 296.469 c 5
 296.482 446.188 302.67 565.509 310.692 565.531 c 4
210.724 308.688 m 4
 200.312 308.71 189.366 307.631 178.224 305.031 c 4
 159.181 300.663 139.477 291.654 121.786 277.812 c 4
 104.096 263.971 88.4453 245.305 78.7236 223.094 c 4
 71.2246 206.175 67.1709 187.05 67.0361 167.375 c 4
 66.8594 141.469 73.4639 116.272 85.3799 95.5312 c 4
 97.5518 74.1162 115.369 57.0908 134.505 45.1875 c 4
 153.641 33.2842 174.115 26.4941 193.192 24.125 c 4
 210.965 21.8672 227.639 23.2344 242.036 26.1562 c 4
 256.434 29.0791 268.586 33.5771 278.286 37.9062 c 4
 287.986 42.2354 295.26 46.4043 300.38 49.1562 c 4
 301.53 49.7744 302.54 50.2852 303.474 50.75 c 4
 299.493 102.094 296.774 186.544 296.505 282.062 c 4
 296.503 282.854 296.507 283.617 296.505 284.406 c 4
 291.152 287.416 284.322 291.08 275.911 294.719 c 4
 264.673 299.58 250.532 304.351 233.88 306.875 c 4
 226.595 307.979 218.821 308.67 210.724 308.688 c 4
EndSplineSet
EndChar

StartChar: e
Encoding: 101 101 30
Width: 393
VWidth: 0
Flags: W
HStem: 203.938 29.9678<82.7676 344.062> 306.5 24.8438<151.468 264.478>
VStem: 38.0186 30<103.404 208.45> 345.831 4.59375<106.484 112.958>
LayerCount: 2
Fore
SplineSet
202.769 331.344 m 4
 225.83 331.3 247.184 326.458 265.331 318.75 c 4
 284.792 310.44 300.317 299.084 312.206 287.594 c 4
 324.095 276.104 332.385 264.466 338.05 254.469 c 4
 343.715 244.472 346.805 236.088 348.362 230.281 c 4
 349.602 225.662 349.849 222.694 349.425 221.469 c 4
 349.449 221.361 349.485 221.265 349.487 221.156 c 4
 349.611 212.877 283.111 205.168 201.05 203.938 c 4
 147.776 203.139 100.988 205.267 74.6748 209.125 c 5
 74.042 207.181 73.4355 205.229 72.8936 203.25 c 4
 69.458 190.861 67.8066 177.741 68.0186 164.438 c 4
 68.4336 138.419 75.9297 113.073 88.7998 92.3125 c 4
 102.897 69.4697 123.285 51.6416 145.331 40.5312 c 4
 157.716 34.2764 170.729 30.04 183.612 27.6562 c 4
 196.495 25.2725 209.249 24.7129 221.331 25.6875 c 4
 236.193 26.875 250.112 30.3926 262.55 35.2188 c 4
 274.987 40.0449 285.934 46.1992 295.269 52.8438 c 4
 305.572 60.1689 313.96 68.0811 320.737 75.5625 c 4
 327.515 83.0439 332.703 90.0928 336.737 96 c 4
 340.771 101.907 343.677 106.684 345.831 109.875 c 4
 347.985 113.066 349.41 114.691 350.206 114.406 c 4
 351.002 114.121 351.128 111.942 350.425 108.031 c 4
 349.722 104.12 348.153 98.4688 345.237 91.4375 c 4
 342.321 84.4062 338.04 75.9707 331.769 66.875 c 4
 325.497 57.7793 317.221 48.0078 306.425 38.6875 c 4
 296.636 30.2441 284.825 22.2441 270.987 15.7188 c 4
 257.149 9.19336 241.286 4.14258 223.925 1.8125 c 4
 209.809 -0.0732422 194.793 -0.125977 179.456 2.0625 c 4
 164.119 4.25098 148.461 8.66797 133.331 15.7188 c 4
 119.875 22.001 106.942 30.3154 95.1436 40.5312 c 4
 83.3447 50.7471 72.6914 62.8691 63.8936 76.6562 c 4
 47.8281 101.925 38.4863 132.422 38.0186 163.969 c 4
 37.7793 180.099 39.8525 196.099 44.1436 211.312 c 4
 50.9385 235.171 63.0303 256.595 78.2373 274.25 c 4
 93.4443 291.905 111.771 305.799 131.362 315.281 c 4
 154.927 326.618 179.707 331.388 202.769 331.344 c 4
210.581 306.656 m 4
 208.159 306.663 205.728 306.614 203.269 306.5 c 4
 183.595 305.587 162.8 300.715 143.644 290.688 c 4
 127.675 282.388 112.728 270.418 100.362 255.5 c 4
 93.0205 246.643 86.6182 236.742 81.4873 226.094 c 5
 108.547 230.163 151.819 233.175 200.581 233.906 c 4
 270.019 234.947 328.45 231.032 344.862 224.781 c 5
 344.231 225.65 343.57 226.619 342.8 227.75 c 4
 339.547 232.522 334.966 239.562 328.269 247.844 c 4
 321.571 256.125 312.694 265.67 301.019 274.844 c 4
 289.343 284.018 274.839 292.83 257.581 298.781 c 4
 243.521 303.663 227.532 306.609 210.581 306.656 c 4
EndSplineSet
EndChar

StartChar: f
Encoding: 102 102 31
Width: 395
VWidth: 0
Flags: W
HStem: 301.281 28.5938<143.594 360.305> 551.5 15.375<276.422 349.709>
VStem: 111.344 23.1875<9.99897 301.198>
LayerCount: 2
Fore
SplineSet
303.312 566.875 m 0
 314.354 566.907 324.094 565.74 332.25 564.094 c 0
 343.125 561.898 351.217 558.87 356.469 556.312 c 0
 361.721 553.755 364.178 551.698 363.812 550.625 c 0
 363.447 549.552 360.302 549.521 354.719 549.969 c 0
 349.136 550.417 341.085 551.319 330.844 551.5 c 0
 320.604 551.681 308.118 551.129 294.188 548.469 c 0
 280.257 545.809 264.83 541.018 249.594 532.75 c 0
 239.172 527.144 228.833 519.919 218.969 511.062 c 0
 209.104 502.206 199.739 491.706 191.344 479.875 c 0
 176.844 459.429 165.385 434.641 157.375 407.344 c 0
 152.133 389.622 148.463 370.921 145.938 351.438 c 0
 145.006 344.253 144.229 337.044 143.594 329.875 c 1
 159.562 330.543 176.527 331.026 194.125 331.281 c 0
 288.16 332.646 364.603 327.021 364.719 318.75 c 0
 364.839 310.479 288.598 302.677 194.562 301.312 c 0
 176.086 301.045 158.358 301.044 141.688 301.281 c 1
 141.598 299.51 141.486 297.735 141.406 295.969 c 0
 140.576 277.68 140.228 259.68 139.812 242.25 c 0
 138.338 172.111 136.67 111.711 134.531 68.8125 c 0
 132.396 25.9141 129.719 0.545898 126.406 0.5 c 0
 123.094 0.455078 119.638 25.7637 116.812 68.6875 c 0
 113.987 111.612 111.846 172.145 111.344 242.469 c 0
 111.174 259.957 111.127 278.233 111.75 297.125 c 0
 111.804 298.74 111.874 300.376 111.938 302 c 1
 59.6074 303.801 24.082 308.179 24 313.812 c 0
 23.917 319.515 60.1533 325.007 113.469 328.312 c 1
 114.176 337.228 115.078 346.24 116.281 355.312 c 0
 119.035 376.076 123.197 396.355 129.094 415.812 c 0
 138.248 445.806 151.99 473.335 169.344 496.094 c 0
 179.412 509.308 190.729 520.805 202.656 530.344 c 0
 214.583 539.883 227.104 547.477 239.594 553.125 c 0
 258.021 561.391 276.013 565.185 291.844 566.406 c 0
 295.802 566.712 299.633 566.864 303.312 566.875 c 0
EndSplineSet
EndChar

StartChar: h
Encoding: 104 104 32
Width: 393
VWidth: 0
Flags: W
HStem: -0.117188 21G<59.5581 63.5928>
VStem: 45.5938 29.957<0.613153 221.976 256.828 474.498> 328.299 7.79102<3.40341 27.3619> 330.081 20.3838<29.0272 180.284>
LayerCount: 2
Fore
SplineSet
59.3701 557.495 m 5xd0
 59.3799 557.495 l 5
 68.0459 556.161 73.5459 477.532 75.5508 321.514 c 5
 75.5508 308.936 l 5
 75.5508 278.988 l 6
 75.5508 270.689 75.5508 264.761 75.5508 256.828 c 5
 78.5674 262.67 81.5498 268.222 84.5352 272.999 c 4
 99.2031 293.001 116.571 307.918 137.242 317.92 c 4
 155.909 326.587 175.799 330.565 197.136 329.898 c 4
 213.803 328.564 229.783 324.587 244.451 317.92 c 4
 261.12 310.585 276.567 300.641 290.57 287.973 c 5
 302.57 275.304 312.447 261.314 321.115 246.646 c 4
 330.449 230.644 337.41 214.27 342.08 196.934 c 4
 346.08 180.932 349.123 164.489 350.465 147.82 c 4
 351.806 129.818 351.806 111.455 350.465 92.1191 c 4xd0
 349.13 78.1172 347.142 63.6641 344.476 48.9961 c 4
 341.807 34.3271 338.756 22.3936 336.09 13.0596 c 4
 333.422 5.05859 331.442 1.08008 330.101 1.08008 c 4
 328.76 2.41406 328.297 6.32422 328.299 13.6582 c 4xe0
 328.299 18.3252 328.816 30.2588 329.487 49.5947 c 4
 330.081 67.5967 330.079 82.0508 330.081 92.7188 c 4
 330.079 112.721 329.087 130.688 327.086 146.024 c 4
 324.418 162.025 321.503 176.479 317.504 189.147 c 4
 312.169 205.816 305.139 220.202 297.139 232.87 c 4
 289.138 245.538 280.188 257.009 270.188 267.01 c 4
 258.186 277.678 245.789 285.633 232.453 290.967 c 4
 220.452 295.634 207.988 298.617 195.319 299.951 c 4
 178.65 300.618 163.202 297.635 149.201 290.967 c 4
 133.198 283.633 119.807 271.632 108.474 255.63 c 4
 97.8037 240.961 89.8496 224.123 84.5166 204.121 c 4
 80.5146 189.452 76.334 173.01 74.333 155.008 c 4
 74.1602 152.237 73.9277 142.984 73.7393 138.837 c 4
 72.9492 109.807 72.0293 85.0029 70.7451 64.5684 c 4
 68.5186 29.3164 65.4248 7.21191 61.7607 -0.117188 c 5
 57.3555 -0.117188 51.7725 20.5498 49.1836 60.9746 c 4
 47.6641 84.9541 45.957 113.789 46.1875 138.837 c 4
 46.1113 166.398 45.6133 189.463 45 204.121 c 4
 45.0762 214.646 45.3057 223.707 45.5938 232.87 c 6
 45.5938 243.053 l 5
 45.5938 278.988 l 6
 46.2607 447.009 50.7012 539.492 59.3701 557.495 c 5xd0
EndSplineSet
EndChar

StartChar: g
Encoding: 103 103 33
Width: 343
VWidth: 0
Flags: W
HStem: 307.969 21.2812<141.065 231.388>
VStem: 43.7324 28.8125<125.887 250.654> 269.482 17.7188<108.431 353.036>
LayerCount: 2
Fore
SplineSet
276.857 354.75 m 4
 280.171 354.837 283.882 331.688 287.201 292.375 c 4
 290.52 253.062 293.414 197.591 294.951 133.125 c 4
 295.363 117.57 295.687 101.184 295.014 84.1875 c 4
 294.342 67.1914 292.664 49.5781 288.92 31.625 c 4
 288.679 30.4463 288.433 29.2744 288.17 28.0938 c 4
 284.301 10.7295 278.099 -6.16504 269.639 -21.4062 c 4
 261.179 -36.6475 250.456 -50.2295 237.701 -61.375 c 4
 219.387 -76.9922 197.867 -86.1582 176.951 -89.875 c 4
 156.034 -93.5918 135.748 -91.8711 118.264 -86.5 c 4
 99.7939 -80.7393 84.9258 -71.2109 73.7012 -61.125 c 4
 62.4756 -51.0391 54.8398 -40.3955 49.7949 -31.1875 c 4
 44.75 -21.9795 42.2568 -14.1826 41.1699 -8.78125 c 4
 40.083 -3.37988 40.333 -0.360352 41.4199 0 c 4
 42.5059 0.360352 44.3545 -1.92969 47.2949 -6.21875 c 4
 50.2354 -10.5078 54.3301 -16.8115 60.3887 -24.0312 c 4
 66.4473 -31.251 74.5518 -39.4248 85.1699 -46.875 c 4
 95.7881 -54.3252 108.965 -61.0566 124.232 -64.4375 c 4
 138.648 -67.71 155.097 -67.9229 171.732 -64.0625 c 4
 188.368 -60.2021 205.182 -52.2734 218.764 -39.8438 c 4
 228.63 -31.0977 236.907 -20.0117 243.576 -7.28125 c 4
 250.244 5.44922 255.318 19.8115 258.889 34.8125 c 4
 259.131 35.832 259.348 36.8545 259.576 37.875 c 4
 262.657 51.9873 264.247 66.3174 265.139 80.625 c 5
 262.862 77.9619 259.49 74.6533 254.889 71.0625 c 4
 249.471 66.835 242.326 62.2188 233.326 58.0312 c 4
 224.325 53.8438 213.472 50.0938 200.889 47.9688 c 4
 189.305 46.0215 176.322 45.4805 162.576 47.125 c 4
 148.83 48.7695 134.313 52.5957 120.045 59.3125 c 4
 103.298 67.2344 87.2012 79.1338 73.7637 94.6562 c 4
 60.3262 110.179 49.5547 129.319 43.7324 150.906 c 4
 40.4307 163.299 38.835 176.303 39.0137 189.438 c 4
 39.2119 204.054 41.5957 218.376 45.8887 231.812 c 4
 50.1816 245.249 56.3691 257.791 64.0449 268.969 c 4
 77.1064 287.866 94.0889 302.329 111.951 312.25 c 4
 129.813 322.171 148.554 327.572 166.076 329.25 c 4
 184.515 330.969 201.223 328.646 215.201 324.625 c 4
 229.18 320.604 240.449 314.884 248.951 309.312 c 4
 257.452 303.741 263.235 298.317 266.732 294.25 c 4
 267.87 292.927 268.751 291.77 269.42 290.75 c 5
 269.437 291.15 269.466 291.604 269.482 292 c 4
 271.131 331.362 273.544 354.663 276.857 354.75 c 4
188.42 307.969 m 4
 182.187 307.863 175.739 307.279 169.139 306.094 c 4
 154.791 303.562 139.68 298.038 125.482 289.156 c 4
 111.285 280.274 98 268.049 88.1387 252.812 c 4
 82.2832 243.842 77.5693 233.76 74.2949 222.969 c 4
 71.0205 212.178 69.1895 200.655 69.0137 189 c 4
 68.8555 178.526 70.0352 168.249 72.5449 158.5 c 4
 76.8525 141.486 85.1973 125.913 95.6387 113 c 4
 106.079 100.087 118.617 89.8193 131.795 82.6875 c 4
 143.069 76.5547 154.861 72.5635 166.232 70.25 c 4
 177.604 67.9365 188.551 67.2979 198.576 67.8438 c 4
 209.468 68.4277 219.328 70.3779 227.826 72.75 c 4
 236.323 75.1221 243.475 77.9395 249.295 80.4375 c 4
 255.114 82.9355 259.607 85.1143 262.826 86.4375 c 4
 263.853 86.8594 264.745 87.1719 265.514 87.4062 c 4
 266.25 102.715 266.339 117.969 266.482 132.875 c 4
 266.907 194.26 267.754 247.365 269.264 286.312 c 5
 267.879 286.494 265.653 287.408 262.576 288.844 c 4
 257.961 290.997 251.433 294.294 242.857 297.656 c 4
 234.282 301.019 223.618 304.431 211.107 306.375 c 4
 204.07 307.469 196.434 308.104 188.42 307.969 c 4
EndSplineSet
EndChar

StartChar: i
Encoding: 105 105 34
Width: 164
VWidth: 0
Flags: W
HStem: 541.312 28.4385<61.2737 97.4208>
VStem: 28.1016 29.25<493.631 537.728> 68.1953 29.998<-0.943676 328.85> 104.441 29.3164<494.772 538.87>
LayerCount: 2
Fore
SplineSet
82.7891 569.75 m 0
 82.8838 569.749 82.9756 569.751 83.0693 569.75 c 0
 84.1104 569.758 85.1719 569.723 86.2578 569.656 c 0
 89.8672 569.424 93.6455 568.78 97.4766 567.594 c 0
 106.871 564.804 114.789 559.608 120.633 553.406 c 0
 124.981 548.761 128.101 543.645 130.191 538.625 c 0
 132.291 533.605 133.361 528.66 133.691 524.125 c 0
 133.812 522.481 133.814 520.917 133.758 519.406 c 0
 134.082 510.802 132.381 501.896 128.383 493.594 c 0
 126.694 490.123 124.646 486.812 122.258 483.75 c 0
 117.369 477.491 111.238 472.44 104.414 468.875 c 0
 96.7354 464.897 88.4863 462.98 80.4766 462.812 c 0
 79.9932 462.791 79.502 462.788 79.0078 462.781 c 0
 78.9131 462.782 78.8213 462.78 78.7266 462.781 c 0
 77.6924 462.773 76.6475 462.81 75.5703 462.875 c 0
 72.541 463.07 69.3945 463.582 66.1953 464.438 c 0
 65.5615 464.601 64.9414 464.753 64.3203 464.938 c 0
 64.2266 464.967 64.1328 465.002 64.0391 465.031 c 0
 54.7686 467.842 46.9795 472.985 41.1953 479.125 c 0
 36.8428 483.771 33.6963 488.887 31.6016 493.906 c 0
 29.5068 498.926 28.4316 503.871 28.1016 508.406 c 0
 27.9844 510.061 27.9766 511.636 28.0391 513.156 c 0
 27.7207 521.751 29.4209 530.645 33.4141 538.938 c 0
 35.0986 542.408 37.1475 545.719 39.5391 548.781 c 0
 44.4277 555.04 50.5859 560.091 57.4141 563.656 c 0
 65.5596 567.877 74.3184 569.802 82.7891 569.75 c 0
85.5078 541.312 m 0
 80.7461 541.241 75.707 539.967 71.4453 537.5 c 0
 68.3662 535.746 65.5098 533.232 63.1953 530.281 c 0
 62.0635 528.838 61.083 527.323 60.2891 525.75 c 0
 57.748 520.798 56.7695 514.919 57.3516 509.656 c 0
 57.9541 503.858 60.501 498.238 63.9453 494 c 0
 64.0459 493.875 64.1553 493.749 64.2578 493.625 c 0
 67.3984 492.308 70.8271 491.462 74.2891 491.281 c 0
 79.6191 490.971 85.4795 492.212 90.3516 495.031 c 0
 93.4307 496.785 96.3164 499.268 98.6328 502.219 c 0
 99.7646 503.662 100.745 505.208 101.539 506.781 c 0
 104.08 511.733 105.023 517.612 104.441 522.875 c 0
 103.843 528.673 101.296 534.293 97.8516 538.531 c 0
 97.7588 538.647 97.665 538.761 97.5684 538.875 c 0
 94.4238 540.198 91.0098 541.069 87.5391 541.25 c 0
 86.873 541.289 86.1875 541.322 85.5078 541.312 c 0
81.8828 329.719 m 0
 90.1621 329.785 97.4639 255.601 98.1934 164.094 c 0
 98.9277 72.5869 92.8164 -1.74609 84.5391 -1.8125 c 0
 76.2598 -1.87891 68.9268 72.3369 68.1953 163.844 c 0
 67.4629 255.351 73.6035 329.652 81.8828 329.719 c 0
EndSplineSet
EndChar

StartChar: j
Encoding: 106 106 35
Width: 328
VWidth: 0
Flags: W
HStem: -99.5 24.7812<78.8953 170.61> 309.219 20G<240.774 241.719> 539.312 28.4385<225.953 262.102>
VStem: 192.781 29.25<491.631 535.728> 238 24.0938<25.1897 305.605> 238.656 10.4053<284.409 326.864> 269.125 29.3135<492.772 536.87>
LayerCount: 2
Fore
SplineSet
247.469 567.75 m 0xf2
 247.563 567.749 247.655 567.751 247.75 567.75 c 0
 248.791 567.758 249.852 567.723 250.938 567.656 c 0
 254.548 567.424 258.326 566.78 262.156 565.594 c 0
 271.551 562.804 279.469 557.608 285.312 551.406 c 0
 289.665 546.761 292.78 541.645 294.875 536.625 c 0
 296.971 531.605 298.045 526.66 298.375 522.125 c 0
 298.491 520.481 298.498 518.917 298.438 517.406 c 0
 298.762 508.802 297.061 499.896 293.062 491.594 c 0
 291.378 488.123 289.329 484.812 286.938 481.75 c 0
 282.049 475.491 275.922 470.44 269.094 466.875 c 0
 261.417 462.897 253.167 460.98 245.156 460.812 c 0
 244.673 460.79 244.182 460.788 243.688 460.781 c 0
 243.593 460.782 243.501 460.78 243.406 460.781 c 0
 242.372 460.773 241.327 460.81 240.25 460.875 c 0
 237.221 461.07 234.074 461.582 230.875 462.438 c 0
 230.241 462.601 229.621 462.753 229 462.938 c 0
 228.906 462.967 228.812 463.002 228.719 463.031 c 0
 219.448 465.842 211.659 470.985 205.875 477.125 c 0
 201.522 481.771 198.376 486.887 196.281 491.906 c 0
 194.186 496.926 193.111 501.871 192.781 506.406 c 0
 192.664 508.061 192.656 509.636 192.719 511.156 c 0
 192.4 519.751 194.101 528.645 198.094 536.938 c 0
 199.778 540.408 201.827 543.719 204.219 546.781 c 0
 209.107 553.04 215.266 558.091 222.094 561.656 c 0
 230.239 565.877 238.998 567.802 247.469 567.75 c 0xf2
250.188 539.312 m 0
 245.426 539.241 240.387 537.967 236.125 535.5 c 0
 233.046 533.746 230.189 531.232 227.875 528.281 c 0
 226.743 526.838 225.763 525.323 224.969 523.75 c 0
 222.428 518.798 221.449 512.919 222.031 507.656 c 0
 222.634 501.858 225.181 496.238 228.625 492 c 0
 228.726 491.875 228.835 491.749 228.938 491.625 c 0
 232.078 490.308 235.507 489.462 238.969 489.281 c 0
 244.299 488.971 250.16 490.212 255.031 493.031 c 0
 258.11 494.785 260.998 497.268 263.312 500.219 c 0
 264.444 501.662 265.425 503.208 266.219 504.781 c 0
 268.76 509.733 269.707 515.612 269.125 520.875 c 0
 268.522 526.673 265.976 532.293 262.531 536.531 c 0
 262.438 536.647 262.345 536.761 262.25 536.875 c 0
 259.104 538.198 255.689 539.069 252.219 539.25 c 0
 251.553 539.289 250.868 539.322 250.188 539.312 c 0
241.688 329.219 m 2
 241.719 329.219 l 2
 243.547 329.438 246.137 322.84 249.062 310.5 c 0xf6
 251.988 298.16 255.216 280.065 257.969 257.312 c 0
 260.722 234.56 262.994 207.144 263.938 176.281 c 0
 264.88 145.419 264.47 111.124 262.094 74.7188 c 0
 260.964 56.6045 259.268 37.4326 255.156 17.875 c 0
 253.859 11.7041 252.317 5.59277 250.531 -0.46875 c 0
 246.716 -13.5723 241.392 -26.2754 234.562 -37.9062 c 0
 227.733 -49.5371 219.4 -60.1025 209.688 -69.0938 c 0
 193.653 -83.6924 174.524 -92.9541 155.469 -97.0938 c 0
 144.694 -99.4258 134.029 -100.116 123.875 -99.5 c 0
 113.721 -98.8838 104.069 -96.9844 95.2188 -94.0938 c 0
 84.2744 -90.5107 74.6309 -85.4883 66.4062 -79.8125 c 0
 58.1816 -74.1367 51.3613 -67.7979 45.875 -61.4375 c 0
 39.7822 -54.3662 35.3477 -47.29 32.125 -40.875 c 0
 28.9023 -34.46 26.8838 -28.707 25.6562 -23.9375 c 0
 24.4287 -19.168 24.001 -15.377 24 -12.7812 c 0
 23.999 -10.1855 24.4238 -8.7666 25.1875 -8.5625 c 0
 25.9502 -8.3584 27.0205 -9.38672 28.4375 -11.4375 c 0
 29.8545 -13.4883 31.6387 -16.5586 34.0312 -20.4062 c 0
 36.4238 -24.2539 39.4336 -28.8994 43.3438 -33.9062 c 0
 47.2529 -38.9131 52.0625 -44.2881 58.0312 -49.5 c 0
 63.3994 -54.1934 69.7178 -58.7471 77 -62.6875 c 0
 84.2832 -66.6279 92.5488 -69.9688 101.531 -72.0938 c 0
 108.792 -73.8174 116.562 -74.7705 124.625 -74.7188 c 0
 132.688 -74.667 141.023 -73.623 149.25 -71.375 c 0
 163.806 -67.4131 178.309 -59.5498 190.094 -48.125 c 0
 197.392 -41.2041 203.672 -32.7803 208.938 -23.25 c 0
 214.203 -13.7197 218.455 -3.09668 221.812 8.03125 c 0
 223.358 13.2305 224.701 18.5654 225.844 24.0312 c 0
 229.464 41.3545 231.139 59.2041 232.656 76.875 c 0
 235.604 112.426 237.206 145.952 238 176.219 c 0xfa
 238.794 206.485 238.812 233.508 238.688 256.094 c 0
 238.562 278.68 238.334 296.828 238.656 309.406 c 0xf6
 238.983 321.984 239.859 329.001 241.688 329.219 c 2
EndSplineSet
EndChar

StartChar: k
Encoding: 107 107 36
Width: 298
VWidth: 0
Flags: W
VStem: 45.0215 29.4375<88.0275 192.094 235.688 478.75>
LayerCount: 2
Fore
SplineSet
59.2402 566.625 m 0
 67.5205 566.649 74.5801 439.794 75.0215 283.469 c 0
 75.0674 267.152 75.0244 251.252 74.9277 235.688 c 1
 84.6025 246.725 96.2852 258.941 109.271 271.438 c 0
 149.188 309.848 186.218 336.186 191.959 330.219 c 0
 197.7 324.252 169.97 288.254 130.053 249.844 c 0
 114.262 234.648 98.9678 221.382 85.834 211.219 c 1
 108.33 191.692 138.211 162.865 169.896 129.625 c 0
 232.03 64.4414 277.608 6.90039 271.615 1.1875 c 0
 265.622 -4.52539 210.312 43.7539 148.178 108.938 c 0
 118.544 140.025 92.7588 169.276 74.459 192.094 c 1
 72.7568 80.6162 67.418 0.237305 60.834 0.21875 c 0
 52.5537 0.194336 45.4629 127.05 45.0215 283.375 c 0
 44.5801 439.7 50.96 566.602 59.2402 566.625 c 0
EndSplineSet
EndChar

StartChar: l
Encoding: 108 108 37
Width: 205
VWidth: 0
Flags: W
VStem: 45.4111 28.8145<57.8697 564.464>
LayerCount: 2
Fore
SplineSet
58.5488 565.688 m 0
 62.0488 565.577 66.1963 539.891 68.0801 497.031 c 0
 69.7363 431.514 72.4756 377.215 74.5176 320.375 c 1
 75.1494 250.677 72.3662 179.475 74.2256 110.691 c 0
 74.667 100.869 75.7363 91.5811 77.7051 82.8438 c 0
 80.9453 68.1504 86.2998 55.0479 93.6113 44.75 c 0
 97.9854 38.5957 102.995 33.2852 108.268 29.0312 c 0
 113.54 24.7773 119.058 21.5869 124.549 19.4062 c 0
 132.11 16.3154 139.705 15.1387 146.424 14.9375 c 0
 153.143 14.7373 159.037 15.5078 163.799 16.4375 c 0
 168.561 17.3672 172.237 18.4463 174.861 19.0625 c 0
 177.485 19.6787 179.064 19.8359 179.518 19.1562 c 0
 179.971 18.4766 179.283 16.9727 177.268 14.9062 c 0
 175.252 12.8398 171.887 10.2168 166.955 7.65625 c 0
 162.023 5.0957 155.472 2.60059 147.393 1.34375 c 0
 139.313 0.0869141 129.694 0.0410156 119.236 2.71875 c 0
 111.777 4.68359 104.105 7.97656 96.7051 12.6875 c 0
 89.3047 17.3984 82.1494 23.5479 75.9238 31.0625 c 0
 65.5986 43.5068 57.5674 59.25 52.8301 76.6875 c 0
 48.834 91.6152 46.1904 107.417 45.5361 123.625 c 0
 45.165 132.826 45.2158 142.151 45.4111 151.5 c 0
 45.0156 207.398 45.5879 263.314 45.2051 319.219 c 0
 44.5527 378.64 45.3174 439.284 49.5488 497.312 c 0
 52.7734 540.278 55.0488 565.798 58.5488 565.688 c 0
EndSplineSet
EndChar

StartChar: m
Encoding: 109 109 38
Width: 525
VWidth: 0
Flags: W
VStem: 44.542 22.5625<2.02108 256.548> 243.011 27.75<0.0956475 264.831> 450.573 24.375<1.98856 249.47>
LayerCount: 2
Fore
SplineSet
155.479 333.969 m 0
 161.948 333.93 168.305 333.315 174.479 332.219 c 0
 185.771 330.213 196.409 326.536 205.948 321.625 c 0
 217.313 315.755 226.979 308.212 234.792 300.031 c 0
 242.605 291.851 248.572 283.045 252.886 274.406 c 0
 254.912 270.338 256.546 266.327 257.886 262.438 c 1
 259.226 266.327 260.859 270.338 262.886 274.406 c 0
 267.199 283.045 273.166 291.851 280.979 300.031 c 0
 288.793 308.212 298.458 315.755 309.823 321.625 c 0
 319.362 326.536 330 330.213 341.292 332.219 c 0
 352.584 334.225 364.531 334.567 376.542 332.875 c 0
 377.357 332.759 378.165 332.635 378.979 332.5 c 0
 390.468 330.604 401.353 326.947 411.229 321.969 c 0
 421.106 316.99 429.972 310.674 437.542 303.531 c 0
 445.372 296.041 451.693 287.83 456.667 279.469 c 0
 461.641 271.107 465.294 262.604 467.823 254.375 c 0
 483.854 202.215 473.47 144.789 474.948 81.75 c 1
 473.252 34.2764 471.879 0.0439453 465.292 0 c 0
 458.714 -0.0439453 452.911 34.0537 450.573 81.4062 c 1
 449.933 151.08 461.463 238.937 418.511 282.406 c 0
 408.121 292.921 388.961 299.872 372.323 303.156 c 0
 363.486 304.433 354.579 304.335 346.073 303.094 c 0
 337.567 301.853 329.466 299.471 322.104 296.219 c 0
 313.32 292.356 305.457 287.224 298.761 281.5 c 0
 284.795 269.438 280.254 261.789 276.136 243.469 c 1
 270.529 230.33 269.763 102.033 270.761 76.4375 c 1
 268.801 31.6377 263.636 0.0400391 257.386 0 c 0
 251.127 -0.0410156 245.553 31.5674 243.011 76.4375 c 1
 243.513 101.791 244.259 230.11 240.948 243.469 c 0
 239.318 250.045 238.394 256.448 233.667 263.156 c 0
 229.235 269.464 223.707 275.776 217.011 281.5 c 0
 210.314 287.224 202.451 292.356 193.667 296.219 c 0
 186.306 299.471 178.204 301.853 169.698 303.094 c 0
 161.192 304.335 152.285 304.433 143.448 303.156 c 0
 127.696 300.725 110.82 295.411 97.2607 282.406 c 0
 44.7783 232.073 73.5586 148.04 67.1045 83.7188 c 1
 65.4873 35.2363 60.0625 0.0439453 53.3857 0 c 0
 46.6846 -0.0439453 46.79 35.3252 44.542 84.0625 c 1
 45.7617 133.443 38.459 199.375 47.9482 254.375 c 0
 49.4121 262.858 54.1309 271.107 59.1045 279.469 c 0
 64.0781 287.83 70.3994 296.041 78.2295 303.531 c 0
 85.7998 310.674 94.6338 316.99 104.511 321.969 c 0
 114.388 326.947 125.304 330.604 136.792 332.5 c 0
 137.606 332.635 138.414 332.759 139.229 332.875 c 0
 143.733 333.51 148.242 333.854 152.698 333.938 c 0
 153.627 333.955 154.556 333.975 155.479 333.969 c 0
EndSplineSet
EndChar

StartChar: n
Encoding: 110 110 39
Width: 394
VWidth: 0
Flags: W
VStem: 44.8027 27.7812<0.367753 215.838 254.906 352.895> 327.178 22.0312<25.9414 188.127> 327.178 7.5625<3.37595 27.0207>
LayerCount: 2
Fore
SplineSet
58.2402 353.094 m 0xa0
 64.7158 353.129 70.4287 312.16 72.834 254.906 c 1
 75.8945 260.874 79.3271 266.774 83.2402 272.531 c 0
 95.7939 291.022 113.433 307.623 135.678 318.25 c 0
 154.305 326.875 175.097 330.663 195.959 329.531 c 0
 212.363 328.642 228.325 324.759 242.896 318.406 c 0
 260.35 310.771 275.667 300.149 288.615 287.844 c 0
 301.563 275.538 312.154 261.563 320.396 247.062 c 0
 329.849 230.446 336.444 213.361 340.99 196.688 c 0
 345.536 180.014 348.036 163.727 349.209 148.438 c 0xc0
 350.806 127.858 350.23 109.066 348.834 92.3438 c 0
 347.438 75.6211 345.216 60.9844 342.959 48.625 c 0
 340.151 33.1836 337.227 21.2139 334.74 13.1562 c 0
 332.254 5.09863 330.202 0.933594 328.896 1.15625 c 0
 327.591 1.37891 327.122 5.95508 327.178 14.3125 c 0
 327.233 22.6699 327.828 34.8047 328.459 50.2188 c 0
 328.954 62.5547 329.506 76.9873 329.396 93.0938 c 0
 329.287 109.2 328.506 126.997 325.803 145.906 c 0
 323.785 159.921 320.715 174.605 316.021 189.344 c 0
 311.328 204.082 305.014 218.856 296.365 232.812 c 0
 288.862 244.904 279.595 256.522 268.678 266.594 c 0
 257.761 276.665 245.204 285.211 231.209 291 c 0
 219.694 295.782 207.049 298.767 194.24 299.531 c 0
 177.951 300.504 161.981 297.816 148.209 291.344 c 0
 131.42 283.782 117.326 270.775 106.646 256.125 c 0
 95.1074 240.271 87.6211 222.037 82.5527 204 c 0
 77.8438 187.399 75.4072 170.887 73.8652 155 c 0
 72.0967 134.653 72.5918 113.575 72.584 93.4688 c 0
 70.0625 38.8652 64.5234 0.21582 58.2402 0.25 c 0
 51.8984 0.28418 46.7041 39.6602 44.8027 95.0938 c 1
 44.5254 133.293 44.8506 166.646 44.0215 203.656 c 0
 43.5811 286.094 49.96 353.05 58.2402 353.094 c 0xa0
EndSplineSet
EndChar

StartChar: o
Encoding: 111 111 40
Width: 404
VWidth: 0
Flags: W
HStem: 5.96875 28.625<129.511 268.849> 299.25 30<136.788 261.163>
VStem: 39.1611 21.1875<116.258 212.71> 337.384 21.375<116.679 212.289>
LayerCount: 2
Fore
SplineSet
197.067 329.25 m 4
 198.057 329.259 199.054 329.26 200.036 329.25 c 4
 215.784 329.099 231.243 326.695 245.817 322.312 c 4
 260.396 317.93 274.07 311.589 286.384 303.656 c 4
 307.896 289.711 324.663 271.279 336.442 251.688 c 4
 348.226 232.096 355.026 211.343 357.661 191.812 c 4
 358.929 182.29 359.188 173.135 358.759 164.469 c 4
 359.188 155.803 358.929 146.679 357.661 137.156 c 4
 355.026 117.626 348.226 96.873 336.442 77.2812 c 4
 324.663 57.6895 307.896 39.2578 286.384 25.3125 c 4
 274.07 17.3799 260.396 11.0391 245.817 6.65625 c 4
 231.243 2.27344 215.784 -0.129883 200.036 -0.28125 c 4
 184.249 -0.432617 168.661 1.69922 153.911 5.96875 c 4
 129.898 12.9893 108.712 25.4619 91.6299 40.7812 c 4
 74.5479 56.1006 61.5752 74.2539 53.0049 93 c 4
 45.9502 108.497 41.8936 124.181 40.0986 139.031 c 4
 39.0312 147.863 38.7939 156.396 39.1611 164.5 c 4
 38.7959 172.595 39.0322 181.117 40.0986 189.938 c 4
 41.8936 204.788 45.9502 220.472 53.0049 235.969 c 4
 61.5752 254.715 74.5479 272.868 91.6299 288.188 c 4
 108.712 303.507 129.898 315.979 153.911 323 c 4
 167.739 327.003 182.293 329.124 197.067 329.25 c 4
199.728 299.25 m 4
 186.771 299.39 174.032 297.729 162.067 294.375 c 4
 142.559 288.977 124.869 279.062 110.286 266.781 c 4
 95.7031 254.501 84.25 239.872 76.3486 224.656 c 4
 69.7627 212.028 65.458 198.934 62.9736 186.344 c 4
 61.4932 178.841 60.6641 171.54 60.3486 164.5 c 4
 60.6631 157.45 61.4912 150.107 62.9736 142.594 c 4
 65.458 130.004 69.7627 116.94 76.3486 104.312 c 4
 84.25 89.0967 95.7031 74.4678 110.286 62.1875 c 4
 124.869 49.9072 142.559 39.9922 162.067 34.5938 c 4
 174.032 31.2402 186.771 29.5791 199.728 29.7188 c 4
 212.646 29.8584 225.396 31.7705 237.411 35.2188 c 4
 249.434 38.667 260.74 43.6289 270.884 49.875 c 4
 288.669 60.7539 303.099 75.6152 313.728 91.5938 c 4
 324.354 107.572 331.188 124.688 334.567 141.031 c 4
 336.25 149.057 337.104 156.904 337.384 164.469 c 4
 337.104 172.037 336.251 179.906 334.567 187.938 c 4
 331.188 204.28 324.354 221.396 313.728 237.375 c 4
 303.099 253.354 288.669 268.184 270.884 279.062 c 4
 260.74 285.309 249.434 290.302 237.411 293.75 c 4
 225.396 297.198 212.646 299.111 199.728 299.25 c 4
EndSplineSet
EndChar

StartChar: p
Encoding: 112 112 41
Width: 378
VWidth: 0
Flags: W
HStem: 305.312 21.5322<114.32 215.321>
VStem: 44.0215 30<-146.223 36.0625 40.1686 238.234> 304.053 30.0312<100.693 227.141>
LayerCount: 2
Fore
SplineSet
58.209 331.969 m 0
 61.2715 331.978 64.1875 314.443 66.6465 284.375 c 1
 68.1152 285.998 69.8379 287.74 71.8027 289.594 c 0
 76.6611 294.177 83.0742 299.366 91.2715 304.5 c 0
 99.4688 309.634 109.445 314.712 121.178 318.812 c 0
 131.833 322.552 143.978 325.483 157.303 326.844 c 0
 170.632 328.204 185.159 327.979 200.303 325.281 c 0
 222.47 321.271 245.533 311.978 266.428 296.812 c 0
 287.322 281.647 306.018 260.609 318.396 234.688 c 0
 328.614 213.104 334.137 188.674 334.084 163.656 c 0
 334.025 135.521 326.91 108.202 314.178 84.8125 c 0
 300.284 59.501 280.34 39.5732 258.615 25.6562 c 0
 236.895 11.7393 213.423 3.80566 191.271 1.09375 c 0
 168.106 -1.6748 146.914 1.1377 129.24 6.28125 c 0
 111.566 11.4258 97.3672 18.9033 86.709 26.1875 c 0
 81.7402 29.584 77.5469 32.9219 74.0215 36.0625 c 1
 74.1709 -117.117 67.9053 -239.883 59.8027 -239.906 c 0
 51.5225 -239.93 44.4629 -111.845 44.0215 46 c 0
 43.5801 203.845 49.9287 331.945 58.209 331.969 c 0
163.084 305.344 m 0
 161.604 305.355 160.134 305.344 158.678 305.312 c 0
 147.028 305.062 136.163 303.49 126.365 301.219 c 0
 115.586 298.704 106.07 295.322 97.959 291.844 c 0
 89.8496 288.365 83.1182 284.777 77.6777 281.688 c 0
 73.4561 279.289 70.0312 277.198 67.3027 275.625 c 1
 71.0947 223.912 73.7246 141.337 74.0215 48.25 c 1
 79.1006 45.2607 85.4922 41.6133 93.4277 37.9375 c 0
 104.164 32.9648 117.716 27.9404 133.74 24.9688 c 0
 149.769 21.9971 168.32 21.0977 187.709 24.75 c 0
 206.271 28.1797 225.687 35.9238 243.49 48.3438 c 0
 261.298 60.7637 277.485 77.8516 288.334 98.6875 c 0
 298.423 117.861 303.996 140.455 304.053 163.719 c 0
 304.104 184.404 299.771 204.576 291.678 222.219 c 0
 282.034 243.484 266.903 261.379 249.834 274.75 c 0
 232.769 288.121 213.789 296.963 195.334 301.406 c 0
 184.329 304.094 173.438 305.265 163.084 305.344 c 0
EndSplineSet
EndChar

StartChar: q
Encoding: 113 113 42
Width: 378
VWidth: 0
Flags: W
HStem: 305.25 21.5312<156.786 257.786>
VStem: 38 30.0312<100.603 227.078> 298.098 30<-146.316 36 40.1061 238.154>
LayerCount: 2
Fore
SplineSet
313.875 331.906 m 0
 322.155 331.882 328.535 203.751 328.098 45.9062 c 0
 327.652 -111.938 320.562 -240.023 312.281 -240 c 0
 304.183 -239.977 297.945 -117.18 298.098 36 c 1
 294.567 32.8574 290.377 29.4912 285.406 26.0938 c 0
 274.748 18.8096 260.553 11.332 242.875 6.1875 c 0
 225.201 1.04297 204.013 -1.7373 180.848 1.03125 c 0
 158.692 3.74316 135.229 11.6455 113.5 25.5625 c 0
 91.7754 39.4795 71.7998 59.4072 57.9062 84.7188 c 0
 45.1738 108.108 38.0586 135.458 38 163.594 c 0
 37.9473 188.611 43.4697 213.041 53.6875 234.625 c 0
 66.0703 260.547 84.793 281.554 105.688 296.719 c 0
 126.582 311.884 149.646 321.208 171.812 325.219 c 0
 186.956 327.916 201.483 328.142 214.812 326.781 c 0
 228.146 325.421 240.251 322.458 250.906 318.719 c 0
 262.643 314.618 272.615 309.571 280.812 304.438 c 0
 289.014 299.304 295.454 294.083 300.312 289.5 c 0
 302.289 287.635 303.994 285.881 305.473 284.25 c 1
 307.932 314.338 310.812 331.915 313.875 331.906 c 0
209.031 305.25 m 0
 198.682 305.171 187.786 304.031 176.781 301.344 c 0
 158.326 296.9 139.319 288.027 122.25 274.656 c 0
 105.185 261.285 90.0518 243.422 80.4062 222.156 c 0
 72.3135 204.514 67.9814 184.342 68.0312 163.656 c 0
 68.0879 140.393 73.6924 117.768 83.7812 98.5938 c 0
 94.6318 77.7578 110.817 60.6699 128.625 48.25 c 0
 146.437 35.8301 165.853 28.0859 184.406 24.6562 c 0
 203.795 21.0039 222.354 21.9346 238.375 24.9062 c 0
 254.399 27.8779 267.92 32.9023 278.656 37.875 c 0
 286.597 41.5508 293.02 45.1982 298.098 48.1875 c 1
 298.395 141.293 300.988 223.853 304.781 275.562 c 1
 302.062 277.133 298.644 279.207 294.438 281.594 c 0
 288.997 284.684 282.236 288.303 274.125 291.781 c 0
 266.018 295.26 256.529 298.61 245.75 301.125 c 0
 235.952 303.396 225.06 304.968 213.406 305.219 c 0
 211.95 305.25 210.515 305.262 209.031 305.25 c 0
EndSplineSet
EndChar

StartChar: r
Encoding: 114 114 43
Width: 317
VWidth: 0
Flags: W
VStem: 44.3184 30<4.17186 256.938 273.003 349.586> 257.506 9.84375<202.793 228.478>
LayerCount: 2
Fore
SplineSet
62.4121 354.065 m 0
 67.6826 353.974 71.7734 321.665 73.5996 273.003 c 1
 74.4365 274.623 75.3213 276.242 76.2871 277.878 c 0
 81.0518 285.921 87.4082 294.047 95.4746 301.409 c 0
 103.542 308.771 113.308 315.378 124.568 320.315 c 0
 139.996 327.058 157.996 330.474 176.443 329.097 c 0
 180.831 328.77 185.157 328.187 189.412 327.347 c 0
 201.018 325.041 211.859 320.895 221.475 315.503 c 0
 231.091 310.112 239.491 303.472 246.475 296.19 c 0
 255.413 286.952 261.899 276.565 266.1 266.44 c 0
 270.3 256.315 272.21 246.449 272.537 237.784 c 0
 272.739 231.577 272.157 226.06 271.162 221.378 c 0
 270.168 216.697 268.767 212.867 267.35 209.878 c 0
 265.933 206.89 264.501 204.756 263.225 203.44 c 0
 261.949 202.126 260.842 201.627 260.006 201.909 c 0
 258.336 202.475 257.913 206.047 257.506 211.878 c 0
 257.1 217.709 256.645 225.907 254.068 235.253 c 0
 252.317 241.776 249.434 248.876 245.068 256.003 c 0
 240.704 263.131 234.856 270.31 227.631 276.69 c 0
 221.895 281.702 215.215 286.205 207.818 289.878 c 0
 200.423 293.551 192.283 296.377 183.756 297.94 c 0
 180.632 298.52 177.463 298.951 174.225 299.19 c 0
 160.61 300.199 147.182 298.053 135.475 293.69 c 0
 126.92 290.519 119.137 286.129 112.381 281.128 c 0
 105.626 276.128 99.9014 270.53 95.1934 264.847 c 0
 90.2129 258.849 86.3291 252.698 83.2559 247.003 c 0
 80.1836 241.309 77.915 236.053 76.0996 231.628 c 0
 75.5303 230.238 75.0615 229.097 74.5684 227.878 c 0
 74.7002 211.642 74.6299 194.45 74.3184 176.628 c 0
 72.6113 78.8223 64.5039 -0.454102 56.2246 -0.30957 c 0
 47.9463 -0.165039 42.6113 79.3535 44.3184 177.159 c 0
 46.0264 274.965 54.1338 354.21 62.4121 354.065 c 0
EndSplineSet
EndChar

StartChar: s
Encoding: 115 115 44
Width: 305
VWidth: 0
Flags: W
HStem: 0.0390625 23.4258<105.237 199.673> 146.913 29.957<82.0933 217.505>
VStem: 39.5283 28.248<191.963 269.3>
LayerCount: 2
Fore
SplineSet
262.652 250.672 m 0
 261.769 250.324 260.043 252.372 257.203 256.239 c 0
 254.364 260.107 250.361 265.805 244.444 272.365 c 0
 238.526 278.926 230.646 286.371 220.312 293.099 c 0
 209.979 299.826 197.149 305.857 182.309 308.628 c 0
 168.669 311.234 153.19 311.009 137.543 306.956 c 0
 121.896 302.903 106.069 295.019 93.3018 282.828 c 0
 86.3408 276.097 80.1211 268.073 75.5342 259.224 c 0
 70.9482 250.373 67.9961 240.698 67.7764 230.838 c 0
 67.4492 221.594 69.1797 212.076 73.2998 203.879 c 0
 77.2539 195.98 83.4121 188.904 90.9209 184.514 c 0
 97.5166 180.417 106.004 178.25 115.138 177.09 c 0
 124.129 176.012 133.963 176.387 144.505 176.87 c 0
 147.316 177.072 150.196 177.27 153.142 177.435 c 0
 172.334 178.514 193.515 178.09 214.058 169.798 c 0
 226.497 164.26 237 155.809 245.02 145.684 c 0
 253.031 135.559 258.562 123.764 261.194 111.402 c 0
 263.916 98.252 263.443 85.04 260.448 72.7666 c 0
 257.454 60.4932 251.939 49.1582 244.544 39.5332 c 0
 234.315 26.2988 221.229 16.5986 207.443 10.3105 c 0
 192.591 3.53809 177.237 0.505859 162.763 0.0390625 c 0
 145.952 -0.525391 130.229 2.28223 116.424 7.06055 c 0
 102.621 11.8398 90.7334 18.5859 80.9727 26.0986 c 0
 70.1738 34.4287 62.0527 43.5879 56.0303 52.1924 c 0
 50.0078 60.7959 46.0674 68.8564 43.4932 75.5859 c 0
 40.9189 82.3145 39.6943 87.7236 39.2275 91.4404 c 0
 38.7607 95.1572 39.0371 97.1914 39.8213 97.4238 c 0
 40.6055 97.6562 41.8691 96.085 43.7646 93.0215 c 0
 45.6602 89.958 48.2051 85.3965 51.8555 79.8115 c 0
 55.5049 74.2266 60.2773 67.6064 66.6699 60.7188 c 0
 73.0625 53.8301 81.0908 46.6631 91.0352 40.4551 c 0
 100.013 34.8379 110.606 29.9971 122.526 26.8398 c 0
 134.445 23.6826 147.693 22.208 161.358 23.4648 c 0
 173.179 24.5703 185.318 27.5703 196.354 33.29 c 0
 206.554 38.5752 216.032 46.1309 222.812 55.7246 c 0
 227.662 62.5361 231.246 70.6123 233.114 79.1533 c 0
 234.983 87.6953 235.142 96.7012 233.064 105.161 c 0
 231.211 113.04 227.366 120.759 222.043 127.334 c 0
 216.723 133.909 209.917 139.34 202.257 142.485 c 0
 189.624 148.522 173.062 147.912 154.568 147.208 c 0
 151.736 147.1 148.873 146.993 145.989 146.913 c 0
 135.101 146.335 123.576 146.062 111.668 147.425 c 0
 99.4453 148.761 86.958 152.435 75.5898 159.229 c 0
 62.8438 167.118 53.126 178.484 47.124 191.297 c 0
 40.9521 204.512 38.6064 218.748 39.5283 232.38 c 0
 40.6406 246.91 45.0312 260.322 51.4619 272.088 c 0
 57.8926 283.854 66.3613 293.972 75.8252 302.117 c 0
 92.9814 317.038 113.028 325.837 132.436 329.671 c 0
 151.835 333.506 170.604 332.389 186.852 327.982 c 0
 204.5 323.125 218.751 314.656 229.623 305.65 c 0
 240.495 296.645 248.035 287.086 253.128 278.808 c 0
 258.225 270.528 260.916 263.507 262.236 258.634 c 0
 263.56 253.761 263.539 251.02 262.652 250.672 c 0
EndSplineSet
EndChar

StartChar: t
Encoding: 116 116 45
Width: 441
VWidth: 0
Flags: W
HStem: 303.125 29.7188<28.4159 163.906 193.094 406.311>
VStem: 165.719 20.875<335.188 567.6> 166.969 30<107.888 303.125 332.844 529.359>
LayerCount: 2
Fore
SplineSet
176.469 567.719 m 0xc0
 178.497 567.697 180.315 557.887 181.969 540.156 c 0
 183.622 522.426 185.113 496.765 186.594 465.031 c 0xc0
 188.305 428.349 190.064 382.931 191.969 332.844 c 1
 200.624 332.803 209.396 332.731 218.375 332.594 c 0
 324.992 330.958 411.439 322.904 411.312 314.625 c 0
 411.188 306.346 324.523 300.958 217.906 302.594 c 0
 209.478 302.723 201.241 302.918 193.094 303.125 c 1
 194.154 275.258 195.264 246.522 196.469 216.375 c 0
 196.635 212.381 196.791 208.401 196.969 204.406 c 0
 197.968 181.877 199.366 160.388 203.188 140.344 c 0
 205.646 127.654 208.964 115.425 213.312 104.156 c 0
 217.661 92.8877 223.062 82.5664 229.594 73.5 c 0
 240.13 58.6152 253.814 46.8809 268.188 38.4688 c 0
 282.562 30.0566 297.622 24.9658 311.844 22.6875 c 0
 327.098 20.207 341.49 20.8633 353.938 22.9062 c 0
 366.385 24.9492 376.901 28.374 385.344 31.7188 c 0
 393.786 35.0635 400.174 38.3193 404.656 40.4375 c 0
 409.139 42.5557 411.761 43.5205 412.438 42.7188 c 0
 413.114 41.917 411.802 39.4033 408.312 35.5625 c 0
 404.823 31.7217 399.122 26.5586 390.781 21.2188 c 0
 382.44 15.8789 371.421 10.3525 357.719 6.375 c 0
 344.019 2.39746 327.586 -0.0146484 309.344 1.40625 c 0
 292.345 2.76465 274.048 7.53125 256.281 16.625 c 0
 238.514 25.7188 221.28 39.1533 207.469 57.125 c 0
 199.165 68.0801 192.243 80.293 186.719 93.375 c 0
 181.193 106.457 177.078 120.412 174.25 134.656 c 0
 169.743 157.035 167.963 180.083 166.969 203.094 c 0xa0
 166.792 207.175 166.646 211.205 166.5 215.219 c 0
 165.355 245.924 164.624 275.68 164.219 304.031 c 1
 83.7568 307.075 24.8955 313.731 25 320.562 c 0
 25.1045 327.371 83.7842 332.213 163.906 332.812 c 1
 163.574 383.116 164.312 428.144 165.719 464.938 c 0
 166.939 496.774 168.653 522.482 170.531 540.219 c 0
 172.409 557.955 174.44 567.739 176.469 567.719 c 0xc0
EndSplineSet
EndChar

StartChar: u
Encoding: 117 117 46
Width: 394
VWidth: 0
Flags: W
HStem: 1.65625 30<136.648 252.643>
VStem: 41.6201 21.8438<124.504 303.183> 322.37 21.6875<124.311 323.615>
LayerCount: 2
Fore
SplineSet
61.1514 330 m 0
 61.2207 330.014 61.2725 330.009 61.3389 330 c 0
 63.4736 329.707 63.7324 317.762 63.4326 296.562 c 0
 63.1318 275.363 62.3613 244.866 63.4639 207.5 c 0
 64.0762 190.574 64.9648 172.156 67.8389 153.438 c 0
 70.7119 134.719 75.5801 115.713 85.2451 98.25 c 0
 94.8516 80.3584 109.321 63.8184 127.558 51.875 c 0
 144.611 40.6865 165.175 33.3818 186.526 31.9062 c 0
 188.412 31.7744 190.314 31.6973 192.214 31.6562 c 0
 211.619 31.2324 230.812 35.5703 247.433 43.6875 c 0
 266.833 53.1377 283.043 67.7959 294.089 84.5938 c 0
 305.707 101.994 312.034 122.253 315.933 141.844 c 0
 318.145 153.097 319.469 164.231 320.401 175.094 c 0
 321.333 185.956 321.854 196.533 322.37 206.656 c 0
 324.197 243.468 325.245 273.412 326.464 294.188 c 0
 327.683 314.963 329.117 326.591 331.245 326.688 c 0
 333.372 326.784 336.01 315.349 338.464 294.562 c 0
 340.918 273.776 343.158 243.606 344.058 206.375 c 0
 344.317 196.134 344.473 185.271 344.151 173.781 c 0
 344.063 170.646 343.946 167.442 343.776 164.219 c 1
 343.901 164.25 l 1
 344.234 73.7646 337.868 0.602539 329.651 0.5625 c 0
 324.681 0.538086 320.132 27.3408 317.214 68.5312 c 1
 303.969 47.5312 284.521 29.208 260.589 17.1562 c 0
 239.765 6.68945 215.908 1.11914 191.558 1.65625 c 0
 189.174 1.70898 186.804 1.83105 184.433 2 c 0
 157.603 3.92773 132.225 13.1787 111.214 27.4375 c 0
 88.7803 42.6826 71.6025 63.2832 60.5576 85.5312 c 0
 49.9961 107.38 45.1182 129.402 42.8076 150.125 c 0
 40.4971 170.848 40.7627 190.286 41.6201 207.656 c 0
 43.2617 245.874 47.3877 276.688 51.4014 297.781 c 0
 53.4082 308.328 55.3994 316.453 57.1201 321.906 c 0
 58.7324 327.019 60.1055 329.795 61.1514 330 c 0
EndSplineSet
EndChar

StartChar: v
Encoding: 118 118 47
Width: 410
VWidth: 0
Flags: W
HStem: 0.4375 328.001
LayerCount: 2
Fore
SplineSet
32.4102 328.438 m 0
 40.7646 329.943 84.502 260.304 131.129 171.125 c 0
 167.723 101.135 195.424 39.5088 202.754 13.3125 c 1
 210.087 39.5137 237.757 101.142 274.348 171.125 c 0
 321.715 261.72 366.104 332.149 373.438 328.312 c 0
 380.775 324.476 348.309 247.813 300.938 157.219 c 0
 257.146 73.4551 215.87 6.95801 204.098 0.4375 c 0
 203.971 0.273438 203.829 0.150391 203.656 0.0625 c 0
 203.403 -0.0693359 203.094 -0.104492 202.754 -0.0625 c 0
 202.398 -0.110352 202.072 -0.0732422 201.812 0.0625 c 0
 201.648 0.148438 201.53 0.280273 201.406 0.4375 c 0
 189.693 6.81445 148.387 73.3486 104.531 157.219 c 0
 57.168 247.813 24.6973 324.476 32.0352 328.312 c 0
 32.1494 328.372 32.2773 328.414 32.4102 328.438 c 0
EndSplineSet
EndChar

StartChar: w
Encoding: 119 119 48
Width: 574
VWidth: 0
Flags: W
HStem: 2.5625 326.594
VStem: 40.083 27.6875<98.3563 318.679> 53.9893 7.90625<297.384 328.912> 499.521 27.6865<98.3563 319.081>
LayerCount: 2
Fore
SplineSet
57.2393 329.156 m 0xb0
 58.6084 329.271 60.25 326.068 61.8955 319.875 c 0xb0
 63.541 313.682 65.1875 304.496 66.2705 292.688 c 0
 67.2734 281.695 67.751 268.487 67.708 253.594 c 0
 67.665 238.7 67.0928 222.119 66.8955 204.375 c 0
 66.791 191.454 66.8516 177.855 67.7705 163.938 c 0
 68.6885 150.02 70.4697 135.79 73.9893 121.656 c 0
 78.2119 104.911 84.7305 87.9736 94.4268 73.1875 c 0
 99.2568 65.8223 104.771 59.2109 110.927 53.5 c 0
 120.407 44.5781 131.229 37.667 142.489 33.5625 c 0
 154.529 29.1689 167.176 27.7021 178.677 29.25 c 0
 185.847 30.1006 192.787 32.1895 199.396 34.9688 c 0
 206.004 37.748 212.296 41.2119 218.146 44.9062 c 0
 230.416 52.7744 240.496 61.8457 248.614 70.6562 c 0
 256.732 79.4668 262.879 88.0176 267.646 95.3125 c 0
 272.412 102.607 275.8 108.661 278.364 112.75 c 0
 280.607 116.328 282.247 118.41 283.396 118.656 c 0
 283.562 118.691 283.72 118.697 283.864 118.656 c 0
 283.876 118.654 283.884 118.658 283.896 118.656 c 0
 283.958 118.636 284.024 118.598 284.083 118.562 c 0
 285.22 118.148 286.8 116.142 288.927 112.75 c 0
 291.491 108.661 294.879 102.607 299.646 95.3125 c 0
 304.412 88.0176 310.59 79.4668 318.708 70.6562 c 0
 326.826 61.8457 336.906 52.7744 349.177 44.9062 c 0
 355.026 41.2119 361.287 37.748 367.896 34.9688 c 0
 374.504 32.1895 381.444 30.1006 388.614 29.25 c 0
 400.115 27.7021 412.762 29.1689 424.802 33.5625 c 0
 436.064 37.667 446.915 44.5781 456.396 53.5 c 0
 462.553 59.2109 468.034 65.8223 472.864 73.1875 c 0
 482.562 87.9736 489.11 104.911 493.333 121.656 c 0
 496.854 135.79 498.604 150.02 499.521 163.938 c 0
 500.438 177.855 500.531 191.454 500.427 204.375 c 0
 500.229 222.119 499.657 238.7 499.614 253.594 c 0
 499.571 268.487 500.018 281.695 501.021 292.688 c 0
 502.104 304.496 503.75 313.682 505.396 319.875 c 0
 507.041 326.068 508.683 329.271 510.052 329.156 c 0
 511.421 329.042 512.447 325.606 513.333 319.375 c 0
 514.219 313.144 514.982 304.112 516.114 292.719 c 0
 517.163 282.106 518.587 269.408 520.333 254.844 c 0
 522.079 240.278 524.173 223.829 525.677 205.562 c 0
 526.812 192.249 527.554 177.892 527.208 162.719 c 0
 526.862 147.546 525.397 131.549 521.864 115.062 c 0
 517.691 95.3584 510.04 75.082 497.833 56.7188 c 0
 491.753 47.5723 484.691 39.1475 476.739 31.6875 c 0
 464.323 20.1699 449.751 11.4619 434.302 6.28125 c 0
 417.707 0.72168 400.306 -0.384766 384.271 2.5625 c 0
 374.354 4.50098 365.335 7.78613 357.208 11.8125 c 0
 349.081 15.8389 341.847 20.5889 335.458 25.5938 c 0
 321.938 36.0596 311.565 47.7197 303.833 58.8125 c 0
 296.103 69.9053 290.987 80.4482 287.677 89.3438 c 0
 285.815 94.3457 284.549 98.7979 283.677 102.656 c 1
 282.805 98.7969 281.508 94.3486 279.646 89.3438 c 0
 276.335 80.4482 271.222 69.9053 263.489 58.8125 c 0
 255.757 47.7197 245.356 36.0596 231.833 25.5938 c 0
 225.444 20.5889 218.241 15.8389 210.114 11.8125 c 0
 201.987 7.78613 192.938 4.50098 183.021 2.5625 c 0
 166.985 -0.384766 149.615 0.72168 133.021 6.28125 c 0
 117.571 11.4619 102.968 20.1699 90.5518 31.6875 c 0
 82.5996 39.1475 75.5693 47.5723 69.4893 56.7188 c 0
 57.2822 75.082 49.5996 95.3584 45.4268 115.062 c 0
 41.8936 131.549 40.4287 147.546 40.083 162.719 c 0xd0
 39.7373 177.892 40.5117 192.249 41.6455 205.562 c 0
 43.1484 223.829 45.2119 240.278 46.958 254.844 c 0
 48.7041 269.408 50.1592 282.106 51.208 292.719 c 0
 52.3398 304.112 53.1035 313.144 53.9893 319.375 c 0
 54.875 325.606 55.8701 329.042 57.2393 329.156 c 0xb0
EndSplineSet
EndChar

StartChar: x
Encoding: 120 120 49
Width: 363
VWidth: 0
Flags: W
HStem: 1 328.969
VStem: 30.4219 301.5
LayerCount: 2
Fore
SplineSet
35.4531 329.969 m 0
 44.7588 330.827 107.346 270.6 181.172 189.938 c 1
 257.516 273.349 321.834 334.908 327.641 329.656 c 0
 333.498 324.358 277.684 253.018 201.328 167.719 c 1
 279.852 80.3389 337.888 6.39551 331.922 1 c 0
 326.007 -4.34863 259.366 59.6406 181.172 145.406 c 1
 102.978 59.6406 36.3369 -4.34863 30.4219 1 c 0
 24.4551 6.39551 82.4609 80.3389 160.984 167.719 c 1
 84.6357 253.012 28.8457 324.359 34.7031 329.656 c 0
 34.8955 329.83 35.1348 329.939 35.4531 329.969 c 0
EndSplineSet
EndChar

StartChar: y
Encoding: 121 121 50
Width: 327
VWidth: 0
Flags: W
HStem: -88.9912 24.915<92.4459 184.755> 127.88 28.4355<101.921 215.354>
VStem: 252.771 10.3682<288.4 328.75> 253.142 25.1387<38.6023 171.303 197.67 301.559>
LayerCount: 2
Fore
SplineSet
255.687 331.234 m 0xe0
 257.505 331.469 260.146 325.062 263.139 313.027 c 0xe0
 266.129 300.992 269.441 283.323 272.262 261.077 c 0
 275.079 238.831 277.379 211.974 278.28 181.752 c 0
 279.187 151.531 278.631 117.947 276.062 82.2832 c 0
 274.733 63.874 272.793 44.377 268.241 24.5039 c 0
 267.021 19.1895 265.627 13.9141 264.045 8.68359 c 0
 260.177 -4.10645 254.896 -16.5078 248.15 -27.8721 c 0
 241.41 -39.2373 233.229 -49.5703 223.714 -58.3975 c 0
 207.757 -72.9648 188.704 -82.2617 169.72 -86.457 c 0
 158.986 -88.8203 148.354 -89.5566 138.229 -88.9912 c 0
 128.104 -88.4258 118.486 -86.5576 109.646 -83.7256 c 0
 98.7217 -80.2178 89.0723 -75.2764 80.8359 -69.6768 c 0
 72.5977 -64.0762 65.7646 -57.8164 60.2451 -51.5176 c 0
 54.1182 -44.5205 49.6309 -37.5205 46.3623 -31.1543 c 0
 43.0947 -24.7881 41.0391 -19.0488 39.7734 -14.3047 c 0
 38.5068 -9.56055 38.0234 -5.80566 38.001 -3.21582 c 0
 37.9805 -0.625977 38.4141 0.801758 39.1797 1.01562 c 0
 39.9453 1.22852 41.0146 0.222656 42.4561 -1.80469 c 0
 43.8965 -3.83105 45.7158 -6.87988 48.1455 -10.6875 c 0
 50.5742 -14.4941 53.6191 -19.0635 57.5654 -24.0117 c 0
 61.5117 -28.959 66.3652 -34.2881 72.3545 -39.4268 c 0
 77.7461 -44.0527 84.0859 -48.5391 91.3701 -52.4092 c 0
 98.6514 -56.2793 106.889 -59.5312 115.846 -61.5957 c 0
 123.092 -63.2656 130.854 -64.166 138.885 -64.0762 c 0
 146.916 -63.9854 155.214 -62.9023 163.396 -60.6396 c 0
 177.888 -56.6348 192.312 -48.8047 204.043 -37.415 c 0
 211.188 -30.623 217.35 -22.376 222.555 -13.0742 c 0
 227.759 -3.77148 232.01 6.58594 235.391 17.4404 c 0
 236.767 21.917 237.976 26.501 239.045 31.1826 c 0
 243.044 48.6904 244.972 66.8027 246.673 84.7109 c 0
 249.495 115.395 251.178 144.535 252.106 171.303 c 1
 248.754 166.506 244.932 161.823 240.627 157.355 c 0
 230.023 146.356 216.491 136.668 200.475 130.192 c 0
 188.277 125.298 174.874 122.364 160.981 121.848 c 0
 147.098 121.332 132.729 123.238 118.857 127.88 c 0
 117.371 128.378 115.893 128.906 114.428 129.464 c 0
 99.8955 135.03 86.9541 143.344 76.2041 153.332 c 0
 65.4551 163.32 56.9004 174.976 50.8027 187.305 c 0
 43.5615 202.028 39.9463 217.373 39.1172 231.827 c 0
 38.2881 246.281 40.2354 259.842 43.9023 271.663 c 0
 47.8311 284.246 53.6074 294.694 59.6943 302.978 c 0
 65.7822 311.261 72.1797 317.4 77.8232 321.779 c 0
 83.4668 326.157 88.3574 328.797 91.8926 330.166 c 0
 95.4258 331.535 97.6016 331.653 98.2158 330.741 c 0
 98.8291 329.83 97.8604 327.936 95.7451 325.05 c 0
 93.6289 322.165 90.3643 318.266 86.6045 313.113 c 0
 82.8477 307.961 78.5889 301.532 74.7148 293.696 c 0
 70.8408 285.859 67.3594 276.597 65.4121 266.18 c 0
 63.583 256.398 63.1133 245.501 64.6621 234.185 c 0
 66.21 222.867 69.7812 211.144 75.8008 200.279 c 0
 80.8457 191.172 87.6875 182.548 96.0508 175.15 c 0
 104.414 167.753 114.282 161.593 125.098 157.497 c 0
 126.188 157.084 127.286 156.688 128.396 156.315 c 0
 138.732 152.84 149.596 151.301 160.15 151.471 c 0
 170.713 151.641 180.959 153.535 190.3 156.844 c 0
 202.563 161.189 213.478 168.062 222.421 176.071 c 0
 231.361 184.082 238.335 193.215 243.358 202.393 c 0
 248.088 211.024 251.167 219.771 253.142 227.903 c 1xd0
 253.179 239.313 253.122 249.97 253.037 259.771 c 0
 252.845 281.832 252.521 299.569 252.771 311.859 c 0
 253.021 324.15 253.868 330.999 255.687 331.234 c 0xe0
EndSplineSet
EndChar

StartChar: z
Encoding: 122 122 51
Width: 364
VWidth: 0
Flags: W
HStem: 1.375 30<46.3307 327.487> 300.812 30<32.2978 311.259>
VStem: 31.4238 296.938
LayerCount: 2
Fore
SplineSet
194.986 330.875 m 0
 269.807 330.76 328.294 324.887 328.361 317.125 c 0
 328.362 316.966 328.346 316.814 328.299 316.656 c 0
 328.486 305.722 268.681 235.904 190.361 155.969 c 0
 127.347 91.6553 70.6631 39.4941 45.2051 21.5312 c 1
 68.7852 26.8584 120.136 30.8555 179.705 31.375 c 0
 261.635 32.0898 328.195 25.9668 328.268 17.6875 c 0
 328.338 9.4082 261.885 2.08984 179.955 1.375 c 0
 98.0254 0.660156 31.4961 6.81445 31.4238 15.0938 c 0
 31.4238 15.1045 31.4238 15.1143 31.4238 15.125 c 0
 31.4131 15.1348 31.4033 15.1455 31.3926 15.1562 c 0
 25.4785 20.9512 87.0869 93.4434 168.924 176.969 c 0
 230.586 239.902 286.211 291.214 312.424 310.219 c 1
 287.973 305.124 237.909 301.317 180.08 300.812 c 0
 98.1514 300.098 31.5898 306.252 31.5176 314.531 c 0
 31.4473 322.811 97.8691 330.098 179.799 330.812 c 0
 184.92 330.857 189.998 330.883 194.986 330.875 c 0
EndSplineSet
EndChar

StartChar: dollar
Encoding: 36 36 52
Width: 316
VWidth: 0
Flags: W
HStem: 273.75 30.1885<86.8957 142.428 172.362 225.618>
VStem: 35.0527 27.8438<329.725 416.826> 145.612 23.4404<110.094 273.469 304.031 462.219>
LayerCount: 2
Fore
SplineSet
157.553 568.094 m 0
 161.712 568.091 165.457 536.054 168.146 484.406 c 1
 177.009 483.734 185.442 482.147 193.237 479.875 c 0
 209.725 475.027 223.134 467.283 233.553 459.125 c 0
 243.972 450.967 251.43 442.409 256.646 434.969 c 0
 261.86 427.528 264.878 421.176 266.487 416.75 c 0
 268.103 412.324 268.332 409.798 267.553 409.406 c 0
 266.771 409.015 265.026 410.772 262.084 414.188 c 0
 259.139 417.603 254.97 422.682 249.021 428.562 c 0
 243.07 434.443 235.292 441.139 225.271 447.281 c 0
 215.251 453.424 202.966 459.04 188.709 461.969 c 0
 182.528 463.255 175.939 464.008 169.112 464.156 c 1
 171.009 419.953 172.185 364.558 172.362 304.031 c 1
 174.103 304.019 175.851 303.993 177.612 303.938 c 0
 191.993 303.481 206.969 301.424 221.646 295.719 c 0
 236.518 289.533 249.183 279.553 258.646 267.344 c 0
 268.354 254.801 274.641 240.283 277.487 225.438 c 0
 280.404 209.728 279.665 194.105 276.178 179.531 c 0
 272.688 164.957 266.476 151.429 258.362 139.75 c 0
 247.962 124.676 234.669 112.605 220.237 103.781 c 0
 205.812 94.957 190.227 89.3838 174.803 86.9375 c 0
 172.507 86.5801 170.229 86.2842 167.959 86.0625 c 1
 165.212 34.2246 161.405 2.06055 157.237 2.0625 c 0
 153.074 2.06543 149.337 34.1709 146.646 85.9062 c 1
 137.41 86.6299 128.566 88.3438 120.334 90.8438 c 0
 104.011 95.7998 90.0498 103.739 78.9277 112.906 c 0
 66.6611 123.059 58.0176 134.49 52.0215 145.156 c 0
 46.0254 155.822 42.6689 165.731 40.8027 173.906 c 0
 38.9355 182.081 38.5254 188.535 38.6777 192.875 c 0
 38.8311 197.215 39.502 199.455 40.334 199.531 c 0
 41.166 199.607 42.124 197.509 43.5215 193.594 c 0
 44.9189 189.679 46.8057 183.944 49.8965 176.875 c 0
 52.9873 169.806 57.3242 161.382 63.7402 152.625 c 0
 70.1562 143.868 78.6787 134.742 89.7705 127.094 c 0
 99.7949 120.146 112.014 114.431 125.862 111.188 c 0
 132.166 109.712 138.803 108.742 145.612 108.438 c 1
 143.701 154.037 142.525 211.163 142.428 273.469 c 1
 136.521 273.484 130.479 273.688 124.396 274.281 c 0
 113.318 275.363 102.089 277.674 91.0527 282.062 c 0
 72.9092 289.796 58.2383 303.188 48.709 319.188 c 0
 38.8076 335.868 34.4658 354.709 35.0527 372.812 c 0
 35.6885 391.889 41.4727 409.758 50.4902 424.844 c 0
 60.1494 440.987 73.1621 453.842 87.3027 463.281 c 0
 104.978 475.078 124.271 481.49 142.584 483.781 c 0
 144.012 483.96 145.447 484.089 146.862 484.219 c 1
 149.609 535.969 153.389 568.096 157.553 568.094 c 0
145.803 462.219 m 1
 130.665 459.371 115.03 453.264 101.362 443.156 c 0
 90.3105 434.986 80.3291 424.34 73.3965 411.656 c 0
 66.9346 399.848 62.9189 386.144 62.8965 372.25 c 0
 62.8604 359.121 66.2773 345.513 73.3965 334.188 c 0
 80.1709 323.361 90.4648 314.159 102.428 309.344 c 0
 113.593 304.362 127.34 303.637 142.459 303.625 c 1
 142.694 363.458 143.899 418.231 145.803 462.219 c 1
172.362 273.812 m 1
 172.199 212.101 170.978 155.512 169.053 110.094 c 1
 169.568 110.193 170.097 110.298 170.612 110.406 c 0
 182.854 112.924 195.146 118.014 206.428 125.531 c 0
 217.71 133.049 227.974 142.978 235.678 154.938 c 0
 241.6 164.209 246.146 174.803 248.612 185.906 c 0
 251.082 197.01 251.479 208.649 249.021 219.75 c 0
 246.771 230.319 242.185 240.611 235.396 249.094 c 0
 228.815 257.332 220.091 264.126 210.303 268.062 c 0
 200.754 272.302 189.329 273.494 176.803 273.75 c 0
 175.326 273.78 173.858 273.804 172.362 273.812 c 1
EndSplineSet
EndChar

StartChar: zero
Encoding: 48 48 53
Width: 498
VWidth: 0
Flags: W
HStem: 6.9375 30<186.723 323.385> 534.344 30<186.723 323.385>
LayerCount: 2
Fore
SplineSet
256.178 564.375 m 0
 276.313 564.319 296.058 560.976 314.456 554.875 c 0
 334.084 548.368 352.167 538.741 367.831 526.719 c 0
 379.467 517.617 389.561 507.512 398.303 496.844 c 1
 421.281 522.785 435.969 537.07 438.456 535.156 c 0
 441.062 533.155 429.942 513.734 409.053 482.5 c 1
 413.731 475.678 417.928 468.724 421.706 461.719 c 0
 434.324 438.344 442.222 414.513 447.112 392.656 c 0
 461.854 327.109 456.96 249.371 447.112 178.625 c 1
 442.222 156.769 434.324 132.938 421.706 109.562 c 0
 409.091 86.1875 391.731 63.2617 367.831 44.5625 c 0
 352.167 32.54 334.084 22.9131 314.456 16.4062 c 0
 294.828 9.89941 273.677 6.52637 252.146 6.9375 c 0
 252.105 6.93848 252.06 6.9375 252.021 6.9375 c 0
 230.53 7.38184 209.671 11.4922 190.331 18.4062 c 0
 170.992 25.3203 153.186 35.0312 137.581 46.7188 c 0
 123.625 57.2598 111.57 69.1113 101.178 81.625 c 1
 75.2539 52.0146 58.5957 35.4785 55.9248 37.5312 c 0
 53.1465 39.667 65.9863 61.6494 89.6758 96.6562 c 1
 86.791 100.756 84.0576 104.899 81.4873 109.062 c 0
 67.6182 131.535 58.2402 154.618 52.0811 176.188 c 0
 33.9199 240.192 38.1641 326.226 52.0811 395.094 c 1
 58.2402 416.663 67.6182 439.746 81.4873 462.219 c 0
 95.3564 484.691 113.722 506.538 137.581 524.562 c 0
 153.186 536.25 170.992 545.961 190.331 552.875 c 0
 209.671 559.789 230.53 563.899 252.021 564.344 c 0
 252.06 564.345 252.105 564.344 252.146 564.344 c 0
 253.489 564.369 254.832 564.379 256.178 564.375 c 0
256.081 534.375 m 0
 254.953 534.378 253.835 534.364 252.706 534.344 c 0
 252.677 534.343 252.646 534.345 252.612 534.344 c 0
 234.538 534.023 216.785 530.624 200.206 524.875 c 0
 183.627 519.126 168.209 511.03 154.612 501.312 c 0
 133.623 486.456 116.938 467.66 103.771 447.938 c 0
 90.6006 428.215 80.9531 407.571 73.9248 388.062 c 0
 49.6621 319.247 48.7197 256.102 73.9248 183.219 c 0
 80.9531 163.71 90.6006 143.066 103.771 123.344 c 0
 104.47 122.298 105.179 121.259 105.896 120.219 c 1
 138.24 166.575 183.72 228.365 235.303 295.469 c 0
 291.019 367.948 342.653 432.049 379.987 475.719 c 1
 371.506 486.032 361.764 495.576 350.487 503.719 c 0
 337.23 513.519 321.888 521.331 305.271 526.625 c 0
 289.691 531.588 272.996 534.324 256.081 534.375 c 0
392.646 458.438 m 1
 360.104 411.5 312.894 347.188 259.081 277.188 c 0
 205.761 207.819 156.159 146.143 119.271 102.688 c 1
 129.415 90.6836 141.121 79.5186 154.612 69.9688 c 0
 168.209 60.251 183.627 52.1553 200.206 46.4062 c 0
 216.785 40.6572 234.538 37.2578 252.612 36.9375 c 0
 252.646 36.9365 252.677 36.9385 252.706 36.9375 c 0
 270.774 36.6074 288.652 39.3623 305.271 44.6562 c 0
 321.888 49.9502 337.23 57.7627 350.487 67.5625 c 0
 371.115 82.4619 386.657 102.005 398.612 122.5 c 0
 410.567 142.995 418.945 164.445 424.956 184.406 c 0
 443.894 249.331 445.307 317.371 424.956 386.875 c 0
 418.945 406.836 410.567 428.286 398.612 448.781 c 0
 396.719 452.031 394.729 455.25 392.646 458.438 c 1
EndSplineSet
EndChar

StartChar: one
Encoding: 49 49 54
Width: 257
VWidth: 0
Flags: W
VStem: 175.75 30<41.6065 480.468>
LayerCount: 2
Fore
SplineSet
199.5 568.031 m 0
 201.562 567.898 202.994 559.821 203.938 545.375 c 0
 204.881 530.929 205.352 510.092 205.562 484.406 c 0
 205.981 433.034 205.524 362.239 205.75 284.094 c 0
 205.804 265.212 205.899 246.759 206 228.906 c 0
 206.354 163.947 206.962 106.915 206.594 66.0312 c 0
 206.226 25.1475 204.756 0.411133 201.125 0.15625 c 0
 197.494 -0.0986328 192.3 24.2148 187.469 65 c 0
 182.638 105.785 178.287 163.046 176.562 228.438 c 0
 176.089 246.409 175.805 264.983 175.75 284 c 0
 175.521 362.702 179.358 433.957 184.375 485.344 c 0
 186.498 507.104 188.829 525.266 191.094 539 c 1
 189.844 536.449 188.479 533.762 187 530.938 c 0
 176.24 510.424 159.476 483.029 138.781 453.469 c 0
 135.616 448.948 132.339 444.387 129 439.781 c 0
 105.499 407.364 82.3193 379.393 64.1875 360.25 c 0
 46.0557 341.107 33.0352 330.753 29.7812 333.312 c 0
 26.5273 335.872 33.6416 350.856 47.375 373.188 c 0
 61.1084 395.519 81.4092 425.222 104.719 457.375 c 0
 108.03 461.942 111.313 466.438 114.562 470.844 c 0
 135.787 499.664 155.355 524.799 170.438 542.219 c 0
 184.394 558.342 194.53 567.835 198.5 567.469 c 0
 198.843 567.83 199.177 568.052 199.5 568.031 c 0
EndSplineSet
EndChar

StartChar: two
Encoding: 50 50 55
Width: 494
VWidth: 0
Flags: W
HStem: 88.3125 29.999<220.844 353.245>
LayerCount: 2
Fore
SplineSet
197.062 567.562 m 0
 211.701 567.487 226.636 565.549 241.378 561.5 c 0
 268.829 553.944 295.238 539.195 316.847 518.062 c 0
 330.67 504.529 342.409 488.522 351.312 470.781 c 0
 355.711 462.026 359.349 452.963 362.222 443.719 c 0
 369.688 419.051 371.786 394.09 370.378 370.062 c 0
 368.97 346.035 364.063 322.933 357.347 301.688 c 0
 347.926 271.357 334.894 243.886 320.034 219.719 c 0
 305.175 195.552 288.521 174.707 271.659 157.156 c 0
 254.229 138.999 236.558 124.355 220.097 112.719 c 1
 236.015 116.226 252.896 118.214 270.253 118.312 c 0
 282.022 118.379 293.623 117.562 304.847 115.969 c 0
 333.885 111.815 360.095 102.322 381.878 90.6562 c 0
 403.661 78.9902 421.021 65.207 433.938 52.3438 c 0
 446.857 39.4805 455.404 27.5723 460.378 18.875 c 0
 465.352 10.1777 466.851 4.72266 465.312 3.625 c 0
 463.78 2.52734 459.355 5.84961 452.097 12.0938 c 0
 444.835 18.3379 434.659 27.4805 421.097 37.4062 c 0
 407.533 47.332 390.52 58.0293 370.253 67.0625 c 0
 349.986 76.0957 326.438 83.4502 300.909 86.5625 c 0
 291.008 87.7812 280.823 88.374 270.438 88.3125 c 0
 254.111 88.2158 238.199 86.4521 223.188 83.4062 c 0
 208.182 80.3604 194.077 76.0371 181.159 70.875 c 0
 164.345 64.165 149.511 56.0381 136.847 47.8438 c 0
 124.183 39.6494 113.666 31.3867 105.159 24.2188 c 0
 96.6523 17.0508 90.1484 10.9961 85.3779 7 c 0
 80.6074 3.00391 77.5391 1.07812 76.3154 1.9375 c 0
 75.0918 2.79688 75.791 6.38672 78.5342 12.2188 c 0
 81.2773 18.0508 86.0859 26.1191 93.4404 35.4688 c 0
 100.795 44.8184 110.706 55.4551 123.472 66 c 0
 136.581 76.7988 151.033 86.8232 167.188 95.9688 c 0
 178.892 103.598 192.835 113.377 207.909 125.906 c 0
 222.98 138.436 239.188 153.742 255.097 172.219 c 0
 270.052 189.609 284.779 209.824 297.812 232.844 c 0
 310.852 255.863 322.18 281.695 330.222 309.812 c 0
 335.748 329.558 339.843 350.52 340.972 371.719 c 0
 342.101 392.918 340.286 414.335 333.659 434.781 c 0
 331.244 442.46 328.171 450.008 324.503 457.312 c 0
 317.07 472.115 307.337 485.527 295.938 496.812 c 0
 278.153 514.449 256.201 527.096 233.503 533.75 c 0
 209.141 540.909 183.685 541.301 160.812 536.188 c 0
 148.112 533.356 136.1 528.838 125.159 523.094 c 0
 114.219 517.35 104.361 510.392 95.7842 502.656 c 0
 83.2314 491.361 73.3906 478.32 66.0654 465.094 c 0
 58.7402 451.867 53.9307 438.438 51.0967 425.781 c 0
 47.9561 411.809 47.1846 398.742 47.5342 387.312 c 0
 47.8838 375.883 49.3428 366.064 50.9092 358.125 c 0
 52.4756 350.186 54.1172 344.1 55.0967 339.875 c 0
 56.0762 335.65 56.3809 333.277 55.6279 332.906 c 0
 54.875 332.535 53.1016 334.164 50.5967 337.875 c 0
 48.0918 341.586 44.8516 347.397 41.6904 355.406 c 0
 38.5293 363.415 35.458 373.657 33.6279 386.031 c 0
 31.7979 398.405 31.2158 412.926 33.4404 428.938 c 0
 35.4648 443.438 39.8174 459.072 47.2529 474.719 c 0
 54.6885 490.365 65.2383 506.028 79.3467 520 c 0
 88.9883 529.531 100.191 538.212 112.812 545.469 c 0
 125.438 552.726 139.477 558.565 154.534 562.406 c 0
 168.088 565.855 182.43 567.638 197.062 567.562 c 0
EndSplineSet
EndChar

StartChar: three
Encoding: 51 51 56
Width: 467
VWidth: 0
Flags: W
HStem: 377.688 21.8115<197.519 282.336> 512.344 31<96.5952 321.511> 552.875 9.5<29.388 43.5891>
VStem: 397.274 29.6562<128.9 172.75 227.394 274.645>
LayerCount: 2
Fore
SplineSet
392.868 567.906 m 0
 393.659 567.9 394.229 567.715 394.556 567.312 c 0
 394.682 567.157 394.784 566.962 394.837 566.75 c 0
 396.796 566.664 398.034 566.268 398.368 565.469 c 0
 399.082 563.759 395.815 560.408 389.056 556.031 c 1
 383.277 548.757 373.411 538.486 360.337 526.125 c 0
 336.681 503.76 302.514 474.676 263.274 444.5 c 0
 262.276 443.732 261.271 442.949 260.274 442.188 c 0
 237.889 425.054 216.414 409.544 196.962 396.219 c 1
 208.831 398.466 221.665 399.739 235.274 399.5 c 0
 259.155 399.042 285.139 393.866 310.618 382.562 c 0
 336.098 371.259 361.048 353.812 381.431 329.844 c 0
 398.42 309.785 411.875 285.481 420.024 258.594 c 0
 428.174 231.706 431.026 202.248 426.931 172.75 c 0
 425.497 162.587 423.249 152.475 420.212 142.562 c 0
 413.231 119.785 402.301 98.7031 388.556 80.3125 c 0
 374.812 61.9219 358.26 46.2383 339.962 33.9688 c 0
 325.453 24.2871 309.987 16.8594 294.306 11.5312 c 0
 278.624 6.20312 262.718 2.95801 247.118 1.5625 c 0
 229.522 -0.0380859 212.295 0.730469 196.056 3.40625 c 0
 179.816 6.08203 164.571 10.6641 150.681 16.7188 c 0
 133.551 24.2266 118.708 33.8467 106.149 44.2188 c 0
 93.5908 54.5908 83.3037 65.7422 75.0244 76.6875 c 0
 65.8389 88.8066 59.1016 100.692 54.1807 111.438 c 0
 49.2598 122.183 46.1318 131.779 44.1807 139.688 c 0
 42.2295 147.596 41.4121 153.823 41.2119 158.062 c 0
 41.0117 162.302 41.416 164.562 42.2119 164.719 c 0
 43.0078 164.876 44.1826 162.933 45.8682 159.156 c 0
 47.5537 155.38 49.7881 149.769 52.9932 142.719 c 0
 56.1982 135.669 60.373 127.176 66.1182 117.781 c 0
 71.8633 108.387 79.167 98.0928 88.4619 87.75 c 0
 96.8604 78.4248 106.938 69.0127 118.774 60.4375 c 0
 130.613 51.8623 144.229 44.1025 159.524 38.3125 c 0
 171.906 33.5918 185.426 30.1787 199.712 28.4062 c 0
 213.998 26.6338 229.063 26.5156 244.337 28.3438 c 0
 257.873 29.9863 271.608 33.1768 285.024 38.0625 c 0
 298.44 42.9482 311.527 49.5146 323.649 57.9375 c 0
 339.039 68.5693 353.012 82.1787 364.649 98.0312 c 0
 376.287 113.884 385.571 131.996 391.524 151.375 c 0
 394.115 159.809 396.055 168.356 397.274 176.938 c 0
 400.877 201.828 398.615 227.087 391.931 250.281 c 0
 385.246 273.476 374.128 294.603 359.993 312.062 c 0
 343.123 333 321.878 348.845 299.931 359.625 c 0
 277.983 370.405 255.338 376.114 234.274 377.688 c 0
 211.763 379.41 190.986 376.536 173.274 371.844 c 0
 158.126 367.83 145.198 362.502 134.524 357.188 c 0
 132.43 356.072 130.438 355.004 128.587 354.094 c 0
 128.533 354.064 128.484 354.029 128.431 354 c 0
 117.305 348.022 109.024 342.427 103.274 338.625 c 0
 97.3701 334.722 94.0361 332.742 93.2744 333.5 c 0
 92.5127 334.258 94.3408 337.736 99.0869 343.312 c 0
 103.014 347.926 109.014 353.977 117.368 360.562 c 1
 123.382 367.344 133.169 376.654 145.899 387.875 c 0
 169.707 408.86 203.646 436.405 241.993 465.969 c 0
 242.981 466.73 243.999 467.517 244.993 468.281 c 0
 275.631 491.843 304.33 513.047 328.337 529.844 c 1
 316.438 526.206 303.263 522.842 289.024 520.062 c 0
 266.048 515.578 240.332 512.65 213.274 512.344 c 0
 197.854 512.169 182.824 512.849 168.493 514.219 c 0
 146.938 516.282 126.944 519.91 109.306 524.312 c 0
 91.668 528.715 76.3809 533.896 63.9619 538.938 c 0
 51.543 543.979 41.9873 548.887 35.7119 552.875 c 0
 29.4365 556.863 26.4375 559.91 27.0869 561.562 c 0
 27.7363 563.215 31.9854 563.345 39.2119 562.375 c 0
 46.4385 561.405 56.6592 559.343 69.3369 556.906 c 0
 82.0146 554.47 97.1475 551.674 114.243 549.188 c 0
 131.339 546.701 150.373 544.536 170.743 543.344 c 0
 184.275 542.551 198.421 542.179 212.931 542.344 c 0
 238.392 542.634 262.613 544.56 284.587 547.344 c 0
 306.562 550.128 326.271 553.771 342.837 557.156 c 0
 359.403 560.54 372.836 563.655 382.368 565.375 c 0
 383.758 565.626 385.053 565.812 386.274 566 c 0
 389.177 567.234 391.416 567.917 392.868 567.906 c 0
EndSplineSet
EndChar

StartChar: four
Encoding: 52 52 57
Width: 479
VWidth: 0
Flags: W
HStem: 306.094 26<49.9593 315.716 345.591 450.745>
VStem: 100.622 10.5<544.598 567.18> 315.716 30<88.2771 305.312 333.312 525.659>
LayerCount: 2
Fore
SplineSet
329.903 568.219 m 0
 337.32 568.239 343.763 466.07 345.341 332.094 c 1
 408.436 329.075 451.066 323.946 451.028 318.375 c 0
 450.99 312.816 408.486 308.255 345.591 306.094 c 1
 345.644 298.852 345.695 291.603 345.716 284.219 c 0
 346.157 127.429 339.777 0.179688 331.497 0.15625 c 0
 323.217 0.131836 316.156 127.366 315.716 284.156 c 0
 315.695 291.298 315.708 298.303 315.716 305.312 c 1
 292.512 304.839 267.42 304.633 241.122 304.812 c 0
 133.307 305.551 44.4658 311.996 32.7783 319.562 c 0
 32.3213 319.635 31.9355 319.796 31.6533 320.062 c 0
 30.1475 321.482 31.3262 325.513 34.3408 331.688 c 0
 37.3555 337.862 42.2012 346.203 47.8408 356.5 c 0
 53.4805 366.797 59.9092 379.061 66.1221 393 c 0
 72.3359 406.939 78.3262 422.574 83.2783 439.344 c 0
 85.1904 445.819 86.8613 452.204 88.3408 458.5 c 0
 91.8096 473.238 94.1426 487.392 95.7158 500.281 c 0
 97.29 513.171 98.1152 524.823 98.7471 534.656 c 0
 99.3789 544.489 99.8271 552.487 100.622 558.156 c 0
 101.417 563.825 102.599 567.158 104.438 567.5 c 0
 106.273 567.842 108.62 565.153 111.122 559.781 c 0
 113.624 554.409 116.24 546.342 118.278 536 c 0
 120.316 525.658 121.771 513.035 121.841 498.812 c 0
 121.91 484.59 120.578 468.755 117.312 452.25 c 0
 115.91 445.192 114.154 438.045 112.028 430.844 c 0
 106.522 412.194 99.04 395.123 90.7783 380.5 c 0
 82.5166 365.877 73.4971 353.677 65.1221 344.219 c 0
 58.4238 336.654 52.1709 330.87 46.9033 326.781 c 1
 78.1328 332.056 153.438 335.414 241.341 334.812 c 0
 267.604 334.633 292.641 334.103 315.812 333.312 c 1
 316.667 466.658 322.514 568.198 329.903 568.219 c 0
EndSplineSet
EndChar

StartChar: five
Encoding: 53 53 58
Width: 425
VWidth: 0
Flags: W
HStem: 344.969 22.875<138.079 253.306> 514.25 30<121.767 322.352>
VStem: 40.0371 30<296.901 555.584> 354.35 29.9062<118.575 253.148>
LayerCount: 2
Fore
SplineSet
59.6621 566.031 m 0
 61.3379 565.991 63.4102 565.774 65.8496 565.406 c 0
 72.3555 564.424 81.4746 562.369 92.7871 559.906 c 0
 115.413 554.98 146.893 548.539 183.256 545.75 c 0
 195.31 544.824 207.911 544.281 220.85 544.25 c 0
 243.592 544.195 265.253 545.713 284.912 548.062 c 0
 304.571 550.412 322.222 553.586 337.065 556.562 c 0
 351.915 559.539 363.974 562.31 372.565 563.781 c 0
 381.164 565.253 386.307 565.398 387.131 563.5 c 0
 387.956 561.602 384.387 557.806 376.881 552.906 c 0
 369.376 548.007 357.936 542.025 343.1 536.219 c 0
 328.265 530.412 310.013 524.812 289.256 520.75 c 0
 268.5 516.688 245.213 514.189 220.756 514.25 c 0
 206.842 514.284 193.312 515.133 180.412 516.656 c 0
 160.967 518.954 142.984 522.759 127.19 527.281 c 0
 111.397 531.804 97.7832 537.057 86.7871 542.125 c 0
 75.792 547.193 67.418 552.066 61.9746 556.031 c 0
 61.7207 556.217 61.498 556.381 61.2559 556.562 c 1
 66.8115 536.211 70.4873 483.647 70.0371 422.062 c 0
 69.6387 367.438 66.1055 319.932 61.2246 295.75 c 1
 63.0195 298.533 65.126 301.545 67.6621 304.812 c 0
 73.6338 312.506 81.8311 321.421 92.7559 330.281 c 0
 103.682 339.142 117.383 347.955 134.037 354.938 c 0
 149.312 361.33 166.988 366.103 186.412 367.844 c 0
 205.837 369.585 227.004 368.288 248.475 362.625 c 0
 266.095 357.96 283.739 350.378 300.315 339.719 c 0
 316.896 329.06 332.4 315.322 345.44 298.719 c 0
 357.15 283.778 366.764 266.648 373.537 248.031 c 0
 380.311 229.414 384.265 209.33 384.69 188.719 c 0
 384.793 183.397 384.633 178.051 384.256 172.719 c 0
 382.358 145.916 374.543 120.278 362.475 97.7188 c 0
 350.407 75.1592 334.116 55.7012 315.225 40.5938 c 0
 290.588 21.002 262.315 9.23535 234.85 4.03125 c 0
 207.382 -1.17285 180.705 0.143555 157.381 5.96875 c 0
 132.666 12.2002 112.115 23.2021 96.0059 35.125 c 0
 79.8975 47.0479 68.1973 59.9062 59.9434 71.2188 c 0
 51.6904 82.5312 46.835 92.3105 44.1621 99.1562 c 0
 41.4902 106.002 40.9277 109.947 41.9434 110.438 c 0
 42.96 110.928 45.4805 107.963 49.8496 102.406 c 0
 54.2188 96.8496 60.499 88.668 69.5996 79.3438 c 0
 78.7002 70.0195 90.6875 59.5215 106.131 50.0625 c 0
 121.575 40.6035 140.511 32.1729 162.287 28.0625 c 0
 182.812 24.1328 205.997 24.1602 229.537 29.5625 c 0
 253.078 34.9648 276.992 45.7539 297.225 62.6875 c 0
 312.812 75.6465 326.258 92.3555 336.256 111.562 c 0
 346.255 130.77 352.781 152.481 354.35 174.844 c 0
 354.662 179.293 354.782 183.71 354.69 188.125 c 0
 354.392 205.326 351.18 222.268 345.631 238.031 c 0
 340.082 253.795 332.212 268.397 322.6 281.125 c 0
 311.926 295.294 299.019 307.269 285.131 316.781 c 0
 271.243 326.294 256.366 333.32 241.44 337.906 c 0
 223.27 343.513 204.94 345.532 187.85 344.969 c 0
 170.757 344.405 154.889 341.284 140.912 336.656 c 0
 125.668 331.621 112.603 324.799 101.756 317.844 c 0
 90.9102 310.889 82.2676 303.773 75.4746 297.625 c 0
 68.6816 291.477 63.7266 286.312 60.1934 282.875 c 0
 56.6611 279.438 54.541 277.743 53.7559 278.25 c 0
 53.5967 278.353 53.4883 278.562 53.4434 278.844 c 0
 45.4443 281.73 39.4727 344.91 40.0371 422.281 c 0
 40.6064 500.213 47.6094 563.626 55.7246 565.531 c 0
 56.5742 565.907 57.8936 566.074 59.6621 566.031 c 0
EndSplineSet
EndChar

StartChar: six
Encoding: 54 54 59
Width: 454
VWidth: 0
Flags: W
HStem: 1.46875 23.3438<194.977 302.326> 348.188 22.3115<139.174 258.642> 560.562 6.93848<325.976 327.122 339.002 379.202>
LayerCount: 2
Fore
SplineSet
327.651 571.406 m 0
 331.409 571.426 334.987 571.354 338.37 571.219 c 0
 351.902 570.686 362.363 569.104 369.37 567.5 c 0
 376.377 565.896 379.938 564.287 379.811 563.094 c 0
 379.684 561.9 375.863 561.201 368.87 560.562 c 0
 361.877 559.924 351.705 559.332 338.839 557.875 c 0
 325.976 556.418 310.403 554.061 292.936 549.719 c 0
 275.462 545.377 256.06 539.035 235.995 529.594 c 0
 216.858 520.594 197.096 508.74 178.061 493.656 c 0
 159.022 478.572 140.729 460.255 124.839 438.812 c 0
 108.287 416.491 94.3408 390.693 84.4336 362.594 c 0
 79.499 348.603 75.7051 334.438 73.0264 320.312 c 1
 73.6025 320.928 74.208 321.562 74.9014 322.25 c 0
 79.6826 326.984 87.3066 333.385 98.1201 340.188 c 0
 108.938 346.99 122.996 354.212 140.311 359.969 c 0
 157.619 365.726 178.201 370.001 201.311 370.5 c 0
 223.068 370.952 246.903 367.988 271.061 360.281 c 0
 295.212 352.574 319.691 340.135 341.839 322.281 c 0
 357.943 309.322 372.741 293.474 384.936 275.156 c 0
 397.124 256.839 406.725 236.04 412.339 213.5 c 0
 413.569 208.537 414.592 203.496 415.401 198.406 c 0
 418.604 178.261 418.328 157.898 414.901 138.5 c 0
 411.478 119.102 404.898 100.691 395.561 84.1562 c 0
 380.722 58.0908 359.465 37.5479 336.089 23.8125 c 0
 322.898 16.0723 309.103 10.5029 295.401 6.875 c 0
 281.703 3.24707 268.088 1.54199 255.089 1.46875 c 0
 239.045 1.38672 224.041 3.77051 210.589 7.625 c 0
 197.14 11.4795 185.243 16.8164 175.061 22.7812 c 0
 163.772 29.3955 154.618 36.7227 147.339 43.75 c 0
 146.4 44.6553 145.497 45.5752 144.62 46.4688 c 0
 144.58 46.501 144.535 46.5303 144.495 46.5625 c 0
 131.756 56.7939 117.241 70.5566 102.901 88.4688 c 0
 88.5186 106.437 74.3506 128.604 63.0576 154.906 c 0
 53.7588 176.585 46.4404 200.968 42.4326 227.281 c 0
 38.4248 253.595 37.7266 281.827 41.4014 310.625 c 0
 44.042 331.266 48.9424 352.143 56.1514 372.594 c 0
 67.1074 403.674 82.8096 432.036 101.561 456.406 c 0
 119.57 479.805 140.248 499.421 161.686 515.156 c 0
 183.117 530.892 205.312 542.761 226.62 551.281 c 0
 248.966 560.209 270.279 565.462 289.245 568.344 c 0
 303.472 570.505 316.379 571.349 327.651 571.406 c 0
189.686 348.188 m 0
 173.444 347.948 158.467 345.771 145.186 342.719 c 0
 128.833 338.963 115.056 333.864 103.995 329.094 c 0
 92.9385 324.323 84.5527 319.88 78.7139 316.969 c 0
 75.7949 315.513 73.5195 314.438 71.8701 313.844 c 1
 71.4756 311.461 71.1084 309.096 70.7764 306.719 c 0
 67.1465 280.775 67.2939 255.172 70.2451 231.125 c 0
 73.1963 207.078 78.9473 184.595 86.4951 164.344 c 0
 95.6367 139.787 107.396 118.489 119.436 100.688 c 0
 131.473 82.8857 143.805 68.5566 154.526 57.25 c 0
 156.688 54.9736 158.757 52.8506 160.776 50.8125 c 0
 167.253 46.4404 174.697 42.0967 183.151 38.2188 c 0
 192.697 33.8359 203.565 30.0654 215.561 27.5938 c 0
 227.552 25.1221 240.649 23.9424 254.339 24.8125 c 0
 265.434 25.5117 276.936 27.5479 288.401 31.1562 c 0
 299.87 34.7637 311.322 39.9297 322.089 46.7812 c 0
 341.188 58.915 358.434 76.6016 370.214 98.2812 c 0
 377.709 111.938 382.923 127.3 385.589 143.531 c 0
 388.255 159.763 388.364 176.843 385.714 193.719 c 0
 385.044 197.982 384.224 202.193 383.214 206.344 c 0
 378.646 225.303 370.579 243.077 360.276 258.938 c 0
 349.977 274.798 337.442 288.747 323.776 300.375 c 0
 304.942 316.367 283.771 328.007 262.686 335.719 c 0
 241.599 343.431 220.573 347.227 201.12 348.031 c 0
 197.247 348.195 193.433 348.243 189.686 348.188 c 0
EndSplineSet
EndChar

StartChar: seven
Encoding: 55 55 60
Width: 447
VWidth: 0
Flags: W
HStem: 304.156 30<30.4571 231.422 273.731 416.201> 478.969 29.8428<132.818 312.999>
VStem: 205.731 21.2217<28.6131 203.24>
LayerCount: 2
Fore
SplineSet
415.922 569.156 m 0
 416.477 569.152 416.879 569.006 417.141 568.719 c 0
 418.535 567.19 415.562 561.591 408.172 553.312 c 0
 407.953 553.068 407.678 552.812 407.453 552.562 c 0
 405.959 550.589 404.313 548.459 402.453 546.094 c 0
 393.123 534.25 379.401 517.507 363.672 495.969 c 0
 347.938 474.431 330.254 448.062 313.172 417.344 c 0
 299.186 392.193 285.611 364.108 273.731 333.75 c 1
 355.838 332.231 416.367 326.547 416.391 319.625 c 0
 416.414 312.403 350.641 306.241 263.106 304.594 c 0
 263.049 304.415 262.979 304.241 262.922 304.062 c 0
 249.6 264.53 240.76 225.6 235.266 189.75 c 0
 229.77 153.9 227.604 121.159 226.953 93.5625 c 0
 226.297 65.9658 227.086 43.5146 227.356 27.875 c 0
 227.633 12.2354 227.305 3.35449 225.266 3 c 0
 223.227 2.64551 219.666 10.8516 215.797 26.3125 c 0
 211.926 41.7734 207.815 64.5537 205.731 93.0312 c 0
 203.647 121.509 203.654 155.712 207.856 193.375 c 0
 211.744 228.183 219.262 265.923 231.422 304.219 c 1
 228.729 304.203 226.078 304.163 223.356 304.156 c 0
 116.77 303.885 30.2305 310.376 30.2031 318.656 c 0
 30.1738 326.938 116.676 333.885 223.266 334.156 c 0
 229.547 334.172 235.729 334.155 241.856 334.125 c 1
 255.498 370.012 272.063 402.715 289.547 431.156 c 0
 308.428 461.878 328.315 487.633 346.453 508 c 1
 335.25 502.314 322.811 496.977 309.203 492.469 c 0
 283.979 484.114 254.854 478.624 224.047 478.438 c 0
 217.682 478.399 211.365 478.57 205.141 478.969 c 0
 176.58 480.828 150.026 487.171 127.203 495.719 c 0
 104.379 504.267 85.2559 515 70.3906 525.375 c 0
 55.5254 535.75 44.8828 545.729 38.2656 553.281 c 0
 31.6484 560.834 29.0137 565.916 30.3281 567.375 c 0
 31.6406 568.834 36.7559 566.577 45.2344 561.938 c 0
 53.7129 557.298 65.6172 550.322 80.7969 542.875 c 0
 95.9766 535.428 114.479 527.538 135.797 521.219 c 0
 157.113 514.899 181.229 510.155 206.891 508.812 c 0
 212.475 508.514 218.143 508.374 223.856 508.406 c 0
 251.529 508.564 277.883 512.746 301.266 518.969 c 0
 324.646 525.191 345.051 533.43 361.766 541.438 c 0
 378.479 549.445 391.533 557.168 400.828 562.375 c 0
 408.379 566.606 413.518 569.174 415.922 569.156 c 0
EndSplineSet
EndChar

StartChar: eight
Encoding: 56 56 61
Width: 426
VWidth: 0
Flags: W
HStem: 2.71875 28.2812<153.861 272.138> 539.281 29.9688<158.516 264.515>
VStem: 37.0479 29.125<116.43 251.07> 81.9854 24.0937<384.882 481.061> 319.857 23.5967<381.707 476.976> 359.829 29.125<116.43 251.07>
LayerCount: 2
Fore
SplineSet
209.017 569.25 m 0
 231.406 569.541 253.167 563.97 271.857 554.062 c 0
 285.134 547.005 296.729 537.928 306.423 527.688 c 0
 316.111 517.447 323.896 506.047 329.704 494.25 c 0
 338.945 475.487 343.046 455.942 343.454 438.031 c 0
 343.859 420.12 340.595 403.814 335.423 390.188 c 0
 331.096 378.862 325.543 369.498 319.923 361.969 c 0
 314.303 354.439 308.613 348.754 303.642 344.594 c 0
 299.76 341.347 296.34 339 293.548 337.438 c 1
 310.709 328.842 327.714 316.621 342.704 300.562 c 0
 359.555 282.511 373.853 259.608 382.173 232.969 c 0
 389.074 210.688 391.63 186.181 388.954 161.406 c 0
 386.275 136.632 378.371 111.616 364.798 88.9375 c 0
 361.364 83.2363 357.604 77.7119 353.517 72.4062 c 0
 349.23 66.5957 344.434 60.8633 339.079 55.3438 c 0
 329.84 45.8613 319.026 37.1006 306.798 29.5312 c 0
 295.945 22.8174 283.968 17.0605 271.107 12.625 c 0
 270.69 12.4766 270.274 12.332 269.857 12.1875 c 0
 261.905 9.42969 253.822 7.28125 245.704 5.71875 c 0
 235.143 3.71387 224.612 2.75977 214.267 2.71875 c 0
 214.1 2.7168 213.935 2.71973 213.767 2.71875 c 0
 213.088 2.71777 212.412 2.71191 211.732 2.71875 c 0
 201.383 2.75879 190.86 3.71387 180.298 5.71875 c 0
 172.177 7.28125 164.094 9.42969 156.142 12.1875 c 0
 155.723 12.3281 155.309 12.4814 154.892 12.625 c 0
 142.031 17.0605 130.054 22.8174 119.204 29.5312 c 0
 106.973 37.1006 96.1621 45.8613 86.9229 55.3438 c 0
 81.5684 60.8633 76.7686 66.5957 72.4854 72.4062 c 0
 68.3965 77.7119 64.6348 83.2363 61.2041 88.9375 c 0
 47.6309 111.616 39.7236 136.632 37.0479 161.406 c 0
 34.3721 186.181 36.8936 210.688 43.7979 232.969 c 0
 52.1182 259.608 66.4473 282.511 83.2979 300.562 c 0
 98.7236 317.088 116.255 329.56 133.923 338.188 c 1
 131.578 339.641 129.007 341.414 126.232 343.594 c 0
 120.271 348.283 113.443 354.768 106.829 363.5 c 0
 100.213 372.232 93.792 383.214 89.1094 396.5 c 0
 84.793 408.804 82.0498 422.982 81.9854 438.312 c 0
 81.9199 453.643 84.541 470.134 90.8594 486.406 c 0
 98.4004 505.794 111.153 524.618 129.017 539.531 c 0
 145.504 553.278 166.179 563.368 188.892 567.375 c 0
 195.514 568.524 202.236 569.162 209.017 569.25 c 0
209.392 539.281 m 0
 204.175 539.219 199.021 538.74 193.982 537.875 c 0
 176.639 534.957 160.435 527.354 147.357 517.031 c 0
 133.166 505.844 122.441 491.281 115.642 476.125 c 0
 109.941 463.461 106.965 450.192 106.079 437.594 c 0
 105.19 424.995 106.386 413.077 108.923 402.438 c 0
 111.646 390.938 115.908 380.864 120.482 372.406 c 0
 125.06 363.948 129.941 357.088 134.204 351.625 c 0
 137.261 347.704 139.985 344.507 142.173 341.906 c 1
 161.65 350.088 180.626 353.702 197.357 354.656 c 0
 202.737 354.963 207.896 354.99 212.798 354.812 c 0
 212.932 354.808 213.068 354.817 213.204 354.812 c 0
 218.104 354.99 223.262 354.963 228.642 354.656 c 0
 246.324 353.647 266.527 349.673 287.173 340.469 c 0
 287.351 340.389 287.523 340.299 287.704 340.219 c 0
 287.755 340.294 287.774 340.36 287.829 340.438 c 0
 289.665 343.146 292.543 346.841 295.954 351.719 c 0
 299.362 356.597 303.301 362.643 307.079 370.031 c 0
 310.854 377.42 314.479 386.167 316.982 396.125 c 0
 320.019 408.056 321.379 421.874 319.857 436.656 c 0
 318.342 451.438 313.926 467.188 305.798 481.812 c 0
 300.658 491.049 294.038 499.938 286.048 507.844 c 0
 278.058 515.75 268.726 522.666 258.298 527.906 c 0
 243.669 535.288 226.628 539.488 209.392 539.281 c 0
212.982 338.969 m 0
 208.54 338.635 203.936 338.118 199.142 337.375 c 0
 183.337 334.924 165.729 329.968 148.357 320.781 c 0
 132.084 312.216 115.981 299.837 102.173 283.656 c 0
 88.3604 267.476 76.833 247.51 70.5479 225.031 c 0
 65.2451 206.259 63.6006 185.589 66.1729 164.781 c 0
 68.7451 143.974 75.542 123.02 86.8594 104.375 c 0
 90.4121 98.4863 94.4307 92.8174 98.8574 87.4062 c 0
 110.229 73.5195 123.963 61.8242 138.857 52.8125 c 0
 153.758 43.8008 169.812 37.4805 185.982 34.0938 c 0
 194.979 32.1816 204.033 31.1934 213.017 31 c 0
 221.983 31.1953 231.03 32.1846 240.017 34.0938 c 0
 256.188 37.4805 272.241 43.8008 287.142 52.8125 c 0
 302.039 61.8242 315.771 73.5195 327.142 87.4062 c 0
 331.568 92.8174 335.59 98.4863 339.142 104.375 c 0
 350.46 123.02 357.257 143.974 359.829 164.781 c 0
 362.398 185.589 360.757 206.259 355.454 225.031 c 0
 349.169 247.51 337.641 267.476 323.829 283.656 c 0
 310.018 299.837 293.918 312.216 277.642 320.781 c 0
 260.27 329.968 242.665 334.924 226.857 337.375 c 0
 222.062 338.119 217.435 338.635 212.982 338.969 c 0
EndSplineSet
EndChar

StartChar: nine
Encoding: 57 57 62
Width: 414
VWidth: 0
Flags: W
HStem: 240.281 27.0938<144.986 264.158> 541.781 26.0938<120.855 239.99>
LayerCount: 2
Fore
SplineSet
183.028 568.75 m 0
 186.607 568.782 189.727 568.604 192.372 568.344 c 0
 193.476 568.235 194.473 568.106 195.403 567.969 c 0
 208.795 567.008 222.377 564.447 235.747 560.125 c 0
 258.441 552.709 280.154 540.508 299.372 524.156 c 0
 318.591 507.805 335.329 487.298 347.872 463.969 c 0
 360.809 439.843 369.437 413.162 373.528 385.281 c 0
 379.127 347.161 375.98 308.764 366.403 273.875 c 0
 357.102 239.989 342.412 209.377 325.028 182.438 c 0
 307.646 155.498 287.569 132.231 267.062 112.5 c 0
 239.883 86.2695 211.767 65.9512 185.528 50.5 c 0
 159.293 35.0488 134.938 24.4297 114.497 17.1562 c 0
 94.0566 9.88281 77.5117 5.89062 66.1221 3.875 c 0
 54.7324 1.85938 48.499 1.75098 48.1846 3.03125 c 0
 47.8701 4.31152 53.4717 6.91602 63.9971 11.2188 c 0
 74.5225 15.5215 89.9844 21.5908 108.966 30.5938 c 0
 127.947 39.5967 150.479 51.5654 174.622 67.8125 c 0
 198.771 84.0596 224.548 104.594 249.278 130.281 c 0
 267.864 149.653 285.963 172.015 301.528 197.281 c 0
 317.095 222.548 330.11 250.733 337.997 281.438 c 0
 342.448 298.764 345.227 316.984 346.028 335.5 c 1
 345.931 335.246 345.854 335.007 345.747 334.75 c 0
 342.473 326.592 337.521 316.859 330.216 306.531 c 0
 322.911 296.203 313.22 285.258 300.562 275.188 c 0
 288.805 265.849 274.546 257.386 258.091 251.094 c 0
 241.639 244.802 222.984 240.707 203.028 240.281 c 0
 186.478 239.944 169.186 242.152 152.122 247.25 c 0
 135.062 252.348 118.229 260.332 102.812 271.344 c 0
 88.4785 281.601 75.5186 294.384 64.7783 309.156 c 0
 54.1562 323.766 46.0859 339.806 40.7471 356.406 c 0
 32.5303 382.165 31.248 408.617 35.0283 432.906 c 1
 35.377 441.675 36.6045 451.239 39.2471 461.375 c 0
 42.5938 474.171 48.1797 487.752 56.6221 501 c 0
 65.0645 514.248 76.3711 527.169 90.8096 538.094 c 0
 100.266 545.225 110.978 551.46 122.688 556.375 c 0
 134.396 561.29 147.125 564.896 160.528 566.812 c 0
 163.687 567.263 166.873 567.612 170.091 567.875 c 0
 174.869 568.453 179.213 568.716 183.028 568.75 c 0
179.188 542.531 m 0
 173.944 542.564 168.757 542.329 163.688 541.781 c 0
 152.378 540.564 141.517 537.932 131.438 534.219 c 0
 128.652 533.193 125.938 532.093 123.278 530.906 c 0
 110.354 521.579 97.3623 509.309 86.8096 493.656 c 0
 75.7881 477.436 67.4258 457.364 63.7783 435.156 c 0
 60.1309 412.948 61.2119 388.634 68.9658 365.656 c 0
 73.502 352.084 80.2773 338.86 89.0596 326.781 c 0
 97.9395 314.567 108.557 303.959 120.216 295.406 c 0
 132.743 286.194 146.582 279.287 160.688 274.656 c 0
 174.787 270.025 189.146 267.66 202.966 267.375 c 0
 219.63 267.011 235.647 269.635 250.062 274.125 c 0
 264.475 278.615 277.307 284.973 288.216 292.156 c 0
 299.979 299.884 309.595 308.582 317.341 316.938 c 0
 325.088 325.293 330.967 333.311 335.528 340.094 c 0
 340.09 346.877 343.354 352.448 345.778 356.188 c 0
 345.889 356.353 345.956 356.467 346.062 356.625 c 0
 345.731 364.74 345.032 372.878 343.872 380.969 c 0
 340.335 405.643 332.889 429.066 321.688 449.969 c 0
 310.933 470.106 296.72 487.998 280.497 502.375 c 0
 264.275 516.752 246.069 527.589 227.062 534.156 c 0
 211.217 539.696 194.905 542.433 179.188 542.531 c 0
EndSplineSet
EndChar

StartChar: colon
Encoding: 58 58 63
Width: 194
VWidth: 0
Flags: W
HStem: 103.375 28.4365<77.0484 113.452> 301.375 28.4365<77.2727 113.452>
VStem: 44.1318 29.2188<55.6933 99.7903 253.694 297.789> 120.441 29.3154<56.8341 100.933 254.834 298.933>
LayerCount: 2
Fore
SplineSet
98.7881 329.812 m 0
 98.8828 329.812 98.9746 329.812 99.0684 329.812 c 0
 100.109 329.82 101.171 329.785 102.257 329.719 c 0
 105.864 329.486 109.646 328.843 113.476 327.656 c 0
 122.867 324.866 130.786 319.671 136.632 313.469 c 0
 140.981 308.823 144.1 303.707 146.191 298.688 c 0
 148.29 293.668 149.361 288.723 149.691 284.188 c 0
 149.811 282.544 149.814 280.979 149.757 279.469 c 0
 150.081 270.864 148.38 261.959 144.382 253.656 c 0
 142.694 250.186 140.646 246.875 138.257 243.812 c 0
 133.365 237.554 127.238 232.503 120.413 228.938 c 0
 112.727 224.955 104.497 223.038 96.4756 222.875 c 0
 96.002 222.854 95.5205 222.851 95.0381 222.844 c 0
 94.9434 222.845 94.8506 222.843 94.7568 222.844 c 0
 93.7129 222.836 92.6572 222.871 91.5684 222.938 c 0
 88.5391 223.133 85.3936 223.645 82.1943 224.5 c 0
 81.5703 224.66 80.9619 224.818 80.3506 225 c 0
 80.3105 225.013 80.2656 225.019 80.2256 225.031 c 0
 70.8721 227.828 63.0176 233.006 57.1943 239.188 c 0
 52.8418 243.833 49.6953 248.949 47.6006 253.969 c 0
 45.5059 258.988 44.4619 263.934 44.1318 268.469 c 0
 44.0146 270.123 43.9756 271.698 44.0381 273.219 c 0
 43.7188 281.812 45.4199 290.707 49.4131 299 c 0
 51.0977 302.471 53.1777 305.781 55.5693 308.844 c 0
 60.458 315.103 66.585 320.153 73.4131 323.719 c 0
 81.5586 327.939 90.3164 329.864 98.7881 329.812 c 0
101.507 301.375 m 0
 96.7441 301.304 91.7061 300.029 87.4443 297.562 c 0
 84.3652 295.809 81.5088 293.326 79.1943 290.375 c 0
 78.0625 288.932 77.082 287.386 76.2881 285.812 c 0
 73.7471 280.86 72.7686 274.981 73.3506 269.719 c 0
 73.9531 263.921 76.5 258.301 79.9443 254.062 c 0
 80.0449 253.938 80.1543 253.811 80.2568 253.688 c 0
 83.3975 252.37 86.8262 251.524 90.2881 251.344 c 0
 95.6172 251.033 101.479 252.274 106.351 255.094 c 0
 109.43 256.848 112.314 259.361 114.632 262.312 c 0
 115.764 263.756 116.741 265.271 117.538 266.844 c 0
 120.076 271.796 121.023 277.675 120.441 282.938 c 0
 119.842 288.735 117.323 294.355 113.882 298.594 c 0
 113.79 298.708 113.691 298.825 113.601 298.938 c 0
 110.442 300.268 107.021 301.131 103.538 301.312 c 0
 102.872 301.352 102.188 301.385 101.507 301.375 c 0
98.7881 131.812 m 0
 98.8828 131.812 98.9746 131.813 99.0684 131.812 c 0
 100.109 131.82 101.171 131.785 102.257 131.719 c 0
 105.864 131.486 109.646 130.843 113.476 129.656 c 0
 113.567 129.628 113.659 129.591 113.757 129.562 c 0
 123.024 126.752 130.848 121.608 136.632 115.469 c 0
 140.981 110.823 144.1 105.707 146.191 100.688 c 0
 148.29 95.668 149.361 90.7227 149.691 86.1875 c 0
 149.811 84.5439 149.814 82.9795 149.757 81.4688 c 0
 150.081 72.8643 148.38 63.959 144.382 55.6562 c 0
 142.694 52.1855 140.646 48.875 138.257 45.8125 c 0
 133.365 39.5537 127.238 34.5029 120.413 30.9375 c 0
 112.727 26.9551 104.497 25.0381 96.4756 24.875 c 0
 96.002 24.8535 95.5205 24.8506 95.0381 24.8438 c 0
 94.9434 24.8447 94.8506 24.8428 94.7568 24.8438 c 0
 93.7129 24.8359 92.6572 24.8711 91.5684 24.9375 c 0
 89.9736 25.04 88.3477 25.252 86.6943 25.5312 c 0
 85.2305 25.7783 83.749 26.0713 82.2568 26.4688 c 0
 82.2344 26.4746 82.2168 26.4941 82.1943 26.5 c 0
 81.5703 26.6602 80.9619 26.8184 80.3506 27 c 0
 80.3105 27.0127 80.2656 27.0186 80.2256 27.0312 c 0
 80.1621 27.0498 80.1006 27.0742 80.0381 27.0938 c 0
 70.7676 29.9043 62.9785 35.0479 57.1943 41.1875 c 0
 52.8418 45.833 49.6953 50.9492 47.6006 55.9688 c 0
 45.5059 60.9883 44.4619 65.9336 44.1318 70.4688 c 0
 44.0146 72.123 43.9756 73.6982 44.0381 75.2188 c 0
 43.7197 83.8135 45.4199 92.707 49.4131 101 c 0
 51.0977 104.471 53.1777 107.781 55.5693 110.844 c 0
 60.458 117.103 66.585 122.153 73.4131 125.719 c 0
 81.0898 129.696 89.3086 131.613 97.3184 131.781 c 0
 97.8086 131.791 98.2998 131.815 98.7881 131.812 c 0
101.507 103.375 m 0
 96.7441 103.304 91.7061 102.029 87.4443 99.5625 c 0
 84.3652 97.8086 81.5088 95.3262 79.1943 92.375 c 0
 78.0625 90.9316 77.082 89.3857 76.2881 87.8125 c 0
 73.7471 82.8604 72.7686 76.9814 73.3506 71.7188 c 0
 73.9531 65.9209 76.5 60.3008 79.9443 56.0625 c 0
 80.0449 55.9375 80.1543 55.8105 80.2568 55.6875 c 0
 83.3975 54.3701 86.8262 53.5244 90.2881 53.3438 c 0
 95.6172 53.0332 101.479 54.2744 106.351 57.0938 c 0
 109.43 58.8477 112.314 61.3613 114.632 64.3125 c 0
 115.764 65.7559 116.741 67.2705 117.538 68.8438 c 0
 120.076 73.7959 121.023 79.6748 120.441 84.9375 c 0
 119.842 90.7354 117.323 96.3555 113.882 100.594 c 0
 113.79 100.708 113.691 100.825 113.601 100.938 c 0
 110.442 102.268 107.021 103.131 103.538 103.312 c 0
 102.872 103.352 102.188 103.385 101.507 103.375 c 0
EndSplineSet
EndChar

StartChar: semicolon
Encoding: 59 59 64
Width: 194
VWidth: 0
Flags: W
HStem: 5.40625 17.25<55.832 88.0111> 301.375 28.4365<76.2728 112.452>
VStem: 43.1318 29.2188<253.694 297.789> 119.441 29.3154<45.4656 124.016 254.834 298.933>
LayerCount: 2
Fore
SplineSet
97.7881 329.812 m 0
 97.8828 329.812 97.9746 329.812 98.0684 329.812 c 0
 99.1094 329.82 100.171 329.785 101.257 329.719 c 0
 104.864 329.486 108.646 328.843 112.476 327.656 c 0
 121.867 324.866 129.788 319.671 135.632 313.469 c 0
 139.981 308.823 143.1 303.707 145.191 298.688 c 0
 147.289 293.668 148.361 288.723 148.691 284.188 c 0
 148.811 282.544 148.814 280.979 148.757 279.469 c 0
 149.081 270.864 147.38 261.959 143.382 253.656 c 0
 141.694 250.186 139.646 246.875 137.257 243.812 c 0
 132.365 237.554 126.238 232.503 119.413 228.938 c 0
 111.727 224.955 103.497 223.038 95.4756 222.875 c 0
 95.002 222.854 94.5205 222.851 94.0381 222.844 c 0
 93.9434 222.845 93.8506 222.843 93.7568 222.844 c 0
 92.7129 222.836 91.6572 222.871 90.5693 222.938 c 0
 87.5391 223.133 84.3936 223.645 81.1943 224.5 c 0
 80.5703 224.66 79.9619 224.819 79.3506 225 c 0
 79.3105 225.013 79.2656 225.019 79.2256 225.031 c 0
 69.8721 227.828 62.0176 233.006 56.1943 239.188 c 0
 51.8408 243.833 48.6953 248.949 46.6006 253.969 c 0
 44.5049 258.988 43.4619 263.934 43.1318 268.469 c 0
 43.0146 270.123 42.9766 271.698 43.0381 273.219 c 0
 42.7188 281.812 44.4199 290.707 48.4131 299 c 0
 50.0977 302.471 52.1777 305.781 54.5693 308.844 c 0
 59.458 315.103 65.585 320.153 72.4131 323.719 c 0
 80.5586 327.939 89.3174 329.864 97.7881 329.812 c 0
100.507 301.375 m 0
 95.7441 301.304 90.7061 300.029 86.4443 297.562 c 0
 83.3652 295.809 80.5088 293.326 78.1943 290.375 c 0
 77.0625 288.932 76.082 287.386 75.2881 285.812 c 0
 72.7471 280.86 71.7686 274.981 72.3506 269.719 c 0
 72.9531 263.921 75.5 258.301 78.9443 254.062 c 0
 79.0449 253.938 79.1543 253.811 79.2568 253.688 c 0
 82.3975 252.37 85.8262 251.524 89.2881 251.344 c 0
 94.6172 251.033 100.479 252.274 105.351 255.094 c 0
 108.43 256.848 111.314 259.361 113.632 262.312 c 0
 114.764 263.756 115.741 265.271 116.538 266.844 c 0
 119.076 271.796 120.023 277.675 119.441 282.938 c 0
 118.842 288.735 116.323 294.355 112.882 298.594 c 0
 112.79 298.708 112.691 298.825 112.601 298.938 c 0
 109.442 300.268 106.021 301.131 102.538 301.312 c 0
 101.872 301.352 101.188 301.385 100.507 301.375 c 0
120.816 132.531 m 4
 122.058 132.613 123.655 132.198 125.538 131.219 c 4
 128.545 129.651 132.271 126.629 136.007 121.938 c 4
 139.74 117.246 143.48 110.87 146.101 102.938 c 4
 148.719 95.0049 150.207 85.5117 149.476 75.1875 c 4
 148.715 65.0449 145.783 54.4004 140.476 44.5 c 4
 134.586 33.5186 126.295 24.4893 117.257 18.0625 c 4
 109.171 12.3594 100.711 8.81934 92.9756 6.9375 c 4
 85.2402 5.05566 78.2412 4.80664 72.5693 5.40625 c 4
 66.8975 6.00586 62.5635 7.42773 59.7568 9.03125 c 4
 56.9502 10.6348 55.6396 12.3936 55.8193 14 c 4
 55.999 15.6064 57.6279 16.9541 60.2256 18.2812 c 4
 62.8232 19.6084 66.4141 20.9473 70.6318 22.6562 c 4
 74.8496 24.3652 79.6865 26.4512 84.7256 29.2812 c 4
 89.7646 32.1113 95.0195 35.6875 99.7881 40.1562 c 4
 105.158 45.1328 110.103 51.415 114.007 58.6875 c 4
 117.523 65.2441 119.897 72.0645 121.163 78.625 c 4
 122.485 85.2803 122.708 91.8574 122.351 97.875 c 4
 121.99 103.893 121.063 109.336 120.132 114 c 4
 119.194 118.664 118.255 122.569 117.882 125.594 c 4
 117.509 128.618 117.701 130.807 118.976 131.875 c 4
 119.45 132.275 120.073 132.481 120.816 132.531 c 4
EndSplineSet
EndChar

StartChar: adieresis
Encoding: 228 228 65
Width: 380
VWidth: 0
Flags: W
HStem: 0.0625 22.5625<156.286 260.31> 308.781 21.125<160.22 260.348> 535.46 28.4688<75.3148 117.695 259.815 295.995>
VStem: 39.0051 30.0312<101.658 228.758> 42.1738 29.2188<487.84 531.554> 118.518 29.3125<488.95 533.048> 226.674 29.2188<487.84 531.554> 300.255 30<50.5823 295.113> 302.986 29.3438<488.95 533.048>
LayerCount: 2
Fore
SplineSet
96.8301 563.929 m 4xee
 96.9746 563.928 97.1221 563.931 97.2676 563.929 c 4
 98.2588 563.933 99.2676 563.897 100.299 563.835 c 4
 102.627 563.685 105.016 563.336 107.455 562.804 c 4
 108.799 562.51 110.156 562.193 111.518 561.772 c 4
 111.62 561.742 111.728 561.71 111.83 561.679 c 4
 121.1 558.868 128.889 553.693 134.674 547.554 c 4
 139.026 542.908 142.141 537.823 144.236 532.804 c 4
 146.331 527.784 147.406 522.839 147.736 518.304 c 4
 147.854 516.638 147.894 515.052 147.83 513.522 c 4
 148.148 504.929 146.416 496.033 142.424 487.741 c 4
 140.739 484.271 138.69 480.991 136.299 477.929 c 4
 131.41 471.67 125.283 466.619 118.455 463.054 c 4
 110.778 459.076 102.56 457.159 94.5488 456.991 c 4
 94.0713 456.97 93.5674 456.967 93.0801 456.96 c 4
 92.374 456.964 91.6562 456.959 90.9551 456.991 c 4
 90.5068 457.005 90.0664 456.994 89.6113 457.022 c 4
 86 457.255 82.2227 457.93 78.3926 459.116 c 4
 78.3301 459.136 78.2666 459.159 78.2051 459.179 c 4
 77.748 459.315 77.3105 459.468 76.8613 459.616 c 4
 76.7275 459.662 76.5889 459.693 76.4551 459.741 c 4
 76.4453 459.744 76.4326 459.738 76.4238 459.741 c 4
 67.8857 462.643 60.6689 467.536 55.2363 473.304 c 4
 50.8828 477.949 47.7686 483.034 45.6738 488.054 c 4
 43.5781 493.073 42.5039 498.019 42.1738 502.554 c 4
 42.0566 504.208 42.0176 505.814 42.0801 507.335 c 4
 41.7607 515.93 43.4932 524.823 47.4863 533.116 c 4
 49.1709 536.587 51.2197 539.897 53.6113 542.96 c 4
 58.499 549.219 64.626 554.27 71.4551 557.835 c 4
 79.6006 562.056 88.3594 563.98 96.8301 563.929 c 4xee
281.33 563.929 m 4
 281.475 563.928 281.622 563.931 281.768 563.929 c 4
 282.759 563.933 283.768 563.897 284.799 563.835 c 4
 288.409 563.603 292.187 562.958 296.018 561.772 c 4
 305.423 558.983 313.325 553.762 319.174 547.554 c 4
 323.526 542.908 326.642 537.823 328.736 532.804 c 4
 330.831 527.784 331.906 522.839 332.236 518.304 c 4
 332.354 516.638 332.394 515.052 332.33 513.522 c 4xe680
 332.648 504.929 330.916 496.033 326.924 487.741 c 4
 325.239 484.271 323.19 480.991 320.799 477.929 c 4
 315.91 471.67 309.783 466.619 302.955 463.054 c 4
 295.278 459.076 287.06 457.159 279.049 456.991 c 4
 278.571 456.97 278.067 456.967 277.58 456.96 c 4
 276.874 456.964 276.156 456.959 275.455 456.991 c 4
 275.008 457.005 274.566 456.994 274.111 457.022 c 4
 270.441 457.259 266.599 457.956 262.705 459.179 c 4
 262.248 459.315 261.811 459.468 261.361 459.616 c 4
 261.228 459.662 261.089 459.693 260.955 459.741 c 4
 252.404 462.642 245.175 467.53 239.736 473.304 c 4
 235.383 477.949 232.269 483.034 230.174 488.054 c 4
 228.078 493.073 227.004 498.019 226.674 502.554 c 4
 226.557 504.208 226.518 505.814 226.58 507.335 c 4
 226.261 515.93 227.993 524.823 231.986 533.116 c 4
 233.671 536.587 235.72 539.897 238.111 542.96 c 4
 242.999 549.219 249.126 554.27 255.955 557.835 c 4
 264.101 562.056 272.859 563.98 281.33 563.929 c 4
99.5488 535.46 m 4
 94.7871 535.389 89.7793 534.114 85.5176 531.647 c 4
 82.4385 529.894 79.5498 527.41 77.2363 524.46 c 4
 76.1035 523.017 75.124 521.502 74.3301 519.929 c 4
 71.7881 514.977 70.8105 509.098 71.3926 503.835 c 4xee
 71.9951 498.037 74.542 492.386 77.9863 488.147 c 4
 78.0742 488.037 78.1777 487.943 78.2676 487.835 c 4
 81.4229 486.505 84.8477 485.642 88.3301 485.46 c 4
 93.6592 485.148 99.5215 486.391 104.393 489.21 c 4
 107.472 490.964 110.359 493.446 112.674 496.397 c 4
 113.806 497.841 114.786 499.387 115.58 500.96 c 4
 118.121 505.912 119.099 511.791 118.518 517.054 c 4
 117.914 522.852 115.368 528.472 111.924 532.71 c 4
 111.832 532.824 111.735 532.941 111.643 533.054 c 4
 108.488 534.383 105.061 535.247 101.58 535.429 c 4
 100.914 535.468 100.229 535.47 99.5488 535.46 c 4
284.049 535.46 m 4
 279.287 535.389 274.279 534.114 270.018 531.647 c 4
 266.938 529.894 264.05 527.41 261.736 524.46 c 4
 260.604 523.017 259.624 521.502 258.83 519.929 c 4
 256.288 514.977 255.311 509.098 255.893 503.835 c 4
 256.495 498.037 259.042 492.386 262.486 488.147 c 4
 262.574 488.037 262.678 487.943 262.768 487.835 c 4
 265.923 486.505 269.348 485.642 272.83 485.46 c 4
 278.159 485.148 284.021 486.391 288.893 489.21 c 4
 291.972 490.964 294.859 493.446 297.174 496.397 c 4
 298.306 497.841 299.286 499.387 300.08 500.96 c 4
 302.621 505.912 303.567 511.791 302.986 517.054 c 4xe680
 302.383 522.852 299.868 528.472 296.424 532.71 c 4
 296.332 532.824 296.235 532.941 296.143 533.054 c 4
 292.988 534.383 289.561 535.247 286.08 535.429 c 4
 285.414 535.468 284.729 535.47 284.049 535.46 c 4
EndSplineSet
Refer: 26 97 N 1 0 0 1 1.00026 0 2
EndChar

StartChar: atilde
Encoding: 227 227 67
Width: 383
VWidth: 0
Flags: W
HStem: 0.0625 22.5625<157.359 261.382> 308.781 21.125<161.293 261.42>
VStem: 37.3506 300.5 40.0776 30.0312<101.658 228.758> 301.328 30<50.5823 295.113>
LayerCount: 2
Fore
SplineSet
123.663 521.062 m 4xe0
 134.312 521.113 144.62 519.402 153.757 516.156 c 4
 186.103 504.663 199.723 466.267 237.382 459 c 4
 246.307 457.278 256.275 456.467 266.476 458.156 c 4
 275.798 459.7 284.423 462.898 291.663 467.156 c 4
 298.705 471.224 304.652 476.395 309.538 481.656 c 4
 314.424 486.918 318.256 492.271 321.288 496.969 c 4
 324.319 501.667 326.569 505.713 328.538 508.562 c 4
 330.507 511.412 332.213 513.061 333.851 512.906 c 4
 335.488 512.752 336.968 510.775 337.851 507.031 c 4
 338.733 503.287 338.984 497.769 337.819 490.938 c 4
 336.654 484.106 334.04 475.953 329.163 467.594 c 4
 324.286 459.234 317.123 450.688 307.444 443.562 c 4
 297.406 436.255 284.962 430.786 271.382 428.531 c 4
 256.523 426.064 241.726 427.566 229.163 432.156 c 4
 196.929 443.934 185.169 483.773 145.819 489.344 c 4
 135.964 490.739 125.075 492.038 113.882 490.188 c 4
 104.13 488.575 95.0889 485.363 87.3818 481.062 c 4
 79.7334 476.856 73.2139 471.522 67.8193 466.094 c 4
 62.4248 460.665 58.166 455.131 54.7568 450.281 c 4
 51.3477 445.432 48.751 441.249 46.5693 438.344 c 4
 44.3877 435.438 42.5762 433.805 40.9443 434.062 c 4
 39.3125 434.32 37.9766 436.482 37.3506 440.438 c 4
 36.7246 444.393 36.8428 450.153 38.4756 457.188 c 4
 40.1084 464.222 43.2969 472.515 48.7568 480.969 c 4
 54.2168 489.423 61.9609 498.012 72.1943 505.094 c 4
 82.5742 512.211 95.2266 517.532 108.976 519.812 c 4
 113.907 520.631 118.823 521.039 123.663 521.062 c 4xe0
EndSplineSet
Refer: 26 97 N 1 0 0 1 2.07269 0 2
EndChar

StartChar: aacute
Encoding: 225 225 69
Width: 377
VWidth: 0
Flags: W
HStem: 0.0625 22.5625<154.286 258.31> 308.781 21.125<158.22 258.348>
VStem: 37.0052 30.0312<101.658 228.758> 298.255 30<50.5823 295.113>
LayerCount: 2
Fore
SplineSet
274.931 565.531 m 4
 266.462 566.537 240.663 536.266 215.587 495.469 c 4
 189.278 452.666 173.658 414.398 180.712 410.062 c 4
 187.766 405.727 214.841 436.947 241.149 479.75 c 4
 267.459 522.553 283.109 560.82 276.056 565.156 c 4
 275.726 565.359 275.348 565.481 274.931 565.531 c 4
EndSplineSet
Refer: 26 97 N 1 0 0 1 -0.999716 0 2
EndChar

StartChar: agrave
Encoding: 224 224 70
Width: 377
VWidth: 0
Flags: W
HStem: 0.1875 22.5312<154.286 258.31> 308.906 21.0938<158.22 258.104>
VStem: 37.0049 30.0312<101.752 228.852> 298.255 30<50.676 294.994>
LayerCount: 2
Fore
SplineSet
151.692 565.531 m 4
 160.161 566.537 185.96 536.266 211.036 495.469 c 4
 237.345 452.666 252.965 414.398 245.911 410.062 c 4
 238.857 405.727 211.782 436.947 185.474 479.75 c 4
 159.164 522.553 143.514 560.82 150.567 565.156 c 4
 150.897 565.359 151.275 565.481 151.692 565.531 c 4
312.442 354.031 m 0
 320.722 354.068 327.813 274.778 328.255 177.062 c 0
 328.695 79.3467 322.315 0.0371094 314.036 0 c 0
 310.345 -0.0166016 306.893 15.7334 304.161 41.8438 c 1
 301.842 39.2422 298.741 36.1826 294.755 32.8438 c 0
 289.061 28.0732 281.578 22.7627 272.099 17.7188 c 0
 262.618 12.6748 251.128 7.92383 237.724 4.625 c 0
 225.459 1.61328 211.653 -0.149414 196.755 0.1875 c 0
 181.856 0.524414 165.883 2.94531 149.755 8.28125 c 0
 128.763 15.2656 107.811 27.2676 89.6299 44.25 c 0
 71.4492 61.2324 56.0586 83.1953 46.7236 108.875 c 0
 40.2158 126.948 36.8535 146.521 37.0049 166.406 c 0
 37.123 182.067 39.4131 197.472 43.5986 212.062 c 0
 47.7842 226.653 53.8535 240.411 61.5361 252.906 c 0
 76.1709 276.55 96.0938 294.929 117.38 307.688 c 0
 138.666 320.446 161.309 327.588 182.599 330 c 0
 204.935 332.476 225.322 329.862 242.38 325.062 c 0
 259.437 320.263 273.202 313.319 283.599 306.531 c 0
 291.251 301.535 297.093 296.635 301.38 292.438 c 1
 303.961 330.069 307.904 354.011 312.442 354.031 c 0
209.974 308.906 m 0
 202.218 308.829 194.162 308.117 185.942 306.625 c 0
 168.021 303.426 149.195 296.286 131.692 284.781 c 0
 114.189 273.276 98.0059 257.415 86.5049 237.812 c 0
 74.2959 217.177 67.2578 192.069 67.0361 166.156 c 0
 66.8945 149.706 69.499 133.584 74.6611 118.812 c 0
 81.9248 97.7744 94.3564 79.2148 109.13 64.5 c 0
 123.902 49.7852 141.019 38.9053 158.317 32.1562 c 0
 171.678 26.915 185.2 23.9639 198.036 22.7188 c 0
 210.871 21.4736 223.029 21.9434 234.036 23.5 c 0
 246.068 25.1953 256.762 28.1748 265.942 31.4688 c 0
 275.123 34.7627 282.778 38.3789 288.974 41.5312 c 0
 295.169 44.6836 299.908 47.3818 303.286 49.0625 c 0
 303.356 49.0977 303.404 49.1221 303.474 49.1562 c 0
 300.477 81.374 298.481 126.698 298.255 176.938 c 0
 298.075 216.732 299.039 253.354 300.786 282.938 c 1
 295.305 285.923 287.528 290.319 277.224 294.781 c 0
 266.757 299.313 253.631 303.881 238.13 306.562 c 0
 229.41 308.071 219.944 309.005 209.974 308.906 c 0
EndSplineSet
EndChar

StartChar: egrave
Encoding: 232 232 71
Width: 390
VWidth: 0
Flags: W
HStem: 203.938 29.9678<81.7678 343.063> 306.5 24.8438<150.468 263.478>
VStem: 37.0188 30<103.404 208.45> 344.831 4.59375<106.484 112.958>
LayerCount: 2
Fore
SplineSet
103.837 565.531 m 4
 112.306 566.537 138.104 536.266 163.181 495.469 c 4
 189.489 452.666 205.109 414.398 198.056 410.062 c 4
 191.002 405.727 163.927 436.947 137.618 479.75 c 4
 111.309 522.553 95.6582 560.82 102.712 565.156 c 4
 103.042 565.359 103.42 565.481 103.837 565.531 c 4
EndSplineSet
Refer: 30 101 N 1 0 0 1 -0.999737 0 2
EndChar

StartChar: eacute
Encoding: 233 233 72
Width: 390
VWidth: 0
Flags: W
HStem: 203.938 29.9678<81.7678 343.063> 306.5 24.8438<150.468 263.478>
VStem: 37.0188 30<103.404 208.45> 344.831 4.59375<106.484 112.958>
LayerCount: 2
Fore
SplineSet
264.931 565.531 m 4
 256.462 566.537 230.663 536.266 205.587 495.469 c 4
 179.278 452.666 163.658 414.398 170.712 410.062 c 4
 177.766 405.727 204.841 436.947 231.149 479.75 c 4
 257.459 522.553 273.109 560.82 266.056 565.156 c 4
 265.726 565.359 265.348 565.481 264.931 565.531 c 4
EndSplineSet
Refer: 30 101 N 1 0 0 1 -0.999737 0 2
EndChar

StartChar: edieresis
Encoding: 235 235 74
Width: 390
VWidth: 0
Flags: W
HStem: 203.938 29.9678<81.7678 343.063> 306.5 24.8438<150.468 263.478> 535.46 28.4688<83.3148 125.695 267.815 303.995>
VStem: 37.0188 30<103.404 208.45> 50.1738 29.2188<487.84 531.554> 126.518 29.3125<488.95 533.048> 234.674 29.2188<487.84 531.554> 310.986 29.3438<488.95 533.048> 344.831 4.59375<106.484 112.958>
LayerCount: 2
Fore
SplineSet
104.83 563.929 m 4xef80
 104.975 563.928 105.122 563.931 105.268 563.929 c 4
 106.259 563.933 107.268 563.897 108.299 563.835 c 4
 110.627 563.685 113.016 563.336 115.455 562.804 c 4
 116.799 562.51 118.156 562.193 119.518 561.772 c 4
 119.62 561.742 119.728 561.71 119.83 561.679 c 4
 129.1 558.868 136.889 553.693 142.674 547.554 c 4
 147.026 542.908 150.141 537.823 152.236 532.804 c 4
 154.331 527.784 155.406 522.839 155.736 518.304 c 4
 155.854 516.638 155.894 515.052 155.83 513.522 c 4
 156.148 504.929 154.416 496.033 150.424 487.741 c 4
 148.739 484.271 146.69 480.991 144.299 477.929 c 4
 139.41 471.67 133.283 466.619 126.455 463.054 c 4
 118.778 459.076 110.56 457.159 102.549 456.991 c 4
 102.071 456.97 101.567 456.967 101.08 456.96 c 4
 100.374 456.964 99.6562 456.959 98.9551 456.991 c 4
 98.5068 457.005 98.0664 456.994 97.6113 457.022 c 4
 94 457.255 90.2227 457.93 86.3926 459.116 c 4
 86.3301 459.136 86.2666 459.159 86.2051 459.179 c 4
 85.748 459.315 85.3105 459.468 84.8613 459.616 c 4
 84.7275 459.662 84.5889 459.693 84.4551 459.741 c 4
 84.4453 459.744 84.4326 459.738 84.4238 459.741 c 4
 75.8857 462.643 68.6689 467.536 63.2363 473.304 c 4
 58.8828 477.949 55.7686 483.034 53.6738 488.054 c 4
 51.5781 493.073 50.5039 498.019 50.1738 502.554 c 4
 50.0566 504.208 50.0176 505.814 50.0801 507.335 c 4
 49.7607 515.93 51.4932 524.823 55.4863 533.116 c 4
 57.1709 536.587 59.2197 539.897 61.6113 542.96 c 4
 66.499 549.219 72.626 554.27 79.4551 557.835 c 4
 87.6006 562.056 96.3594 563.98 104.83 563.929 c 4xef80
289.33 563.929 m 4
 289.475 563.928 289.622 563.931 289.768 563.929 c 4
 290.759 563.933 291.768 563.897 292.799 563.835 c 4
 296.409 563.603 300.187 562.958 304.018 561.772 c 4
 313.423 558.983 321.325 553.762 327.174 547.554 c 4
 331.526 542.908 334.642 537.823 336.736 532.804 c 4
 338.831 527.784 339.906 522.839 340.236 518.304 c 4
 340.354 516.638 340.394 515.052 340.33 513.522 c 4
 340.648 504.929 338.916 496.033 334.924 487.741 c 4
 333.239 484.271 331.19 480.991 328.799 477.929 c 4
 323.91 471.67 317.783 466.619 310.955 463.054 c 4
 303.278 459.076 295.06 457.159 287.049 456.991 c 4
 286.571 456.97 286.067 456.967 285.58 456.96 c 4
 284.874 456.964 284.156 456.959 283.455 456.991 c 4
 283.008 457.005 282.566 456.994 282.111 457.022 c 4
 278.441 457.259 274.599 457.956 270.705 459.179 c 4
 270.248 459.315 269.811 459.468 269.361 459.616 c 4
 269.228 459.662 269.089 459.693 268.955 459.741 c 4
 260.404 462.642 253.175 467.53 247.736 473.304 c 4
 243.383 477.949 240.269 483.034 238.174 488.054 c 4
 236.078 493.073 235.004 498.019 234.674 502.554 c 4
 234.557 504.208 234.518 505.814 234.58 507.335 c 4
 234.261 515.93 235.993 524.823 239.986 533.116 c 4
 241.671 536.587 243.72 539.897 246.111 542.96 c 4
 250.999 549.219 257.126 554.27 263.955 557.835 c 4
 272.101 562.056 280.859 563.98 289.33 563.929 c 4
107.549 535.46 m 4
 102.787 535.389 97.7793 534.114 93.5176 531.647 c 4
 90.4385 529.894 87.5498 527.41 85.2363 524.46 c 4
 84.1035 523.017 83.124 521.502 82.3301 519.929 c 4
 79.7881 514.977 78.8105 509.098 79.3926 503.835 c 4
 79.9951 498.037 82.542 492.386 85.9863 488.147 c 4
 86.0742 488.037 86.1777 487.943 86.2676 487.835 c 4
 89.4229 486.505 92.8477 485.642 96.3301 485.46 c 4
 101.659 485.148 107.521 486.391 112.393 489.21 c 4
 115.472 490.964 118.359 493.446 120.674 496.397 c 4
 121.806 497.841 122.786 499.387 123.58 500.96 c 4
 126.121 505.912 127.099 511.791 126.518 517.054 c 4
 125.914 522.852 123.368 528.472 119.924 532.71 c 4
 119.832 532.824 119.735 532.941 119.643 533.054 c 4
 116.488 534.383 113.061 535.247 109.58 535.429 c 4
 108.914 535.468 108.229 535.47 107.549 535.46 c 4
292.049 535.46 m 4
 287.287 535.389 282.279 534.114 278.018 531.647 c 4
 274.938 529.894 272.05 527.41 269.736 524.46 c 4
 268.604 523.017 267.624 521.502 266.83 519.929 c 4
 264.288 514.977 263.311 509.098 263.893 503.835 c 4
 264.495 498.037 267.042 492.386 270.486 488.147 c 4
 270.574 488.037 270.678 487.943 270.768 487.835 c 4
 273.923 486.505 277.348 485.642 280.83 485.46 c 4
 286.159 485.148 292.021 486.391 296.893 489.21 c 4
 299.972 490.964 302.859 493.446 305.174 496.397 c 4
 306.306 497.841 307.286 499.387 308.08 500.96 c 4
 310.621 505.912 311.567 511.791 310.986 517.054 c 4
 310.383 522.852 307.868 528.472 304.424 532.71 c 4
 304.332 532.824 304.235 532.941 304.143 533.054 c 4
 300.988 534.383 297.561 535.247 294.08 535.429 c 4
 293.414 535.468 292.729 535.47 292.049 535.46 c 4
EndSplineSet
Refer: 30 101 N 1 0 0 1 -0.999737 0 2
EndChar

StartChar: ntilde
Encoding: 241 241 75
Width: 394
VWidth: 0
Flags: W
VStem: 43.8031 27.7812<0.367753 215.838 254.906 352.895> 326.178 22.0312<25.9414 188.127> 326.178 7.5625<3.37595 27.0207>
LayerCount: 2
Fore
SplineSet
134.594 521.062 m 4x80
 145.242 521.113 155.551 519.402 164.688 516.156 c 4
 197.033 504.663 210.653 466.267 248.312 459 c 4
 257.237 457.278 267.206 456.467 277.406 458.156 c 4
 286.729 459.7 295.354 462.898 302.594 467.156 c 4
 309.636 471.224 315.583 476.395 320.469 481.656 c 4
 325.354 486.918 329.187 492.271 332.219 496.969 c 4
 335.25 501.667 337.5 505.713 339.469 508.562 c 4
 341.438 511.412 343.144 513.061 344.781 512.906 c 4
 346.419 512.752 347.898 510.775 348.781 507.031 c 4
 349.664 503.287 349.915 497.769 348.75 490.938 c 4
 347.585 484.106 344.971 475.953 340.094 467.594 c 4
 335.217 459.234 328.054 450.688 318.375 443.562 c 4
 308.337 436.255 295.893 430.786 282.312 428.531 c 4
 267.454 426.064 252.656 427.566 240.094 432.156 c 4
 207.859 443.934 196.1 483.773 156.75 489.344 c 4
 146.895 490.739 136.006 492.038 124.812 490.188 c 4
 115.061 488.575 106.02 485.363 98.3125 481.062 c 4
 90.6641 476.856 84.1445 471.522 78.75 466.094 c 4
 73.3555 460.665 69.0967 455.131 65.6875 450.281 c 4
 62.2783 445.432 59.6816 441.249 57.5 438.344 c 4
 55.3184 435.438 53.5068 433.805 51.875 434.062 c 4
 50.2432 434.32 48.9072 436.482 48.2812 440.438 c 4
 47.6553 444.393 47.7734 450.153 49.4062 457.188 c 4
 51.0391 464.222 54.2275 472.515 59.6875 480.969 c 4
 65.1475 489.423 72.8916 498.012 83.125 505.094 c 4
 93.5049 512.211 106.157 517.532 119.906 519.812 c 4
 124.838 520.631 129.754 521.039 134.594 521.062 c 4x80
EndSplineSet
Refer: 39 110 N 1 0 0 1 -0.999586 0 2
EndChar

StartChar: ograve
Encoding: 242 242 76
Width: 401
VWidth: 0
Flags: W
HStem: 5.96875 28.625<128.512 267.85> 299.25 30<135.789 260.164>
VStem: 38.1617 21.1875<116.258 212.71> 336.384 21.375<116.679 212.289>
LayerCount: 2
Fore
SplineSet
105.837 565.531 m 4
 114.306 566.537 140.104 536.266 165.181 495.469 c 4
 191.489 452.666 207.109 414.398 200.056 410.062 c 4
 193.002 405.727 165.927 436.947 139.618 479.75 c 4
 113.309 522.553 97.6582 560.82 104.712 565.156 c 4
 105.042 565.359 105.42 565.481 105.837 565.531 c 4
EndSplineSet
Refer: 40 111 N 1 0 0 1 -0.999422 0 2
EndChar

StartChar: oacute
Encoding: 243 243 77
Width: 401
VWidth: 0
Flags: W
HStem: 5.96875 28.625<128.512 267.85> 299.25 30<135.789 260.164>
VStem: 38.1617 21.1875<116.258 212.71> 336.384 21.375<116.679 212.289>
LayerCount: 2
Fore
SplineSet
238.931 565.531 m 4
 230.462 566.537 204.663 536.266 179.587 495.469 c 4
 153.278 452.666 137.658 414.398 144.712 410.062 c 4
 151.766 405.727 178.841 436.947 205.149 479.75 c 4
 231.459 522.553 247.109 560.82 240.056 565.156 c 4
 239.726 565.359 239.348 565.481 238.931 565.531 c 4
EndSplineSet
Refer: 40 111 N 1 0 0 1 -0.999422 0 2
EndChar

StartChar: otilde
Encoding: 245 245 79
Width: 402
VWidth: 0
Flags: W
HStem: 5.96875 28.625<129.512 268.85> 299.25 30<136.789 261.164>
VStem: 39.1617 21.1875<116.258 212.71> 337.384 21.375<116.679 212.289>
LayerCount: 2
Fore
SplineSet
134.59 521.062 m 4
 145.238 521.113 155.547 519.402 164.684 516.156 c 4
 197.029 504.663 210.649 466.267 248.309 459 c 4
 257.233 457.278 267.202 456.467 277.402 458.156 c 4
 286.725 459.7 295.35 462.898 302.59 467.156 c 4
 309.632 471.224 315.579 476.395 320.465 481.656 c 4
 325.351 486.918 329.183 492.271 332.215 496.969 c 4
 335.246 501.667 337.496 505.713 339.465 508.562 c 4
 341.434 511.412 343.14 513.061 344.777 512.906 c 4
 346.415 512.752 347.895 510.775 348.777 507.031 c 4
 349.66 503.287 349.911 497.769 348.746 490.938 c 4
 347.581 484.106 344.967 475.953 340.09 467.594 c 4
 335.213 459.234 328.05 450.688 318.371 443.562 c 4
 308.333 436.255 295.889 430.786 282.309 428.531 c 4
 267.45 426.064 252.652 427.566 240.09 432.156 c 4
 207.855 443.934 196.096 483.773 156.746 489.344 c 4
 146.891 490.739 136.002 492.038 124.809 490.188 c 4
 115.057 488.575 106.016 485.363 98.3086 481.062 c 4
 90.6602 476.856 84.1406 471.522 78.7461 466.094 c 4
 73.3516 460.665 69.0928 455.131 65.6836 450.281 c 4
 62.2744 445.432 59.6777 441.249 57.4961 438.344 c 4
 55.3145 435.438 53.5029 433.805 51.8711 434.062 c 4
 50.2393 434.32 48.9033 436.482 48.2773 440.438 c 4
 47.6514 444.393 47.7695 450.153 49.4023 457.188 c 4
 51.0352 464.222 54.2236 472.515 59.6836 480.969 c 4
 65.1436 489.423 72.8877 498.012 83.1211 505.094 c 4
 93.501 512.211 106.153 517.532 119.902 519.812 c 4
 124.834 520.631 129.75 521.039 134.59 521.062 c 4
EndSplineSet
Refer: 40 111 N 1 0 0 1 0.000577977 0 2
EndChar

StartChar: odieresis
Encoding: 246 246 80
Width: 403
VWidth: 0
Flags: W
HStem: 5.96875 28.625<130.511 269.85> 299.25 30<137.789 262.164> 535.46 28.4688<74.3089 116.689 258.809 294.989>
VStem: 40.1617 21.1875<116.258 212.71> 41.168 29.2188<487.84 531.554> 117.512 29.3125<488.95 533.048> 225.668 29.2188<487.84 531.554> 301.98 29.3438<488.95 533.048> 338.384 21.375<116.679 212.289>
LayerCount: 2
Fore
SplineSet
95.8242 563.929 m 4xef80
 95.9688 563.928 96.1162 563.931 96.2617 563.929 c 4
 97.2529 563.933 98.2617 563.897 99.293 563.835 c 4
 101.621 563.685 104.01 563.336 106.449 562.804 c 4
 107.793 562.51 109.15 562.193 110.512 561.772 c 4
 110.614 561.742 110.722 561.71 110.824 561.679 c 4
 120.094 558.868 127.883 553.693 133.668 547.554 c 4
 138.021 542.908 141.135 537.823 143.23 532.804 c 4
 145.325 527.784 146.4 522.839 146.73 518.304 c 4
 146.848 516.638 146.888 515.052 146.824 513.522 c 4
 147.143 504.929 145.41 496.033 141.418 487.741 c 4
 139.733 484.271 137.685 480.991 135.293 477.929 c 4
 130.404 471.67 124.277 466.619 117.449 463.054 c 4
 109.772 459.076 101.554 457.159 93.543 456.991 c 4
 93.0654 456.97 92.5615 456.967 92.0742 456.96 c 4
 91.3682 456.964 90.6504 456.959 89.9492 456.991 c 4
 89.501 457.005 89.0605 456.994 88.6055 457.022 c 4
 84.9941 457.255 81.2168 457.93 77.3867 459.116 c 4
 77.3242 459.136 77.2607 459.159 77.1992 459.179 c 4
 76.7422 459.315 76.3047 459.468 75.8555 459.616 c 4
 75.7217 459.662 75.583 459.693 75.4492 459.741 c 4
 75.4395 459.744 75.4268 459.738 75.418 459.741 c 4
 66.8799 462.643 59.6631 467.536 54.2305 473.304 c 4
 49.877 477.949 46.7627 483.034 44.668 488.054 c 4
 42.5723 493.073 41.498 498.019 41.168 502.554 c 4
 41.0508 504.208 41.0117 505.814 41.0742 507.335 c 4
 40.7549 515.93 42.4873 524.823 46.4805 533.116 c 4
 48.165 536.587 50.2139 539.897 52.6055 542.96 c 4
 57.4932 549.219 63.6201 554.27 70.4492 557.835 c 4
 78.5947 562.056 87.3535 563.98 95.8242 563.929 c 4xef80
280.324 563.929 m 4
 280.469 563.928 280.616 563.931 280.762 563.929 c 4
 281.753 563.933 282.762 563.897 283.793 563.835 c 4
 287.403 563.603 291.181 562.958 295.012 561.772 c 4
 304.417 558.983 312.319 553.762 318.168 547.554 c 4
 322.521 542.908 325.636 537.823 327.73 532.804 c 4
 329.825 527.784 330.9 522.839 331.23 518.304 c 4
 331.348 516.638 331.388 515.052 331.324 513.522 c 4
 331.643 504.929 329.91 496.033 325.918 487.741 c 4
 324.233 484.271 322.185 480.991 319.793 477.929 c 4
 314.904 471.67 308.777 466.619 301.949 463.054 c 4
 294.272 459.076 286.054 457.159 278.043 456.991 c 4
 277.565 456.97 277.062 456.967 276.574 456.96 c 4
 275.868 456.964 275.15 456.959 274.449 456.991 c 4
 274.002 457.005 273.561 456.994 273.105 457.022 c 4
 269.436 457.259 265.593 457.956 261.699 459.179 c 4
 261.242 459.315 260.805 459.468 260.355 459.616 c 4
 260.222 459.662 260.083 459.693 259.949 459.741 c 4
 251.398 462.642 244.169 467.53 238.73 473.304 c 4
 234.377 477.949 231.263 483.034 229.168 488.054 c 4
 227.072 493.073 225.998 498.019 225.668 502.554 c 4
 225.551 504.208 225.512 505.814 225.574 507.335 c 4
 225.255 515.93 226.987 524.823 230.98 533.116 c 4
 232.665 536.587 234.714 539.897 237.105 542.96 c 4
 241.993 549.219 248.12 554.27 254.949 557.835 c 4
 263.095 562.056 271.854 563.98 280.324 563.929 c 4
98.543 535.46 m 4
 93.7812 535.389 88.7734 534.114 84.5117 531.647 c 4
 81.4326 529.894 78.5439 527.41 76.2305 524.46 c 4
 75.0977 523.017 74.1182 521.502 73.3242 519.929 c 4
 70.7822 514.977 69.8047 509.098 70.3867 503.835 c 4
 70.9893 498.037 73.5361 492.386 76.9805 488.147 c 4
 77.0684 488.037 77.1719 487.943 77.2617 487.835 c 4
 80.417 486.505 83.8418 485.642 87.3242 485.46 c 4
 92.6533 485.148 98.5156 486.391 103.387 489.21 c 4
 106.466 490.964 109.354 493.446 111.668 496.397 c 4
 112.8 497.841 113.78 499.387 114.574 500.96 c 4
 117.115 505.912 118.093 511.791 117.512 517.054 c 4
 116.908 522.852 114.362 528.472 110.918 532.71 c 4
 110.826 532.824 110.729 532.941 110.637 533.054 c 4
 107.482 534.383 104.055 535.247 100.574 535.429 c 4
 99.9082 535.468 99.2227 535.47 98.543 535.46 c 4
283.043 535.46 m 4
 278.281 535.389 273.273 534.114 269.012 531.647 c 4
 265.933 529.894 263.044 527.41 260.73 524.46 c 4
 259.598 523.017 258.618 521.502 257.824 519.929 c 4
 255.282 514.977 254.305 509.098 254.887 503.835 c 4
 255.489 498.037 258.036 492.386 261.48 488.147 c 4
 261.568 488.037 261.672 487.943 261.762 487.835 c 4
 264.917 486.505 268.342 485.642 271.824 485.46 c 4
 277.153 485.148 283.016 486.391 287.887 489.21 c 4
 290.966 490.964 293.854 493.446 296.168 496.397 c 4
 297.3 497.841 298.28 499.387 299.074 500.96 c 4
 301.615 505.912 302.562 511.791 301.98 517.054 c 4
 301.377 522.852 298.862 528.472 295.418 532.71 c 4
 295.326 532.824 295.229 532.941 295.137 533.054 c 4
 291.982 534.383 288.555 535.247 285.074 535.429 c 4
 284.408 535.468 283.723 535.47 283.043 535.46 c 4
EndSplineSet
Refer: 40 111 N 1 0 0 1 1.00056 0 2
EndChar

StartChar: ugrave
Encoding: 249 249 82
Width: 391
VWidth: 0
Flags: W
HStem: 1.65625 30<135.648 251.642>
VStem: 40.6199 21.8438<124.504 303.183> 321.37 21.6875<124.311 323.615>
LayerCount: 2
Fore
SplineSet
116.837 565.531 m 4
 125.306 566.537 151.104 536.266 176.181 495.469 c 4
 202.489 452.666 218.109 414.398 211.056 410.062 c 4
 204.002 405.727 176.927 436.947 150.618 479.75 c 4
 124.309 522.553 108.658 560.82 115.712 565.156 c 4
 116.042 565.359 116.42 565.481 116.837 565.531 c 4
EndSplineSet
Refer: 46 117 N 1 0 0 1 -1.00023 0 2
EndChar

StartChar: uacute
Encoding: 250 250 83
Width: 392
VWidth: 0
Flags: W
HStem: 1.65625 30<136.648 252.642>
VStem: 41.6199 21.8438<124.504 303.183> 322.37 21.6875<124.311 323.615>
LayerCount: 2
Fore
SplineSet
235.931 565.531 m 4
 227.462 566.537 201.663 536.266 176.587 495.469 c 4
 150.278 452.666 134.658 414.398 141.712 410.062 c 4
 148.766 405.727 175.841 436.947 202.149 479.75 c 4
 228.459 522.553 244.109 560.82 237.056 565.156 c 4
 236.726 565.359 236.348 565.481 235.931 565.531 c 4
EndSplineSet
Refer: 46 117 N 1 0 0 1 -0.000229581 0 2
EndChar

StartChar: udieresis
Encoding: 252 252 85
Width: 394
VWidth: 0
Flags: W
HStem: 1.65625 30<137.648 253.642> 535.46 28.4688<79.2112 121.592 274.711 310.891>
VStem: 42.6199 21.8438<124.504 303.183> 46.0703 29.2188<487.84 531.554> 122.414 29.3125<488.95 533.048> 241.57 29.2188<487.84 531.554> 317.883 29.3438<488.95 533.048> 323.37 21.6875<124.311 323.615>
LayerCount: 2
Fore
SplineSet
100.727 563.929 m 0xdc
 100.871 563.928 101.019 563.931 101.164 563.929 c 0
 102.155 563.933 103.164 563.897 104.195 563.835 c 0
 106.523 563.685 108.912 563.336 111.352 562.804 c 0
 112.695 562.51 114.053 562.193 115.414 561.772 c 0
 115.517 561.742 115.624 561.71 115.727 561.679 c 0
 124.996 558.868 132.785 553.693 138.57 547.554 c 0
 142.923 542.908 146.037 537.823 148.133 532.804 c 0
 150.228 527.784 151.303 522.839 151.633 518.304 c 0
 151.75 516.638 151.79 515.052 151.727 513.522 c 0
 152.045 504.929 150.312 496.033 146.32 487.741 c 0
 144.636 484.271 142.587 480.991 140.195 477.929 c 0
 135.307 471.67 129.18 466.619 122.352 463.054 c 0
 114.675 459.076 106.456 457.159 98.4453 456.991 c 0
 97.9678 456.97 97.4639 456.967 96.9766 456.96 c 0
 96.2705 456.964 95.5527 456.959 94.8516 456.991 c 0
 94.4033 457.005 93.9629 456.994 93.5078 457.022 c 0
 89.8965 457.255 86.1191 457.93 82.2891 459.116 c 0
 82.2266 459.136 82.1631 459.159 82.1016 459.179 c 0
 81.6445 459.315 81.207 459.468 80.7578 459.616 c 0
 80.624 459.662 80.4854 459.693 80.3516 459.741 c 0
 80.3418 459.744 80.3291 459.738 80.3203 459.741 c 0
 71.7822 462.643 64.5654 467.536 59.1328 473.304 c 0
 54.7793 477.949 51.665 483.034 49.5703 488.054 c 0
 47.4746 493.073 46.4004 498.019 46.0703 502.554 c 0
 45.9531 504.208 45.9141 505.814 45.9766 507.335 c 0
 45.6572 515.93 47.3896 524.823 51.3828 533.116 c 0
 53.0674 536.587 55.1162 539.897 57.5078 542.96 c 0
 62.3955 549.219 68.5225 554.27 75.3516 557.835 c 0
 83.4971 562.056 92.2559 563.98 100.727 563.929 c 0xdc
296.227 563.929 m 0
 296.371 563.928 296.519 563.931 296.664 563.929 c 0
 297.655 563.933 298.664 563.897 299.695 563.835 c 0
 303.306 563.603 307.083 562.958 310.914 561.772 c 0
 320.319 558.983 328.222 553.762 334.07 547.554 c 0
 338.423 542.908 341.538 537.823 343.633 532.804 c 0
 345.728 527.784 346.803 522.839 347.133 518.304 c 0
 347.25 516.638 347.29 515.052 347.227 513.522 c 0xce
 347.545 504.929 345.812 496.033 341.82 487.741 c 0
 340.136 484.271 338.087 480.991 335.695 477.929 c 0
 330.807 471.67 324.68 466.619 317.852 463.054 c 0
 310.175 459.076 301.956 457.159 293.945 456.991 c 0
 293.468 456.97 292.964 456.967 292.477 456.96 c 0
 291.771 456.964 291.053 456.959 290.352 456.991 c 0
 289.904 457.005 289.463 456.994 289.008 457.022 c 0
 285.338 457.259 281.495 457.956 277.602 459.179 c 0
 277.145 459.315 276.707 459.468 276.258 459.616 c 0
 276.124 459.662 275.985 459.693 275.852 459.741 c 0
 267.301 462.642 260.071 467.53 254.633 473.304 c 0
 250.279 477.949 247.165 483.034 245.07 488.054 c 0
 242.975 493.073 241.9 498.019 241.57 502.554 c 0
 241.453 504.208 241.414 505.814 241.477 507.335 c 0
 241.157 515.93 242.89 524.823 246.883 533.116 c 0
 248.567 536.587 250.616 539.897 253.008 542.96 c 0
 257.896 549.219 264.022 554.27 270.852 557.835 c 0
 278.997 562.056 287.756 563.98 296.227 563.929 c 0
103.445 535.46 m 0
 98.6836 535.389 93.6758 534.114 89.4141 531.647 c 0
 86.335 529.894 83.4463 527.41 81.1328 524.46 c 0
 80 523.017 79.0205 521.502 78.2266 519.929 c 0
 75.6846 514.977 74.707 509.098 75.2891 503.835 c 0xdc
 75.8916 498.037 78.4385 492.386 81.8828 488.147 c 0
 81.9707 488.037 82.0742 487.943 82.1641 487.835 c 0
 85.3193 486.505 88.7441 485.642 92.2266 485.46 c 0
 97.5557 485.148 103.418 486.391 108.289 489.21 c 0
 111.368 490.964 114.256 493.446 116.57 496.397 c 0
 117.702 497.841 118.683 499.387 119.477 500.96 c 0
 122.018 505.912 122.995 511.791 122.414 517.054 c 0
 121.811 522.852 119.265 528.472 115.82 532.71 c 0
 115.729 532.824 115.632 532.941 115.539 533.054 c 0
 112.385 534.383 108.957 535.247 105.477 535.429 c 0
 104.811 535.468 104.125 535.47 103.445 535.46 c 0
298.945 535.46 m 0
 294.184 535.389 289.176 534.114 284.914 531.647 c 0
 281.835 529.894 278.946 527.41 276.633 524.46 c 0
 275.5 523.017 274.521 521.502 273.727 519.929 c 0
 271.185 514.977 270.207 509.098 270.789 503.835 c 0
 271.392 498.037 273.938 492.386 277.383 488.147 c 0
 277.471 488.037 277.574 487.943 277.664 487.835 c 0
 280.819 486.505 284.244 485.642 287.727 485.46 c 0
 293.056 485.148 298.918 486.391 303.789 489.21 c 0
 306.868 490.964 309.756 493.446 312.07 496.397 c 0
 313.202 497.841 314.183 499.387 314.977 500.96 c 0
 317.518 505.912 318.464 511.791 317.883 517.054 c 0xce
 317.279 522.852 314.765 528.472 311.32 532.71 c 0
 311.229 532.824 311.132 532.941 311.039 533.054 c 0
 307.885 534.383 304.457 535.247 300.977 535.429 c 0
 300.311 535.468 299.625 535.47 298.945 535.46 c 0
EndSplineSet
Refer: 46 117 N 1 0 0 1 0.999771 0 2
EndChar

StartChar: yacute
Encoding: 253 253 86
Width: 325
VWidth: 0
Flags: W
HStem: -88.9912 24.915<91.4459 183.755> 127.88 28.4355<100.921 214.354>
VStem: 251.771 10.3682<288.4 328.75> 252.142 25.1387<38.6023 171.303 197.67 301.559>
LayerCount: 2
Fore
SplineSet
255.931 565.531 m 4xc0
 247.462 566.537 221.663 536.266 196.587 495.469 c 4
 170.278 452.666 154.658 414.398 161.712 410.062 c 4
 168.766 405.727 195.841 436.947 222.149 479.75 c 4
 248.459 522.553 264.109 560.82 257.056 565.156 c 4
 256.726 565.359 256.348 565.481 255.931 565.531 c 4xc0
254.687 331.234 m 0
 256.505 331.469 259.146 325.062 262.139 313.027 c 0xe0
 265.129 300.992 268.441 283.323 271.262 261.077 c 0
 274.079 238.831 276.379 211.974 277.28 181.752 c 0
 278.187 151.531 277.631 117.947 275.062 82.2832 c 0
 273.733 63.874 271.793 44.377 267.241 24.5039 c 0
 266.021 19.1895 264.627 13.9141 263.045 8.68359 c 0
 259.177 -4.10645 253.896 -16.5078 247.15 -27.8721 c 0
 240.41 -39.2373 232.229 -49.5703 222.714 -58.3975 c 0
 206.757 -72.9648 187.704 -82.2617 168.72 -86.457 c 0
 157.986 -88.8203 147.354 -89.5566 137.229 -88.9912 c 0
 127.104 -88.4258 117.486 -86.5576 108.646 -83.7256 c 0
 97.7217 -80.2178 88.0723 -75.2764 79.8359 -69.6768 c 0
 71.5977 -64.0762 64.7646 -57.8164 59.2451 -51.5176 c 0
 53.1182 -44.5205 48.6309 -37.5205 45.3623 -31.1543 c 0
 42.0947 -24.7881 40.0391 -19.0488 38.7734 -14.3047 c 0
 37.5068 -9.56055 37.0234 -5.80566 37.001 -3.21582 c 0
 36.9805 -0.625977 37.4141 0.801758 38.1797 1.01562 c 0
 38.9453 1.22852 40.0146 0.222656 41.4561 -1.80469 c 0
 42.8965 -3.83105 44.7158 -6.87988 47.1455 -10.6875 c 0
 49.5742 -14.4941 52.6191 -19.0635 56.5654 -24.0117 c 0
 60.5117 -28.959 65.3652 -34.2881 71.3545 -39.4268 c 0
 76.7461 -44.0527 83.0859 -48.5391 90.3701 -52.4092 c 0
 97.6514 -56.2793 105.889 -59.5312 114.846 -61.5957 c 0
 122.092 -63.2656 129.854 -64.166 137.885 -64.0762 c 0
 145.916 -63.9854 154.214 -62.9023 162.396 -60.6396 c 0
 176.888 -56.6348 191.312 -48.8047 203.043 -37.415 c 0
 210.188 -30.623 216.35 -22.376 221.555 -13.0742 c 0
 226.759 -3.77148 231.01 6.58594 234.391 17.4404 c 0
 235.767 21.917 236.976 26.501 238.045 31.1826 c 0
 242.044 48.6904 243.972 66.8027 245.673 84.7109 c 0
 248.495 115.395 250.178 144.535 251.106 171.303 c 1
 247.754 166.506 243.932 161.823 239.627 157.355 c 0
 229.023 146.356 215.491 136.668 199.475 130.192 c 0
 187.277 125.298 173.874 122.364 159.981 121.848 c 0
 146.098 121.332 131.729 123.238 117.857 127.88 c 0
 116.371 128.378 114.893 128.906 113.428 129.464 c 0
 98.8955 135.03 85.9541 143.344 75.2041 153.332 c 0
 64.4551 163.32 55.9004 174.976 49.8027 187.305 c 0
 42.5615 202.028 38.9463 217.373 38.1172 231.827 c 0
 37.2881 246.281 39.2354 259.842 42.9023 271.663 c 0
 46.8311 284.246 52.6074 294.694 58.6943 302.978 c 0
 64.7822 311.261 71.1797 317.4 76.8232 321.779 c 0
 82.4668 326.157 87.3574 328.797 90.8926 330.166 c 0
 94.4258 331.535 96.6016 331.653 97.2158 330.741 c 0
 97.8291 329.83 96.8604 327.936 94.7451 325.05 c 0
 92.6289 322.165 89.3643 318.266 85.6045 313.113 c 0
 81.8477 307.961 77.5889 301.532 73.7148 293.696 c 0
 69.8408 285.859 66.3594 276.597 64.4121 266.18 c 0
 62.583 256.398 62.1133 245.501 63.6621 234.185 c 0
 65.21 222.867 68.7812 211.144 74.8008 200.279 c 0
 79.8457 191.172 86.6875 182.548 95.0508 175.15 c 0
 103.414 167.753 113.282 161.593 124.098 157.497 c 0
 125.188 157.084 126.286 156.688 127.396 156.315 c 0
 137.732 152.84 148.596 151.301 159.15 151.471 c 0
 169.713 151.641 179.959 153.535 189.3 156.844 c 0
 201.563 161.189 212.478 168.062 221.421 176.071 c 0
 230.361 184.082 237.335 193.215 242.358 202.393 c 0
 247.088 211.024 250.167 219.771 252.142 227.903 c 1xd0
 252.179 239.313 252.122 249.97 252.037 259.771 c 0
 251.845 281.832 251.521 299.569 251.771 311.859 c 0xe0
 252.021 324.15 252.868 330.999 254.687 331.234 c 0
EndSplineSet
EndChar

StartChar: ydieresis
Encoding: 255 255 87
Width: 344
VWidth: 0
Flags: W
HStem: -88.9912 24.915<93.4459 185.755> 127.88 28.4355<102.921 216.354> 535.46 28.4688<73.3138 115.694 241.814 277.994>
VStem: 40.1729 29.2188<189.469 293.669 487.84 531.554> 116.517 29.3125<488.95 533.048> 208.673 29.2188<487.84 531.554> 253.771 10.3682<288.4 328.75> 254.142 25.1387<38.6023 171.303 197.67 301.559> 284.985 29.3438<488.95 533.048>
LayerCount: 2
Fore
SplineSet
94.8291 563.929 m 4xfc80
 94.9736 563.928 95.1211 563.931 95.2666 563.929 c 4
 96.2578 563.933 97.2666 563.897 98.2979 563.835 c 4
 100.626 563.685 103.015 563.336 105.454 562.804 c 4
 106.798 562.51 108.155 562.193 109.517 561.772 c 4
 109.619 561.742 109.727 561.71 109.829 561.679 c 4
 119.099 558.868 126.888 553.693 132.673 547.554 c 4
 137.025 542.908 140.14 537.823 142.235 532.804 c 4
 144.33 527.784 145.405 522.839 145.735 518.304 c 4
 145.853 516.638 145.893 515.052 145.829 513.522 c 4
 146.147 504.929 144.415 496.033 140.423 487.741 c 4
 138.738 484.271 136.689 480.991 134.298 477.929 c 4
 129.409 471.67 123.282 466.619 116.454 463.054 c 4
 108.777 459.076 100.559 457.159 92.5479 456.991 c 4
 92.0703 456.97 91.5664 456.967 91.0791 456.96 c 4
 90.373 456.964 89.6553 456.959 88.9541 456.991 c 4
 88.5059 457.005 88.0654 456.994 87.6104 457.022 c 4
 83.999 457.255 80.2217 457.93 76.3916 459.116 c 4
 76.3291 459.136 76.2656 459.159 76.2041 459.179 c 4
 75.7471 459.315 75.3096 459.468 74.8604 459.616 c 4
 74.7266 459.662 74.5879 459.693 74.4541 459.741 c 4
 74.4443 459.744 74.4316 459.738 74.4229 459.741 c 4
 65.8848 462.643 58.668 467.536 53.2354 473.304 c 4
 48.8818 477.949 45.7676 483.034 43.6729 488.054 c 4
 41.5771 493.073 40.5029 498.019 40.1729 502.554 c 4
 40.0557 504.208 40.0166 505.814 40.0791 507.335 c 4
 39.7598 515.93 41.4922 524.823 45.4854 533.116 c 4
 47.1699 536.587 49.2188 539.897 51.6104 542.96 c 4
 56.498 549.219 62.625 554.27 69.4541 557.835 c 4
 77.5996 562.056 86.3584 563.98 94.8291 563.929 c 4xfc80
263.329 563.929 m 4
 263.474 563.928 263.621 563.931 263.767 563.929 c 4
 264.758 563.933 265.767 563.897 266.798 563.835 c 4
 270.408 563.603 274.186 562.958 278.017 561.772 c 4
 287.422 558.983 295.324 553.762 301.173 547.554 c 4
 305.525 542.908 308.641 537.823 310.735 532.804 c 4
 312.83 527.784 313.905 522.839 314.235 518.304 c 4
 314.353 516.638 314.393 515.052 314.329 513.522 c 4
 314.647 504.929 312.915 496.033 308.923 487.741 c 4
 307.238 484.271 305.189 480.991 302.798 477.929 c 4
 297.909 471.67 291.782 466.619 284.954 463.054 c 4
 277.277 459.076 269.059 457.159 261.048 456.991 c 4
 260.57 456.97 260.066 456.967 259.579 456.96 c 4
 258.873 456.964 258.155 456.959 257.454 456.991 c 4
 257.007 457.005 256.565 456.994 256.11 457.022 c 4
 252.44 457.259 248.598 457.956 244.704 459.179 c 4
 244.247 459.315 243.81 459.468 243.36 459.616 c 4
 243.227 459.662 243.088 459.693 242.954 459.741 c 4
 234.403 462.642 227.174 467.53 221.735 473.304 c 4
 217.382 477.949 214.268 483.034 212.173 488.054 c 4
 210.077 493.073 209.003 498.019 208.673 502.554 c 4
 208.556 504.208 208.517 505.814 208.579 507.335 c 4
 208.26 515.93 209.992 524.823 213.985 533.116 c 4
 215.67 536.587 217.719 539.897 220.11 542.96 c 4
 224.998 549.219 231.125 554.27 237.954 557.835 c 4
 246.1 562.056 254.858 563.98 263.329 563.929 c 4
97.5479 535.46 m 4
 92.7861 535.389 87.7783 534.114 83.5166 531.647 c 4
 80.4375 529.894 77.5488 527.41 75.2354 524.46 c 4
 74.1025 523.017 73.123 521.502 72.3291 519.929 c 4
 69.7871 514.977 68.8096 509.098 69.3916 503.835 c 4
 69.9941 498.037 72.541 492.386 75.9854 488.147 c 4
 76.0732 488.037 76.1768 487.943 76.2666 487.835 c 4
 79.4219 486.505 82.8467 485.642 86.3291 485.46 c 4
 91.6582 485.148 97.5205 486.391 102.392 489.21 c 4
 105.471 490.964 108.358 493.446 110.673 496.397 c 4
 111.805 497.841 112.785 499.387 113.579 500.96 c 4
 116.12 505.912 117.098 511.791 116.517 517.054 c 4
 115.913 522.852 113.367 528.472 109.923 532.71 c 4
 109.831 532.824 109.734 532.941 109.642 533.054 c 4
 106.487 534.383 103.06 535.247 99.5791 535.429 c 4
 98.9131 535.468 98.2275 535.47 97.5479 535.46 c 4
266.048 535.46 m 4
 261.286 535.389 256.278 534.114 252.017 531.647 c 4
 248.938 529.894 246.049 527.41 243.735 524.46 c 4
 242.603 523.017 241.623 521.502 240.829 519.929 c 4
 238.287 514.977 237.31 509.098 237.892 503.835 c 4
 238.494 498.037 241.041 492.386 244.485 488.147 c 4
 244.573 488.037 244.677 487.943 244.767 487.835 c 4
 247.922 486.505 251.347 485.642 254.829 485.46 c 4
 260.158 485.148 266.021 486.391 270.892 489.21 c 4
 273.971 490.964 276.858 493.446 279.173 496.397 c 4
 280.305 497.841 281.285 499.387 282.079 500.96 c 4
 284.62 505.912 285.566 511.791 284.985 517.054 c 4
 284.382 522.852 281.867 528.472 278.423 532.71 c 4
 278.331 532.824 278.234 532.941 278.142 533.054 c 4
 274.987 534.383 271.56 535.247 268.079 535.429 c 4
 267.413 535.468 266.728 535.47 266.048 535.46 c 4
256.687 331.234 m 0
 258.505 331.469 261.146 325.062 264.139 313.027 c 0xfe80
 267.129 300.992 270.441 283.323 273.262 261.077 c 0
 276.079 238.831 278.379 211.974 279.28 181.752 c 0
 280.187 151.531 279.631 117.947 277.062 82.2832 c 0
 275.733 63.874 273.793 44.377 269.241 24.5039 c 0
 268.021 19.1895 266.627 13.9141 265.045 8.68359 c 0
 261.177 -4.10645 255.896 -16.5078 249.15 -27.8721 c 0
 242.41 -39.2373 234.229 -49.5703 224.714 -58.3975 c 0
 208.757 -72.9648 189.704 -82.2617 170.72 -86.457 c 0
 159.986 -88.8203 149.354 -89.5566 139.229 -88.9912 c 0
 129.104 -88.4258 119.486 -86.5576 110.646 -83.7256 c 0
 99.7217 -80.2178 90.0723 -75.2764 81.8359 -69.6768 c 0
 73.5977 -64.0762 66.7646 -57.8164 61.2451 -51.5176 c 0
 55.1182 -44.5205 50.6309 -37.5205 47.3623 -31.1543 c 0
 44.0947 -24.7881 42.0391 -19.0488 40.7734 -14.3047 c 0
 39.5068 -9.56055 39.0234 -5.80566 39.001 -3.21582 c 0
 38.9805 -0.625977 39.4141 0.801758 40.1797 1.01562 c 0
 40.9453 1.22852 42.0146 0.222656 43.4561 -1.80469 c 0
 44.8965 -3.83105 46.7158 -6.87988 49.1455 -10.6875 c 0
 51.5742 -14.4941 54.6191 -19.0635 58.5654 -24.0117 c 0
 62.5117 -28.959 67.3652 -34.2881 73.3545 -39.4268 c 0
 78.7461 -44.0527 85.0859 -48.5391 92.3701 -52.4092 c 0
 99.6514 -56.2793 107.889 -59.5312 116.846 -61.5957 c 0
 124.092 -63.2656 131.854 -64.166 139.885 -64.0762 c 0
 147.916 -63.9854 156.214 -62.9023 164.396 -60.6396 c 0
 178.888 -56.6348 193.312 -48.8047 205.043 -37.415 c 0
 212.188 -30.623 218.35 -22.376 223.555 -13.0742 c 0
 228.759 -3.77148 233.01 6.58594 236.391 17.4404 c 0
 237.767 21.917 238.976 26.501 240.045 31.1826 c 0
 244.044 48.6904 245.972 66.8027 247.673 84.7109 c 0
 250.495 115.395 252.178 144.535 253.106 171.303 c 1
 249.754 166.506 245.932 161.823 241.627 157.355 c 0
 231.023 146.356 217.491 136.668 201.475 130.192 c 0
 189.277 125.298 175.874 122.364 161.981 121.848 c 0
 148.098 121.332 133.729 123.238 119.857 127.88 c 0
 118.371 128.378 116.893 128.906 115.428 129.464 c 0
 100.896 135.03 87.9541 143.344 77.2041 153.332 c 0
 66.4551 163.32 57.9004 174.976 51.8027 187.305 c 0
 44.5615 202.028 40.9463 217.373 40.1172 231.827 c 0
 39.2881 246.281 41.2354 259.842 44.9023 271.663 c 0
 48.8311 284.246 54.6074 294.694 60.6943 302.978 c 0
 66.7822 311.261 73.1797 317.4 78.8232 321.779 c 0
 84.4668 326.157 89.3574 328.797 92.8926 330.166 c 0
 96.4258 331.535 98.6016 331.653 99.2158 330.741 c 0
 99.8291 329.83 98.8604 327.936 96.7451 325.05 c 0
 94.6289 322.165 91.3643 318.266 87.6045 313.113 c 0
 83.8477 307.961 79.5889 301.532 75.7148 293.696 c 0
 71.8408 285.859 68.3594 276.597 66.4121 266.18 c 0
 64.583 256.398 64.1133 245.501 65.6621 234.185 c 0
 67.21 222.867 70.7812 211.144 76.8008 200.279 c 0
 81.8457 191.172 88.6875 182.548 97.0508 175.15 c 0
 105.414 167.753 115.282 161.593 126.098 157.497 c 0
 127.188 157.084 128.286 156.688 129.396 156.315 c 0
 139.732 152.84 150.596 151.301 161.15 151.471 c 0
 171.713 151.641 181.959 153.535 191.3 156.844 c 0
 203.563 161.189 214.478 168.062 223.421 176.071 c 0
 232.361 184.082 239.335 193.215 244.358 202.393 c 0
 249.088 211.024 252.167 219.771 254.142 227.903 c 1xfd80
 254.179 239.313 254.122 249.97 254.037 259.771 c 0
 253.845 281.832 253.521 299.569 253.771 311.859 c 0xfe80
 254.021 324.15 254.868 330.999 256.687 331.234 c 0
EndSplineSet
EndChar

StartChar: igrave
Encoding: 236 236 88
Width: 185
VWidth: 0
Flags: W
VStem: 107.039 29.998<-0.943676 328.85>
LayerCount: 2
Fore
SplineSet
28.8164 565.531 m 4
 37.2852 566.537 63.084 536.266 88.1602 495.469 c 4
 114.469 452.666 130.089 414.398 123.035 410.062 c 4
 115.981 405.727 88.9062 436.947 62.5977 479.75 c 4
 36.2881 522.553 20.6377 560.82 27.6914 565.156 c 4
 28.0215 565.359 28.3994 565.481 28.8164 565.531 c 4
120.727 329.719 m 0
 129.006 329.785 136.308 255.601 137.037 164.094 c 0
 137.771 72.5869 131.66 -1.74609 123.383 -1.8125 c 0
 115.104 -1.87891 107.771 72.3369 107.039 163.844 c 0
 106.307 255.351 112.447 329.652 120.727 329.719 c 0
EndSplineSet
EndChar

StartChar: Ugrave
Encoding: 217 217 90
Width: 533
VWidth: 0
Flags: W
HStem: -1.66309 29.998<187.62 326.1>
VStem: 39.0082 24.2725<194.265 345.097> 62.0736 7.98926<494.889 559.917> 463.699 23.9463<216.587 557.091>
LayerCount: 2
Fore
SplineSet
224.837 794.531 m 4x90
 233.306 795.537 259.104 765.266 284.181 724.469 c 4
 310.489 681.666 326.109 643.398 319.056 639.062 c 4
 312.002 634.727 284.927 665.947 258.618 708.75 c 4
 232.309 751.553 216.658 789.82 223.712 794.156 c 4
 224.042 794.359 224.42 794.481 224.837 794.531 c 4x90
EndSplineSet
Refer: 20 85 N 1 0 0 1 -0.000636158 0 2
EndChar

StartChar: Uacute
Encoding: 218 218 91
Width: 533
VWidth: 0
Flags: W
HStem: -1.66309 29.998<187.62 326.1>
VStem: 39.0082 24.2725<194.265 345.097> 62.0736 7.98926<494.889 559.917> 463.699 23.9463<216.587 557.091>
LayerCount: 2
Fore
SplineSet
341.931 794.531 m 4x90
 333.462 795.537 307.663 765.266 282.587 724.469 c 4
 256.278 681.666 240.658 643.398 247.712 639.062 c 4
 254.766 634.727 281.841 665.947 308.149 708.75 c 4
 334.459 751.553 350.109 789.82 343.056 794.156 c 4
 342.726 794.359 342.348 794.481 341.931 794.531 c 4x90
EndSplineSet
Refer: 20 85 N 1 0 0 1 -0.000636158 0 2
EndChar

